<?xml version="1.0" encoding="utf-8"?>
<!-- Generator: Adobe Illustrator 19.0.0, SVG Export Plug-In . SVG Version: 6.00 Build 0)  -->
<svg version="1.1" id="Calque_1" xmlns="http://www.w3.org/2000/svg" xmlns:xlink="http://www.w3.org/1999/xlink" x="0px" y="0px"
	 viewBox="0 0 340.2 267.8" style="enable-background:new 0 0 340.2 267.8;" xml:space="preserve">
<style type="text/css">
	.st0{fill:#146CB0;}
	.st1{fill:#83C395;}
	.st2{fill:#CAD666;}
	.st3{fill:#0BAEC6;}
	.st4{fill:#F9DD74;}
</style>
<g id="XMLID_1_">
	<path id="XMLID_88_" class="st0" d="M143.5,145c-5.9-0.7-11.4-0.9-16.7-2.1c-3.6-0.8-2.4,0.6-1.9,2.4c3,10.2,6.1,20.3,8.7,30.6
		c0.9,3.5,0.5,7.4,0.3,11.1c-0.1,2.2-1.9,2.4-3.1,1c-2.2-2.5-4.6-5-5.8-8c-5-12.9-9.6-25.9-14.5-38.9c-0.5-1.4-2.2-3-3.7-3.5
		c-16.4-5.1-32-12.1-47.1-20c-0.8-0.4-1.4-1-2.1-1.6c1.1-0.2,2.4-0.9,3.4-0.6c6.4,2.1,12.7,4.5,19.1,6.5c7.5,2.4,15.1,4.6,22.7,6.9
		c0.9,0.3,1.9,0.1,2.8,0.1c-0.3-0.7-0.6-1.5-0.9-2.2c-5.5-13.4-11.7-26.3-20.6-37.9c-3.4-4.5-7.8-5.2-12.1-1.6
		c-11.8,10.1-22.5,21.2-32,33.5c-4.3,5.6-9.1,10.8-13.6,16.2c-0.5,0.6-1.1,1.4-1.8,1.7c-1.5,0.5-3,0.7-4.5,1c0.2-1.3,0-2.7,0.5-3.8
		c7.9-17.8,16.5-35.2,28.5-50.6c4.7-6,9.7-11.9,16.8-15.2c6.9-3.2,10.1-3.1,16.6,2.3c10.8,9,17.9,20.7,24.2,33
		c4.3,8.4,8.2,17,12.4,25.4c0.5,1,1.6,2.3,2.6,2.5c10.8,1.8,21.4,1,31.7-2.4c4.6-1.5,9-3.6,13.5-5.1c1.5-0.5,3.3-0.1,5-0.1
		c-0.4,1.8-0.4,3.9-1.4,5.3c-5.7,8-13.1,13.1-23.4,13.2C145.9,144.1,144.5,144.8,143.5,145z"/>
	<path id="XMLID_87_" class="st0" d="M193.3,157.5c-0.4,9-0.7,18-1.3,27c-0.1,1.2-1.7,3.2-2.7,3.3c-2.2,0.3-3.8-1.5-3.7-3.8
		c0.1-3.9,0.4-7.9,0.9-11.8c0.3-2.9,1-5.8,1.5-8.7c0.1-0.5-0.1-1-0.2-1.5c-0.3,0.4-0.7,0.8-1,1.1c-2.9,3.7-5.8,7.5-8.7,11.2
		c-0.9,1.1-2,2-3,3.1c-2.6,2.8-4.7,1.8-6-1.2c-1.6-3.4-2.8-7-4.1-10.5c-0.2-0.5-0.4-1-0.6-1.4c-0.1,0.5-0.2,1.1-0.3,1.6
		c-1.4,6.6-2.7,13.2-4.2,19.7c-0.3,1.2-1.8,2-2.8,3c-1-1.1-2.9-2.4-2.8-3.3c0.9-5.7,2.3-11.3,3.4-17c0.8-3.8,1.8-7.6,2.1-11.5
		c0.2-2.6,1.3-4.3,3.3-4.2c1.4,0.1,3.5,1.8,4.1,3.2c2,4.7,3.5,9.5,5.1,14.4c0.6,1.9,0.9,2.2,2.2,0.4c4-5.3,8.1-10.6,12.3-15.6
		c1.1-1.3,3.2-2.8,4.7-2.7C194.5,152.5,194.2,155.2,193.3,157.5z"/>
	<path id="XMLID_86_" class="st0" d="M233.9,184.7c1.5-7.5,2.9-14.1,4.2-20.7c0.4-2.3,0-4.7,0.7-6.9c0.5-1.5,2.1-2.6,3.3-3.9
		c1.2,1.1,2.8,2.1,3.6,3.5c3.3,6.1,6.4,12.3,9.6,18.5c0.1,0.1,0.1,0.3,0.2,0.3c0.8,0.7,1.6,1.4,2.4,2.1c0.4-1,1.1-2,1.3-3.1
		c1.2-6.5,2.1-13,3.5-19.5c0.3-1.3,2-2.3,3.1-3.5c0.8,1.7,2.6,3.4,2.4,4.9c-1.3,9.2-3,18.3-4.9,27.4c-0.3,1.4-1.9,3-3.3,3.5
		c-0.9,0.3-2.9-1-3.7-2.1c-4.1-5.8-8-11.8-11.9-17.7c-0.4-0.5-0.8-1-1.2-1.5c-0.3,0.7-0.7,1.3-0.8,2c-0.8,4.9-1.5,9.9-2.2,14.8
		c0,0.3,0,0.6,0,0.8c0.3,2.8-1.3,4.6-3.7,4.9C235.6,188.6,234.5,185.8,233.9,184.7z"/>
	<path id="XMLID_85_" class="st0" d="M225.2,152.4c0.6,0,1.2-0.2,1.6,0c1.1,0.6,2.2,1.4,3.3,2.1c-1.2,0.9-2.2,2.5-3.5,2.7
		c-3.6,0.6-7.3,0.7-11,0.9c-4.2,0.3-7.5,4.9-6.1,8.9c0.2,0.5,1.5,1.1,2.2,1c3.2-0.2,6.5-0.9,9.7-0.8c1.8,0,3.5,1.2,5.3,1.8
		c-1.5,1.1-2.9,2.7-4.5,3.1c-3.4,0.9-6.9,1.1-10.3,1.8c-1.2,0.2-3,0.6-3.3,1.3c-0.9,2.2-1.1,4.7-1.5,7c0,0.2,1.3,0.8,2,0.7
		c4-0.4,8.1-0.9,12.1-1.3c1.5-0.2,3-0.5,4.5-0.2c0.8,0.1,1.9,1.4,1.8,2.1c-0.1,0.9-1,2.5-1.8,2.6c-6.5,1-13.1,2-19.7,2.5
		c-4.5,0.4-5.4-0.6-4.8-5.2c0.7-6.2,1.9-12.3,2.6-18.4c0.3-2.4,0.4-4.9,0-7.2c-0.5-2.6,0.6-3.6,2.7-3.9c6.2-0.6,12.5-1.1,18.7-1.6
		C225.2,152.4,225.2,152.4,225.2,152.4z"/>
	<path id="XMLID_84_" class="st0" d="M294.1,188.8c-1.4,0-3.1,0.5-4-0.1c-1.2-0.9-2.5-2.7-2.4-4c0.1-1.7,1.5-2.8,3.9-1.8
		c5.7,2.5,10.5-0.5,15.1-3.1c2-1.2,2.4-3.1-0.4-4.2c-3.7-1.4-7.5-2.8-11.3-4.1c-5.5-2-7-6.5-4.3-11.6c3.1-5.6,15.4-10.8,21.3-6.6
		c1.5,1.1,2.8,2.8,3.4,4.6c0.3,0.7-1.3,2.3-2.4,3.2c-0.4,0.3-2.2-0.1-2.3-0.3c-0.7-4-3.8-3.7-6.4-3.3c-2.6,0.4-5.3,1.3-7.4,2.8
		c-3.2,2.2-2.7,4.6,1,6.3c2.9,1.3,6,2.1,9.1,3.2c3.3,1.2,7.1,2.5,7.3,6.7c0.2,3.5-2.1,6-5.2,7.9C304,187.3,299.8,188.8,294.1,188.8z
		"/>
	<path id="XMLID_83_" class="st1" d="M148.8,98.5c0.5,2.5,1,5,1.4,7.5c0,0,0,0,0,0c1.5,0.4,3,0.7,4.5,1.1c1.9,2.4,3.9,4.8,5.8,7.3
		c-0.6,0.6-1.1,1.4-1.8,1.6c-2.7,1.1-5.5,1.9-8.3,2.9c-0.2-2.4-0.4-4.8-0.6-7.2c-0.1-1.2-0.3-2.4-0.4-3.6c-0.2,1.2-0.4,2.3-0.5,3.5
		c-0.1,2-0.2,4.1-0.3,6.1c-2.9-3.6-5.8-7.2-8.8-10.8c2.6-0.2,5.2-0.4,7.7-0.6c-2.5-0.3-5.1-0.6-7.6-0.9c-0.5-0.1-1.1-0.2-1.6-0.3
		c-3.2-4.7-6.4-9.4-9.6-14.1c-1.5-3.5-0.2-4.7,3.4-4.4c2.6,0.2,5.2,0.2,7.7,0.3C142.8,90.8,145.8,94.7,148.8,98.5z"/>
	<path id="XMLID_82_" class="st2" d="M150.2,105.9C150.2,105.9,150.2,106,150.2,105.9c-0.1-5.6-0.3-11.2-0.2-16.8
		c0-0.8,1.5-2.1,2.4-2.2c3.3-0.2,6.6-0.1,9.9-0.1c0.9,4.6,3.8,8,7.4,10.8c-1.2,2.4-0.1,6.4-4.5,6.7c-0.2,0-0.4,0.5-0.6,0.7
		c3.4,1.8-0.6,3.9,0.2,5.8l0-0.1c-0.6,0.6-1.1,1.1-1.7,1.7l0,0c-0.3,0.3-0.6,0.6-0.9,0.9l0,0c-0.6,0.3-1.2,0.6-1.7,0.9
		c-1.9-2.4-3.9-4.8-5.8-7.3c1.2-0.1,2.5-0.1,3.7-0.3c0.5-0.1,1-0.3,1.5-0.5c-0.5-0.1-1-0.3-1.5-0.3C155.7,106,153,106,150.2,105.9z"
		/>
	<path id="XMLID_81_" class="st2" d="M130.4,72.7c0.6-2.1,0.2-4.9,3.6-5.1c0.2,0,0.5-0.8,0.5-0.8c-3-2.1,0.7-3.7,0.4-5.6l0,0
		c0.3-0.6,0.6-1.1,0.9-1.7c0,0,0,0.1,0,0.1c1.3-0.9,2.6-1.8,3.9-2.8c1.8,2.8,3.5,5.6,5.3,8.4c-0.8,0.1-1.6,0-2.4,0.2
		c-0.7,0.1-1.3,0.4-1.9,0.7c0.7,0.2,1.4,0.6,2,0.6c2-0.1,4.1-0.3,6.1-0.4l0,0.1c0.1,5.5,0.3,10.9,0.2,16.4c0,0.9-1.5,2.4-2.5,2.5
		c-2.1,0.3-4.4,0-6.5-0.1C136.6,81.1,133.5,76.9,130.4,72.7z"/>
	<path id="XMLID_80_" class="st3" d="M139,115c-0.2,0.9,1.6,3.9-1.6,1.9c-4.6-2.9-9.8-5.4-13.4-9.2c-4.7-5.1-8-11.4-8.4-18.7
		c-0.1-0.8,0-2.4,0-2.4c3.3-0.2,6.5-0.5,9.8-0.2c0.8,0.1,1.7,2,2,3.3c0.8,3.5,1.3,7,1.8,10.5c0.2,1.3,2.6,3.5-1.1,3.7
		c0,0.3,0,0.8,0.2,1c1.6,1.2,3.3,2.4,5,3.6c0,0-0.1-0.1-0.1-0.1c1.1,1.4,2.3,2.8,3.4,4.2c0,0-0.1-0.1-0.1-0.1
		c0.3,0.6,0.6,1.2,0.9,1.8l-0.1-0.1C137.9,114.5,138.5,114.8,139,115L139,115z"/>
	<path id="XMLID_79_" class="st4" d="M165.4,62.3c1.2,4.3,1.1,4.3-3.2,3.9c-4.1-0.4-8.2-0.6-12.3-0.8c0,0,0,0,0,0
		c0-3.3,0.2-6.6,0-9.9c-0.2-2.9,0.9-3.2,3.4-2.6c2.9,0.7,5.6,2,8.7,2.5c6.1,1,9,6.7,12.1,11.6c0.1,0.2-1.1,1.5-1.2,1.4
		c-1.6-1-3.3-1.9-4.7-3.2c-1-0.9-1.6-2.2-2.3-3.3c-0.6-0.8-1.1-1.7-1.7-2.5c-0.5-0.1-0.9-0.3-1.4-0.4c0.3,0.3,0.7,0.6,1,0.9
		C164.2,60.7,164.8,61.5,165.4,62.3z"/>
	<path id="XMLID_78_" class="st0" d="M273.7,180.3c1.2-8.1,2.5-16.2,3.6-24.3c0.4-2.4,1.6-4.1,4-3.5c2.5,0.7,2.5,2.6,2,5.1
		c-1.4,7.7-2.3,15.4-3.4,23.1c-0.3,1.9,2.2,4.2-0.7,5.8c-0.9,0.5-2.2,1.5-2.7,1.2c-1-0.6-2-1.8-2.3-2.9c-0.4-1.4-0.1-3-0.1-4.5
		C274,180.3,273.8,180.3,273.7,180.3z"/>
	<path id="XMLID_77_" class="st2" d="M149.9,66.8c1.6,0,3.3,0.1,4.9,0.1c4.4,6.1,8.8,12.2,13.2,18.3c-4.9,0.1-9.9,0-14.8,0.3
		c-2.8,0.2-3.5-1-3.4-3.6C150,76.8,149.9,71.8,149.9,66.8C149.9,66.7,149.9,66.8,149.9,66.8z"/>
	<path id="XMLID_76_" class="st4" d="M168,85.2c-4.4-6.1-8.8-12.2-13.2-18.3c2.7,0.2,5.5,0.8,8.2,0.7c4.8-0.2,6.1,2.7,6.7,6.6
		c0.4,2.6,0.7,5.2,1.3,7.7C171.8,84.7,170.8,85.7,168,85.2z"/>
	<path id="XMLID_75_" class="st4" d="M176.4,101.8c-2.2,0.3-4.4,0.5-6.6,0.8c0.5-2.1,1.1-4.2,1.5-6.4c0.3-1.3,0.6-2.7,0.7-4.1
		c0.7-6.2,0.7-6.1,6.8-6.2c3-0.1,3.7,1.2,3.2,3.7C181.1,94.2,180.6,98.9,176.4,101.8C176.3,101.8,176.4,101.8,176.4,101.8z"/>
	<path id="XMLID_74_" class="st4" d="M173.9,85.2c-0.4-0.5-1.4-1.2-1.6-2.1c-0.7-3.6-1.2-7.3-1.7-10.9c-0.4-2.4,0.2-2.8,2.6-2
		c5.2,1.9,7.3,6,8.6,10.7c0.7,2.4,0,3.7-2.7,3.6C177.6,84.5,176.1,84.9,173.9,85.2z"/>
	<path id="XMLID_73_" class="st1" d="M116.8,76.1c1.1-3.4,9.1-8.1,12.2-7.1c0.3,0.1,0.5,1,0.5,1.5c-0.6,4.3-1.2,8.7-2.1,13
		c-0.1,0.7-2.1,1-3.2,1.5C121.7,81.9,119.2,79,116.8,76.1z"/>
	<path id="XMLID_72_" class="st1" d="M130.4,72.7c3.1,4.2,6.3,8.4,9.4,12.5c-2.9,0-5.7-0.1-8.6,0.1c-2.3,0.1-3.3-0.6-2.7-3.1
		C129.2,79.1,129.8,75.9,130.4,72.7z"/>
	<path id="XMLID_71_" class="st2" d="M134.9,61.2c-0.8,0.9-1.6,1.9-2.5,2.7c-1.6,1.4-3.4,2.6-5,3.8c-0.8-1.6-1.7-3.3-2.5-4.9
		c4.2-2.9,8.5-5.8,12.8-8.5c0.6-0.4,3-2,2.3,1.2c0,0,0,0,0,0c-1.4,1.4-2.8,2.8-4.2,4.2c0,0,0-0.1,0-0.1
		C135.5,60.1,135.2,60.7,134.9,61.2C134.9,61.3,134.9,61.2,134.9,61.2z"/>
	<path id="XMLID_70_" class="st4" d="M149.9,66.8C149.9,66.8,149.9,66.7,149.9,66.8c-0.4-0.2-0.8-0.3-1.2-0.4c0,0,0-0.1,0-0.1
		c-1.3-0.3-2.5-0.7-3.8-1c-1.8-2.8-3.5-5.6-5.3-8.4c0.1-0.5,0.2-1,0.3-1.4c0,0,0,0,0,0c2.9-0.9,5.8-1.8,8.7-2.6
		c0.1,3.1,0.2,6.2,0.4,9.3c0.1,1.1,0.6,2.2,0.8,3.3c0,0,0,0,0,0C149.8,65.8,149.9,66.3,149.9,66.8z"/>
	<path id="XMLID_69_" class="st3" d="M139.9,106.9c2.9,3.6,5.8,7.2,8.8,10.8c-0.7,0.3-1.5,1-1.9,0.8c-2.6-1.1-5.1-2.3-7.7-3.5
		c0,0,0.1,0.1,0.1,0.1c-0.6-0.3-1.2-0.6-1.8-0.9c0,0,0.1,0.1,0.1,0.1c-0.3-0.6-0.6-1.2-0.9-1.8c0,0,0.1,0.1,0.1,0.1
		c-1.1-1.4-2.3-2.8-3.4-4.2c0,0,0.1,0.1,0.1,0.1c0-1.8,0.3-3,2.6-2.3C137.2,106.6,138.6,106.7,139.9,106.9z"/>
	<path id="XMLID_68_" class="st2" d="M164.7,111c0.2-0.1,0.6-0.2,0.7-0.4c1.7-4.3,5-6.7,9.5-7.7c0.6-0.1,1-0.7,1.5-1.1c0,0,0,0,0,0
		c0.2,0.5,0.8,1.3,0.7,1.6c-3.2,5.2-7.6,9.3-13.1,12c-3.5,1.7-1-1.4-1.6-2c0,0,0,0,0,0c0.3-0.3,0.6-0.6,0.9-0.9c0,0,0,0,0,0
		C163.6,112,164.2,111.5,164.7,111L164.7,111z"/>
	<path id="XMLID_67_" class="st2" d="M148.8,98.5c-3-3.9-5.9-7.7-8.9-11.6c9.2-0.4,9.2-0.4,9.1,8.7
		C148.9,96.6,148.8,97.6,148.8,98.5z"/>
	<path id="XMLID_66_" class="st4" d="M169.6,97.7c-3.6-2.8-6.4-6.1-7.4-10.8c11.2-0.2,9.3-2.1,7.7,9.2
		C169.9,96.6,169.8,97.2,169.6,97.7z"/>
	<path id="XMLID_65_" class="st3" d="M128.8,91.1c3.2,4.7,6.4,9.4,9.6,14.1c-6.3-0.1-6.8-0.5-8.3-6.5
		C129.5,96.2,129.2,93.6,128.8,91.1z"/>
	<path id="XMLID_64_" class="st3" d="M116.8,76.1c2.4,2.9,4.9,5.9,7.3,8.8c-0.3,0-0.5,0-0.8-0.1C114.7,84.4,114.7,84.4,116.8,76.1z"
		/>
	<path id="XMLID_63_" class="st1" d="M124.8,62.8c0.8,1.6,1.7,3.3,2.5,4.9c-1.8,0.1-3.7,0.3-5.5,0.4
		C122.9,66.4,123.8,64.6,124.8,62.8z"/>
</g>
</svg>
