<?xml version="1.0" encoding="UTF-8" standalone="no"?>
<!-- Created with Inkscape (http://www.inkscape.org/) -->

<svg
   xmlns:dc="http://purl.org/dc/elements/1.1/"
   xmlns:cc="http://creativecommons.org/ns#"
   xmlns:rdf="http://www.w3.org/1999/02/22-rdf-syntax-ns#"
   xmlns:svg="http://www.w3.org/2000/svg"
   xmlns="http://www.w3.org/2000/svg"
   xmlns:sodipodi="http://sodipodi.sourceforge.net/DTD/sodipodi-0.dtd"
   xmlns:inkscape="http://www.inkscape.org/namespaces/inkscape"
   id="svg4844"
   version="1.1"
   inkscape:version="0.91 r13725"
   width="100"
   height="100"
   viewBox="0 0 100 100"
   sodipodi:docname="db.svg">
  <metadata
     id="metadata4850">
    <rdf:RDF>
      <cc:Work
         rdf:about="">
        <dc:format>image/svg+xml</dc:format>
        <dc:type
           rdf:resource="http://purl.org/dc/dcmitype/StillImage" />
        <dc:title></dc:title>
      </cc:Work>
    </rdf:RDF>
  </metadata>
  <defs
     id="defs4848" />
  <sodipodi:namedview
     pagecolor="#ffffff"
     bordercolor="#666666"
     borderopacity="1"
     objecttolerance="10"
     gridtolerance="10"
     guidetolerance="10"
     inkscape:pageopacity="0"
     inkscape:pageshadow="2"
     inkscape:window-width="1536"
     inkscape:window-height="841"
     id="namedview4846"
     showgrid="false"
     inkscape:zoom="1.5733333"
     inkscape:cx="75"
     inkscape:cy="75"
     inkscape:window-x="-8"
     inkscape:window-y="-8"
     inkscape:window-maximized="1"
     inkscape:current-layer="svg4844" />
  <g
     transform="translate(0.92539812,-0.71890639)"
     id="g5394"
     style="fill:#ffffff">
    <path
       style="fill:#ffffff"
       d="m 38.511065,86.279173 c -4.879391,-0.82025 -12.328597,-3.10177 -12.328597,-3.775967 0,-0.265403 0.340539,-0.482551 0.756753,-0.482551 0.416214,0 0.756753,0.253502 0.756753,0.563342 0,0.315092 0.444951,0.446984 1.009701,0.299301 0.555335,-0.145221 0.897443,-0.0824 0.760239,0.139596 -0.137203,0.221996 0.373292,0.552147 1.134434,0.733657 0.761142,0.181515 1.80962,0.457084 2.329951,0.61237 0.608717,0.181666 0.82424,0.08524 0.604425,-0.270429 -0.217867,-0.352515 -0.04266,-0.438049 0.483624,-0.236091 0.660482,0.253451 0.690897,0.401851 0.152329,0.743247 -0.477855,0.302913 -0.307306,0.447665 0.588327,0.499351 1.382336,0.07977 1.704459,0.117469 8.324284,0.97436 4.447511,0.575698 13.286419,0.399889 14.396792,-0.28636 0.555883,-0.343556 -0.984346,-1.374218 -2.897685,-1.939019 -0.497509,-0.14686 0.08903,-0.140579 1.303419,0.01397 1.534457,0.195273 2.103565,0.112035 1.86568,-0.272875 -0.218622,-0.353737 -0.04412,-0.439431 0.482955,-0.237171 0.453891,0.174174 0.613534,0.455353 0.354762,0.624846 -0.258772,0.169492 -0.466995,0.726276 -0.462719,1.237296 0.0065,0.771843 0.271099,0.873465 1.563324,0.600327 0.855552,-0.180838 2.568094,-0.435678 3.805653,-0.566313 1.237559,-0.130631 2.393489,-0.46952 2.568743,-0.753086 0.175254,-0.28356 0.524859,-0.476699 0.776908,-0.429195 1.007087,0.189819 1.763573,-0.05819 1.496353,-0.490563 -0.155497,-0.2516 0.158686,-0.342022 0.698191,-0.200938 0.539499,0.141084 1.702518,-0.103473 2.584483,-0.543454 0.881966,-0.439982 1.787335,-0.686396 2.011935,-0.547587 0.224604,0.138814 0.550966,0.02164 0.725252,-0.260348 0.174285,-0.282012 0.07646,-0.512741 -0.21739,-0.512741 -0.293853,0 -0.534278,-0.272431 -0.534278,-0.605403 0,-0.470866 0.134535,-0.470866 0.605402,0 1.083742,1.083742 1.596033,0.637343 0.60792,-0.529727 -0.960102,-1.133984 -0.960012,-1.134237 0.08766,-0.252251 0.576802,0.485583 1.228921,0.882879 1.449157,0.882879 0.22023,0 0.09979,-0.397296 -0.267649,-0.882879 -0.553625,-0.731639 -0.553676,-0.781605 -2.97e-4,-0.291673 0.782437,0.692717 2.204391,0.305532 1.72523,-0.469767 -0.185823,-0.300663 -0.08647,-0.380748 0.229836,-0.185258 0.641495,0.396468 1.763931,-1.383607 1.220643,-1.93582 -0.198345,-0.201599 0.08833,-0.288207 0.637055,-0.192457 0.548727,0.09575 1.031157,-0.109694 1.072067,-0.45654 0.04091,-0.346845 0.102762,-0.871053 0.137447,-1.164905 0.03466,-0.293852 0.262447,-0.411048 0.506141,-0.260439 0.596519,0.36867 1.070428,-2.211051 1.070428,-5.826873 0,-1.830606 -0.213551,-2.96395 -0.558479,-2.96395 -0.323593,0 -0.417112,0.371318 -0.222359,0.882878 0.258819,0.679852 0.198294,0.746134 -0.263194,0.288233 -0.46224,-0.458638 -0.353686,-0.906914 0.47461,-1.95992 l 1.073924,-1.365274 0,4.880907 c 0,5.692887 -0.822868,7.860657 -3.890806,10.249974 -4.34283,3.382202 -9.20901,5.310979 -16.887618,6.693633 -6.6397,1.195579 -17.526981,1.29928 -23.901717,0.227652 z m 1.545211,-1.231505 c -0.665307,-0.285892 -0.751232,-0.443029 -0.252251,-0.461317 0.416214,-0.01524 1.097292,0.192336 1.513506,0.461317 0.922213,0.595978 0.125664,0.595978 -1.261255,0 z m 19.328737,-0.344631 c 0.364187,-0.145735 0.799318,-0.127815 0.966964,0.03981 0.167641,0.167641 -0.130333,0.28688 -0.662161,0.264974 -0.587716,-0.02422 -0.707261,-0.143753 -0.304803,-0.3048 z M 37.281514,84.038664 c 0.978108,-0.632101 1.513507,-0.632101 1.513507,0 0,0.277476 -0.510809,0.501026 -1.13513,0.496778 -0.91791,-0.0063 -0.990317,-0.101314 -0.378377,-0.496778 z m 7.819783,0.005 c -0.627915,-0.266776 0.03899,-0.321959 1.765757,-0.146104 1.526119,0.155417 2.869356,0.364275 2.984971,0.464137 0.434303,0.375122 -3.783877,0.09274 -4.750728,-0.318033 z m 15.639565,-0.275373 c -2.037332,-0.93288 -0.818956,-0.934282 1.329459,-0.0015 0.933657,0.405352 1.357015,0.727451 0.940801,0.715777 -0.416215,-0.01165 -1.437831,-0.333087 -2.27026,-0.714249 z M 40.056276,83.539913 c -0.817983,-0.346956 -0.7079,-0.411876 0.581473,-0.34292 0.874763,0.04677 1.485686,0.255328 1.357607,0.463435 -0.282086,0.45834 -0.624529,0.43706 -1.93908,-0.120515 z M 23.878905,81.621271 c -2.634869,-1.467889 -5.291597,-3.740025 -6.019935,-5.148474 -0.594168,-1.148994 -0.592988,-1.346864 0.008,-1.346864 0.387484,0 0.826196,0.317094 0.974915,0.704648 0.148719,0.387553 0.502731,0.561057 0.786693,0.385555 0.283962,-0.175496 0.397997,-0.510495 0.253411,-0.744438 -0.220008,-0.355982 0.169885,-0.36705 1.691828,-0.04803 0.101282,0.02124 -0.159168,0.562565 -0.578776,1.20297 -1.187329,1.81209 -0.312051,2.826276 2.290315,2.653782 1.177181,-0.07803 1.844514,-0.03799 1.482962,0.08895 -0.487877,0.171309 -0.422838,0.419973 0.252251,0.964452 0.841374,0.678586 0.826943,0.69369 -0.192344,0.201296 -2.07033,-1.00013 -3.02133,-0.533818 -1.042171,0.511021 1.040535,0.549317 1.891883,1.106847 1.891883,1.238956 0,0.329591 -0.04701,0.312246 -1.799061,-0.663829 z m -3.190301,-5.276265 c 0.576614,-1.09883 0.564054,-1.107114 -0.392739,-0.259137 -0.79327,0.703049 -1.126659,0.752848 -1.688711,0.252251 -0.593292,-0.528426 -0.598218,-0.488827 -0.03224,0.259137 0.888217,1.17381 1.397235,1.113063 2.113688,-0.252251 z m 50.899053,4.726191 c 0,-0.277476 0.227026,-0.644809 0.504503,-0.816299 0.277476,-0.171491 0.504502,-0.08477 0.504502,0.192704 0,0.277477 -0.227026,0.64481 -0.504502,0.8163 -0.277477,0.17149 -0.504503,0.08477 -0.504503,-0.192705 z M 42.231941,78.649012 c 0.364188,-0.145736 0.799321,-0.127816 0.966963,0.03981 0.167641,0.167641 -0.13033,0.28688 -0.662159,0.264975 -0.587717,-0.02422 -0.707262,-0.143753 -0.304804,-0.3048 z m 0,-1.009004 c 0.364188,-0.145736 0.799321,-0.127816 0.966963,0.03981 0.167641,0.167641 -0.13033,0.28688 -0.662159,0.264975 -0.587717,-0.02422 -0.707262,-0.143753 -0.304804,-0.3048 z m 12.612553,0 c 0.364187,-0.145736 0.79932,-0.127816 0.966962,0.03981 0.167642,0.167641 -0.13033,0.28688 -0.662159,0.264975 -0.587716,-0.02422 -0.707261,-0.143753 -0.304803,-0.3048 z m -5.045021,-0.504502 c 0.364187,-0.145736 0.79932,-0.127816 0.966962,0.0398 0.167642,0.167641 -0.13033,0.28688 -0.662159,0.264975 -0.587716,-0.02422 -0.707261,-0.143753 -0.304803,-0.3048 z m 7.662125,-0.133093 c 0.580887,-0.439764 0.170533,-0.494422 -1.765757,-0.235199 -1.387381,0.185738 -2.367626,0.172651 -2.178323,-0.02906 0.189303,-0.20173 1.437946,-0.464813 2.774762,-0.584622 1.336816,-0.119814 3.225165,-0.332129 4.196331,-0.471811 l 1.765758,-0.253976 -1.765758,0.705819 c -3.463563,1.384474 -3.857398,1.497523 -3.027013,0.868873 z m 2.986411,-0.07414 c 0.808278,-0.323073 1.39628,-0.312271 1.740532,0.03199 0.356839,0.356839 -0.02598,0.50985 -1.220653,0.487899 -1.63545,-0.03007 -1.666837,-0.06143 -0.519879,-0.51988 z m -18.625976,-0.47689 c 0,-0.564972 3.50899,-0.644265 4.365882,-0.09866 0.320163,0.20386 -0.531184,0.418525 -1.891883,0.477032 -1.360699,0.05851 -2.473999,-0.111762 -2.473999,-0.378376 z M 38.795021,75.96663 c -1.204494,-0.385748 -1.188806,-0.40619 0.348602,-0.454214 0.885422,-0.02766 1.750167,0.176738 1.921657,0.454214 0.358563,0.580167 -0.458687,0.580167 -2.270259,0 z M 78.337497,75.8972 c 0.163847,-0.848956 1.658531,-0.969577 1.658531,-0.133844 0,0.492056 -0.180032,0.54235 -0.62361,0.174214 -0.428101,-0.35529 -0.706213,-0.348827 -0.887082,0.02063 -0.157793,0.322306 -0.217092,0.297842 -0.147839,-0.06099 z M 63.011122,75.548776 c 0,-0.62747 5.023322,-1.662435 5.84284,-1.203813 0.448205,0.250829 -0.0789,0.429942 -1.423003,0.48354 -1.174204,0.04682 -2.213892,0.322059 -2.310413,0.611633 -0.206896,0.620679 -2.109424,0.718664 -2.109424,0.10864 z M 33.3163,74.883363 c -0.932226,-0.268269 -1.605435,-0.577282 -1.496022,-0.686693 0.109414,-0.109416 1.326195,0.110254 2.70396,0.488151 1.377764,0.377897 2.050973,0.68691 1.496021,0.686693 -0.554952,-2.12e-4 -1.771734,-0.219882 -2.703959,-0.488151 z m 38.52718,-0.436016 c 0.169523,-0.274298 -0.04571,-0.498726 -0.478298,-0.498726 -0.43259,0 -0.786529,-0.227026 -0.786529,-0.504502 0,-0.682611 0.575314,-0.610064 1.654459,0.208632 0.795757,0.603697 0.807103,0.715808 0.09992,0.98718 -0.460661,0.176772 -0.667532,0.09539 -0.489554,-0.192584 z m 2.266688,0.02883 c 0.416214,-0.281658 1.137834,-0.515581 1.603595,-0.519829 0.465767,-0.004 1.203601,-0.364477 1.639632,-0.800513 0.436036,-0.436031 0.79279,-0.557536 0.79279,-0.27 0,0.637777 -1.256831,1.314274 -3.279264,1.765076 -1.105732,0.246475 -1.309622,0.199395 -0.756753,-0.174734 z M 23.533832,74.119002 c 0.346845,-0.139954 0.91441,-0.139954 1.261255,0 0.346845,0.139954 0.06306,0.254466 -0.630628,0.254466 -0.69369,0 -0.977472,-0.114512 -0.630627,-0.254466 z m 1.639632,-0.674883 c -0.971167,-0.531689 -1.584214,-0.976226 -1.362328,-0.987855 0.534622,-0.02805 3.380336,1.451568 3.380336,1.757564 0,0.330202 -0.02953,0.318941 -2.018008,-0.769709 z m -8.46214,-3.279263 c 0.02653,-3.869542 0.04187,-3.921566 0.371998,-1.261256 0.189381,1.526119 0.176929,3.342327 -0.02767,4.036017 -0.229888,0.779431 -0.361428,-0.280579 -0.344328,-2.774761 z m 5.23417,2.548764 c 0.0873,-0.540513 -0.115552,-1.314823 -0.450784,-1.720685 -0.53216,-0.644279 -0.465454,-0.648214 0.525616,-0.03103 1.162685,0.724072 1.502174,1.473202 0.667619,1.473202 -0.25713,0 -0.565085,0.283782 -0.684345,0.630628 -0.119259,0.346845 -0.145407,0.188391 -0.05811,-0.352123 z m 5.977359,0.771551 c 0.157536,-0.254895 -0.347114,-0.602598 -1.121443,-0.772671 -0.774329,-0.170072 -2.422248,-1.003449 -3.662043,-1.851951 -2.572474,-1.760571 -2.533163,-1.750849 2.409829,0.595993 3.553673,1.687222 4.481802,2.492079 2.873757,2.492079 -0.43259,0 -0.657634,-0.208551 -0.5001,-0.46345 z m 2.201038,0.11882 c 0.364187,-0.145736 0.79932,-0.127816 0.966962,0.03981 0.167642,0.167646 -0.13033,0.28688 -0.662159,0.264975 -0.587716,-0.02422 -0.707261,-0.143753 -0.304803,-0.3048 z m 44.208828,-0.384289 c 0.538617,-0.431526 1.200776,-0.784587 1.471466,-0.784587 0.64099,0 0.354781,0.23303 -1.189515,0.968498 -1.189248,0.566379 -1.205346,0.555875 -0.281951,-0.183911 z m 0.270141,-1.708941 c 1.519621,-0.813318 3.089288,-1.353528 3.488147,-1.200473 0.417325,0.160145 0.589577,0.05884 0.405741,-0.238614 -0.175708,-0.284297 0.207028,-1.011517 0.85052,-1.616046 1.037756,-0.97492 1.242543,-1.011719 1.81198,-0.325586 0.353101,0.425457 0.47289,0.773558 0.266201,0.773558 -0.20669,0 -0.07109,0.397296 0.301334,0.882879 0.372428,0.485583 0.09376,0.364508 -0.619257,-0.269056 -1.182336,-1.05059 -1.356152,-1.079932 -1.97561,-0.333526 -0.57549,0.693418 -0.565516,0.792295 0.06531,0.647432 0.409494,-0.09404 0.851337,0.03723 0.981872,0.291713 0.13054,0.254476 -0.294326,0.501859 -0.94414,0.549731 -0.649819,0.04788 -1.330897,0.319108 -1.513506,0.602744 -0.182615,0.283636 -1.013101,0.639355 -1.84553,0.790484 -0.832428,0.151129 -2.081071,0.42075 -2.774761,0.599152 -0.693691,0.178402 -0.01791,-0.341074 1.501696,-1.154392 z m 2.783,-0.583376 c 0.176747,-0.285982 -0.02578,-0.370556 -0.474727,-0.198274 -0.874009,0.335388 -1.033921,0.697 -0.30823,0.697 0.2611,0 0.613434,-0.224428 0.782957,-0.498726 z M 37.786016,70.653683 c -5.687497,-1.024175 -11.812501,-3.173672 -15.102284,-5.299961 -1.615894,-1.044405 -3.074195,-2.119303 -3.24067,-2.388661 -0.166474,-0.269364 0.14666,-1.007844 0.695853,-1.641065 0.549193,-0.633226 0.998532,-0.905772 0.998532,-0.605659 0,0.300112 -0.334705,0.880365 -0.743788,1.289446 -0.655383,0.655384 -0.652268,0.778911 0.0262,1.039264 0.423495,0.16251 0.640983,0.08673 0.483308,-0.168392 -0.157676,-0.255122 -0.08595,-0.587922 0.159384,-0.739545 0.245337,-0.151628 0.41931,0.116469 0.386606,0.595766 -0.0327,0.479298 0.167563,0.871452 0.445039,0.871452 0.277476,0 0.444505,-0.179991 0.371175,-0.399979 -0.07333,-0.219993 0.309041,-0.163237 0.849712,0.126125 1.303098,0.697394 1.696329,0.664102 1.234555,-0.104522 -0.25397,-0.422733 -0.09542,-0.400666 0.480948,0.06694 0.658448,0.534192 0.725739,0.859117 0.287321,1.387381 -0.436809,0.526322 -0.40839,0.691647 0.119904,0.69754 0.575448,0.0064 0.572802,0.08344 -0.01566,0.456009 -0.834975,0.528632 8.282427,3.632208 10.924232,3.718624 0.901798,0.02951 1.639632,0.178907 1.639632,0.332023 0,0.808732 18.35238,1.254243 21.010436,0.510037 1.965594,-0.550336 3.63825,-0.786983 6.595223,-0.933092 0.743742,-0.03678 1.027741,-0.293893 0.846423,-0.766389 -0.212996,-0.555069 -0.624614,-0.602981 -1.876046,-0.218389 -2.507702,0.770672 -6.39595,0.979602 -6.39595,0.343672 0,-0.350321 0.691573,-0.452236 1.891882,-0.278793 1.040536,0.150352 2.345935,0.08181 2.900888,-0.152314 0.820431,-0.346129 0.849566,-0.432308 0.155901,-0.46114 -0.469207,-0.01953 -0.992991,-0.261802 -1.163962,-0.53844 -0.1978,-0.320046 0.197043,-0.309871 1.085663,0.028 0.768084,0.292026 1.921174,0.399279 2.562422,0.238337 0.781696,-0.196195 1.263157,-0.03915 1.461048,0.476523 0.162329,0.42303 0.624796,0.769144 1.027701,0.769144 0.4029,0 0.580823,-0.245501 0.395378,-0.545559 -0.202497,-0.327639 0.03749,-0.498186 0.600852,-0.426965 0.515914,0.06523 1.278565,-0.01181 1.694779,-0.171223 0.416214,-0.159403 1.437831,-0.506455 2.27026,-0.771227 0.832428,-0.264778 1.459474,-0.728648 1.393435,-1.030819 -0.07084,-0.324108 0.239497,-0.414676 0.756753,-0.220856 0.78506,0.29417 0.799943,0.234144 0.142184,-0.573554 -0.841187,-1.032942 -1.175178,-2.462404 -0.474096,-2.029112 0.257644,0.159231 0.353726,0.475125 0.213515,0.701989 -0.140206,0.226865 0.05434,0.669147 0.432328,0.982851 0.783648,0.650369 2.47877,0.195 2.022473,-0.543303 -0.165214,-0.267316 -0.674716,-0.343591 -1.132233,-0.169498 -0.651409,0.247877 -0.699694,0.183372 -0.222602,-0.297373 0.438589,-0.441949 0.79228,-0.462003 1.262683,-0.0716 0.470872,0.390787 0.897524,0.363826 1.527047,-0.09649 0.480483,-0.351341 0.73287,-0.779537 0.56086,-0.951547 -0.172015,-0.17201 0.07668,-0.907095 0.552652,-1.633522 0.475973,-0.726423 0.995085,-1.191089 1.15359,-1.032588 0.158499,0.158499 0.58719,-0.105585 0.952646,-0.586856 0.89874,-1.183549 0.955618,-8.691646 0.06593,-8.702545 -0.436268,-0.0053 -0.459581,-0.121959 -0.07565,-0.378376 0.305239,-0.203859 0.684609,-0.71119 0.843048,-1.127405 0.158439,-0.416214 0.305991,1.581537 0.327896,4.439447 0.04566,5.956382 -0.336069,7.027936 -3.532251,9.915495 -3.478032,3.14219 -9.992269,5.729348 -17.809217,7.073003 -5.547187,0.953484 -18.723151,0.952233 -24.023891,-0.0023 z M 24.505171,65.54463 c -0.182576,-0.182579 -0.117576,-0.590272 0.144445,-0.90599 0.55725,-0.671441 -1.654371,-0.788486 -2.319798,-0.12277 -0.222675,0.222773 0.02275,0.24095 0.545399,0.04041 0.626713,-0.240491 0.835126,-0.178351 0.612107,0.182499 -0.185985,0.300931 -0.05296,0.662129 0.295615,0.802658 0.928349,0.374275 1.094031,0.375011 0.722232,0.003 z m 56.651983,-4.935614 c -0.0088,-0.293811 -0.349367,-0.09352 -0.756753,0.445102 -0.40739,0.538616 -0.73349,1.219694 -0.724667,1.513506 0.0088,0.293812 0.349368,0.09351 0.756753,-0.445102 0.407391,-0.538617 0.733491,-1.219694 0.724667,-1.513506 z m -63.1737,8.503938 c -0.162331,-0.162329 -0.19481,-0.848477 -0.07217,-1.524767 0.14372,-0.792568 -0.05024,-1.334469 -0.545689,-1.52459 -0.422764,-0.162228 -0.754272,-0.781479 -0.736684,-1.376116 0.03119,-1.05456 0.04212,-1.05615 0.444343,-0.0647 0.226799,0.559044 1.160951,1.748332 2.075892,2.642854 0.914941,0.894528 1.536605,1.753332 1.381475,1.908461 -0.155129,0.15513 -0.64962,-0.08551 -1.098867,-0.534757 -0.744067,-0.744065 -1.035208,-0.614403 -0.876556,0.390389 0.07157,0.45328 -0.166966,0.488 -0.571739,0.08323 z M 37.029263,68.9036 c -0.665307,-0.285891 -0.751231,-0.443028 -0.252251,-0.461316 0.416214,-0.01524 1.097292,0.192336 1.513506,0.461316 0.922213,0.595979 0.125664,0.595979 -1.261255,0 z m -3.852805,-0.909526 c 0.484823,-0.339686 0.518312,-0.56311 0.113513,-0.757323 -0.37133,-0.17815 -0.37813,-0.239836 -0.01925,-0.174583 0.775432,0.140988 0.694518,1.022469 -0.113513,1.2366 -0.527617,0.139823 -0.523562,0.07562 0.01925,-0.304694 z m 3.50596,-0.444108 c 0.364187,-0.145736 0.799321,-0.127816 0.966963,0.03981 0.167641,0.167646 -0.130331,0.28688 -0.662159,0.264974 -0.587717,-0.02422 -0.707262,-0.143752 -0.304804,-0.3048 z m -4.8147,-5.050006 c 0.490864,-0.127911 1.171942,-0.119501 1.513507,0.01867 0.341564,0.138198 -0.06005,0.242852 -0.892481,0.23257 -0.832428,-0.01029 -1.11189,-0.123351 -0.621026,-0.251262 z m 5.138459,-0.523184 c 0.739658,-0.387543 1.615005,-0.594656 1.945215,-0.460247 0.33021,0.13441 0.14633,0.265782 -0.408622,0.29194 -0.7242,0.03415 -0.825399,0.164039 -0.358527,0.460248 0.416624,0.264323 0.08005,0.412692 -0.936212,0.412692 l -1.586687,0 1.344833,-0.704633 z m 4.941982,0.525031 c 0.485583,-0.126893 1.280174,-0.126893 1.765757,0 0.485583,0.126897 0.08829,0.230724 -0.882879,0.230724 -0.971166,0 -1.368462,-0.103827 -0.882878,-0.230724 z m 15.582479,-0.60789 c -0.580616,-0.367853 -0.580616,-0.484973 0,-0.752046 0.378242,-0.173988 0.02239,-0.186853 -0.790773,-0.02861 -0.813167,0.158263 -4.105043,0.242742 -7.31528,0.187736 -8.66812,-0.148531 -9.539228,-0.192892 -9.363748,-0.476824 0.08825,-0.142797 4.105659,-0.211667 8.927569,-0.153044 5.021898,0.06106 9.687629,-0.127064 10.921941,-0.440366 1.585043,-0.402327 2.306577,-0.395209 2.728704,0.02692 0.428827,0.428828 0.413334,0.573872 -0.06131,0.573872 -0.351653,0 -0.474494,0.25999 -0.275201,0.582453 0.224822,0.363766 0.138199,0.445384 -0.230703,0.21739 -0.324874,-0.200782 -0.445037,-0.600721 -0.267023,-0.888752 0.204126,-0.330288 -0.07231,-0.410572 -0.748525,-0.217391 -0.589702,0.168465 -1.529531,0.436159 -2.088513,0.594875 -0.558981,0.158712 -0.886122,0.49925 -0.726979,0.756753 0.356582,0.576959 0.180307,0.581187 -0.710162,0.017 z M 17.898214,60.957692 c -0.454791,-1.43292 -0.364473,-1.822122 0.4506,-1.94175 0.924512,-0.135689 0.994979,0.380465 0.165222,1.210222 -0.437506,0.437506 -0.44544,0.605403 -0.02861,0.605403 0.317237,0 0.930207,-0.504567 1.362155,-1.121259 0.431948,-0.616693 0.777808,-0.900476 0.768576,-0.630628 -0.01872,0.547146 -1.762059,2.760891 -2.174222,2.760891 -0.144931,0 -0.389608,-0.397296 -0.543726,-0.882879 z m 16.492015,0.533264 c 0.490864,-0.127912 1.171942,-0.119501 1.513506,0.01867 0.341564,0.138198 -0.06005,0.242852 -0.89248,0.23257 -0.832429,-0.01029 -1.111891,-0.123351 -0.621026,-0.251262 z m 25.499286,0.005 c 0.364185,-0.145736 0.799318,-0.127816 0.966964,0.03981 0.167641,0.167646 -0.130333,0.28688 -0.662159,0.264975 -0.587718,-0.02422 -0.707263,-0.143753 -0.304805,-0.3048 z m 5.644117,-0.159932 c 0.623101,-0.402679 0.630527,-0.490417 0.04203,-0.496778 -0.393088,-0.004 -0.595852,-0.126581 -0.450581,-0.271851 0.376899,-0.3769 1.922047,0.284398 1.922047,0.822605 0,0.247787 -0.510808,0.44705 -1.135129,0.442802 -0.917897,-0.0063 -0.990303,-0.101314 -0.378362,-0.496778 z m 12.907929,-0.826287 c -0.393214,-1.02471 0.236621,-1.798327 1.053219,-1.293644 0.434547,0.268565 0.416511,0.588801 -0.07068,1.255075 -0.608965,0.832815 -0.676734,0.835474 -0.982538,0.03857 z M 30.975238,60.327065 c -0.17149,-0.277477 -0.08477,-0.504503 0.192703,-0.504503 0.277476,0 0.644811,0.227026 0.816301,0.504503 0.17149,0.277476 0.08477,0.504502 -0.192703,0.504502 -0.277476,0 -0.644811,-0.227026 -0.816301,-0.504502 z m 6.558527,0 c 0.554953,-0.238472 1.349543,-0.433584 1.765758,-0.433584 0.476996,0 0.383744,0.160287 -0.252251,0.433584 -0.554953,0.238471 -1.349544,0.433583 -1.765758,0.433583 -0.476996,0 -0.383744,-0.160287 0.252251,-0.433583 z m -5.369586,-1.240368 c -1.288415,-0.355104 -3.181143,-0.579107 -4.206061,-0.497784 -1.703846,0.135192 -1.784091,0.08566 -0.936691,-0.57824 0.852847,-0.668161 0.806033,-0.704734 -0.586708,-0.458355 -1.274967,0.225544 -1.35448,0.185488 -0.504502,-0.254156 0.820587,-0.424442 0.679275,-0.473126 -0.756753,-0.26071 -1.039287,0.153731 -1.496479,0.08749 -1.11125,-0.161015 0.523267,-0.337544 0.497976,-0.552114 -0.126125,-1.070073 -0.439341,-0.364619 -0.780634,-0.42389 -0.780634,-0.135568 0,0.281765 -0.35233,0.647501 -0.782956,0.812748 -0.430626,0.165247 -0.656915,0.09651 -0.502865,-0.152748 0.621863,-1.006196 -0.335611,-2.025485 -1.748157,-1.861019 -2.02619,0.235915 -3.039963,-0.511768 -1.889613,-1.393638 0.828879,-0.635428 0.822071,-0.724005 -0.121245,-1.577694 -0.987146,-0.893355 -0.998804,-0.862917 -0.948698,2.477042 0.0279,1.859832 -0.08781,3.520049 -0.257132,3.689373 -0.169323,0.169324 -0.306365,-1.829966 -0.304537,-4.442867 l 0.0033,-4.750728 0.98687,1.497148 c 2.357901,3.577093 7.992468,6.767941 15.655051,8.865432 1.803595,0.493701 2.825212,0.897831 2.27026,0.898066 -0.554952,2.36e-4 -2.063163,-0.29011 -3.351578,-0.645214 z M 20.264458,53.395302 c -0.176857,-0.460882 -0.441329,-0.505928 -0.871979,-0.14852 -0.339971,0.28215 -0.803908,0.344701 -1.030972,0.139001 -0.227063,-0.205699 -0.279599,-0.138865 -0.116746,0.148521 0.443466,0.782585 2.323686,0.653182 2.019697,-0.139002 z m 46.515844,5.429465 c 1.934312,-0.530914 3.618088,-0.86414 3.741726,-0.740504 0.123633,0.123636 -0.05347,0.224793 -0.393567,0.224793 -0.3401,0 -0.513129,0.17027 -0.384512,0.378377 0.128618,0.208107 -0.368791,0.411892 -1.105354,0.452856 -0.736563,0.04096 -2.247309,0.203921 -3.357214,0.362127 -1.112942,0.15864 -0.440682,-0.145283 1.498921,-0.677649 z M 21.641949,58.33883 c 0,-0.834306 0.972585,-1.111206 1.887887,-0.537491 0.75325,0.47214 0.706326,0.506116 -0.311433,0.225506 -0.81292,-0.224133 -1.087288,-0.150754 -0.853105,0.228162 0.189862,0.307203 0.104779,0.558551 -0.189073,0.558551 -0.293852,0 -0.534276,-0.213627 -0.534276,-0.474728 z m 51.173475,0.03938 c 1.21695,-0.498491 0.269843,-1.206455 -1.056115,-0.789446 -0.816057,0.256647 -0.828443,0.227134 -0.102353,-0.24388 0.599364,-0.388811 1.360803,-0.339797 2.774761,0.17861 1.07179,0.392959 1.608172,0.749136 1.191957,0.791505 -0.416214,0.04237 -1.437831,0.163832 -2.270259,0.269919 -1.108114,0.141222 -1.252215,0.08585 -0.537991,-0.206708 z m 0.832282,-1.766569 c 0.115617,-0.101153 0.777776,-0.47886 1.471466,-0.83935 1.153696,-0.59954 1.202209,-0.583856 0.568857,0.183914 -0.380824,0.46164 -1.042983,0.839348 -1.471467,0.839348 -0.428483,0 -0.684468,-0.08276 -0.568856,-0.183914 z M 44.092293,55.952903 c -4.807408,-0.401476 -11.432446,-1.800516 -10.925725,-2.307237 0.353731,-0.353731 1.151412,-0.263928 2.520107,0.283715 2.268215,0.90756 13.977261,2.055513 16.702044,1.637466 0.986489,-0.151351 3.572824,-0.400605 5.747412,-0.553897 2.174588,-0.153292 4.785386,-0.592193 5.801776,-0.975334 1.016385,-0.383142 2.869593,-0.834075 4.118236,-1.002074 1.248642,-0.167998 2.610798,-0.540725 3.027012,-0.828281 0.602098,-0.415979 0.541952,-0.463028 -0.294291,-0.230219 -0.710581,0.197823 -1.051049,0.0595 -1.051049,-0.426999 0,-0.524766 0.289644,-0.609485 1.069741,-0.312893 1.278156,0.485953 4.60395,-0.547851 5.773149,-1.794547 0.744579,-0.793936 0.738697,-0.837903 -0.07415,-0.554294 -1.343787,0.468855 -1.05391,-0.03979 0.504502,-0.885235 0.767343,-0.416291 1.049178,-0.765146 0.630628,-0.78059 -0.660752,-0.02438 -0.662901,-0.08728 -0.0169,-0.495843 0.472093,-0.298581 0.981917,-0.267007 1.408762,0.08724 0.757812,0.628929 1.017066,0.410152 2.519776,-2.126386 0.856528,-1.445804 1.046887,-2.619483 1.050555,-6.477299 0.0025,-2.591348 0.135625,-4.842688 0.295915,-5.002979 0.678238,-0.678238 0.271478,10.055471 -0.432656,11.41712 -1.806677,3.493724 -8.495457,7.642986 -15.167724,9.409014 -6.182542,1.636407 -16.439042,2.484762 -23.207097,1.919548 z m 34.554176,-7.720606 c 0.64091,-0.405195 0.648639,-0.572431 0.05212,-1.127405 -0.445561,-0.414522 -0.577846,-0.433449 -0.363549,-0.05201 0.185279,0.329791 -0.0652,0.833695 -0.556617,1.119788 -0.49142,0.286092 -0.666462,0.523595 -0.388986,0.527784 0.277476,0.0042 0.843144,-0.20648 1.257037,-0.468153 z m -1.257037,6.300521 c 0.554952,-0.442688 1.5117,-1.241248 2.126108,-1.774579 0.632186,-0.548763 1.247351,-0.758946 1.417156,-0.484199 0.165028,0.267021 0.09746,0.485493 -0.150145,0.485493 -0.247604,0 -0.450192,0.340539 -0.450192,0.756753 0,0.883294 0.426052,0.969739 1.160355,0.235435 0.358756,-0.358757 0.521322,-0.29951 0.521322,0.190001 0,0.503849 -0.52728,0.673544 -1.807803,0.581804 -0.994287,-0.07123 -2.261849,0.08282 -2.816801,0.342332 -1.009005,0.471848 -1.009005,0.471848 0,-0.33304 z M 26.970199,52.007835 C 22.172265,49.913317 19.849817,48.132546 17.965,45.102966 16.644505,42.980456 16.567222,42.546421 16.703745,38.0196 c 0.142292,-4.718133 0.164523,-4.79694 1.029059,-3.64796 0.634584,0.843372 0.719256,1.275936 0.300426,1.534787 -0.348348,0.215291 -0.446914,0.139925 -0.244768,-0.187155 0.186138,-0.301176 0.107702,-0.690191 -0.1743,-0.864478 -0.727124,-0.449387 -0.663753,7.435765 0.07275,9.052214 0.322015,0.706746 0.749589,1.284993 0.950164,1.284993 0.200574,0 0.483418,0.454052 0.628541,1.009005 0.145123,0.554952 0.525539,1.009004 0.845368,1.009004 0.31983,0 0.421291,-0.283783 0.22547,-0.630628 -0.274185,-0.485647 -0.208905,-0.494711 0.283953,-0.03943 0.351995,0.325162 1.009622,0.474016 1.461394,0.330786 0.687728,-0.218037 0.702169,-0.175988 0.08874,0.258387 -0.402966,0.285342 -0.970531,0.376692 -1.261255,0.202999 -0.290725,-0.173694 -0.21701,0.06831 0.163811,0.53779 0.38082,0.469478 0.948385,0.85012 1.261255,0.845871 0.31287,-0.0042 0.228315,-0.252688 -0.187899,-0.55209 -0.609608,-0.438519 -0.56056,-0.476655 0.252251,-0.196127 2.374483,0.819513 2.50358,0.82289 1.543206,0.04037 -1.234618,-1.005968 -0.314351,-1.058165 1.009005,-0.05723 0.603999,0.456842 0.726214,0.746857 0.318902,0.756753 -0.363221,0.0088 -0.506094,0.265721 -0.317495,0.57088 0.230889,0.373585 -0.02071,0.360232 -0.770187,-0.04087 -0.612203,-0.327641 -1.232768,-0.476038 -1.379035,-0.32977 -0.426247,0.426247 3.020309,2.334364 4.220207,2.336434 0.601198,0.0011 1.199468,0.285669 1.329488,0.632514 0.16488,0.439838 0.494181,0.325365 1.088458,-0.378377 0.468633,-0.554952 0.708312,-0.725222 0.532621,-0.378376 -0.17569,0.346845 -0.02226,0.646584 0.340964,0.666086 0.363221,0.0195 0.20635,0.230574 -0.348602,0.469045 -1.009005,0.433584 -1.009005,0.433584 0,0.476768 0.554952,0.02375 1.349543,0.263258 1.765757,0.532236 1.751896,1.132162 -0.883091,0.437031 -4.761792,-1.2562 z m 35.536421,0.751698 c -0.416215,-0.268978 -0.529728,-0.489051 -0.252251,-0.489051 0.277476,0 0.845041,0.220073 1.261255,0.489051 0.416214,0.268978 0.529727,0.489051 0.252251,0.489051 -0.277476,0 -0.845041,-0.220073 -1.261255,-0.489051 z M 33.176458,52.308376 c 0.558727,-0.353987 0.563511,-0.477107 0.02551,-0.656442 -0.468263,-0.156088 -0.403431,-0.320035 0.221368,-0.559793 0.528308,-0.202731 0.759642,-0.138533 0.575346,0.159664 -0.169526,0.274298 -0.01105,0.5022 0.352173,0.506449 0.479878,0.0056 0.45354,0.141411 -0.09635,0.496777 -0.416215,0.268978 -0.98378,0.489051 -1.261256,0.489051 -0.277476,0 -0.195031,-0.196068 0.183212,-0.435706 z m 32.823077,0.325031 c -0.322094,-1.05244 -0.277724,-1.835129 0.09112,-1.607174 0.257644,0.159233 0.349812,0.481463 0.204818,0.716066 -0.144994,0.234604 0.02159,0.541533 0.370148,0.682064 0.503649,0.203051 0.504295,0.263689 0.003,0.295341 -0.346845,0.0219 -0.647998,-0.01693 -0.669227,-0.0863 z m 1.585045,-1.095438 c -0.488076,-0.588098 -0.409475,-0.668517 0.437055,-0.447145 0.567691,0.148454 0.907806,0.471132 0.755815,0.717062 -0.369689,0.598162 -0.496183,0.56954 -1.19287,-0.269917 z M 31.47974,51.246027 c 0.17149,-0.277477 0.411914,-0.504503 0.534276,-0.504503 0.122363,0 0.222477,0.227026 0.222477,0.504503 0,0.277476 -0.240424,0.504502 -0.534276,0.504502 -0.293852,0 -0.393967,-0.227026 -0.222477,-0.504502 z m 4.193674,0.159869 c 0.364187,-0.145736 0.79932,-0.127812 0.966962,0.03983 0.167642,0.167642 -0.13033,0.28688 -0.662159,0.264974 -0.587716,-0.02421 -0.707261,-0.143753 -0.304803,-0.304803 z m 27.747616,0 c 0.364185,-0.145736 0.799318,-0.127812 0.966964,0.03983 0.167641,0.167642 -0.130333,0.28688 -0.662159,0.264974 -0.58772,-0.02421 -0.707262,-0.143753 -0.304805,-0.304803 z m 11.019577,-3.565259 c -0.128492,-0.208107 0.346966,-0.413283 1.056563,-0.455947 0.930206,-0.05593 1.092651,0.04749 0.582216,0.370651 -0.873666,0.553131 -1.335104,0.577149 -1.638779,0.0853 z m -41.951863,-1.639631 -1.513506,-0.385122 1.513506,-0.06742 c 1.173104,-0.05225 1.343305,-0.177407 0.756753,-0.556467 -0.672669,-0.434712 -0.672669,-0.490255 0,-0.499885 0.932755,-0.01335 -1.271828,-1.193611 -3.768798,-2.017686 -1.016582,-0.335502 -1.755019,-0.703314 -1.640973,-0.81736 0.185223,-0.185224 3.420384,0.806104 5.409771,1.657678 0.416215,0.178165 0.883183,0.302506 1.037707,0.276316 0.154524,-0.02619 2.084245,0.25503 4.288268,0.624936 2.204023,0.369905 3.326237,0.685944 2.493808,0.702307 -0.832428,0.01636 -2.519592,-0.164443 -3.749253,-0.40179 -2.707229,-0.522547 -3.552897,-0.261666 -3.30609,1.019897 0.102646,0.533002 0.142909,0.942233 0.08947,0.909403 -0.05344,-0.03283 -0.778236,-0.232994 -1.610665,-0.444811 z m 11.537555,-0.611282 c -0.135193,-0.218748 2.529742,-0.397723 5.922078,-0.397723 3.392335,0 6.052424,0.11546 5.911306,0.256576 -0.432544,0.432545 -11.571178,0.565405 -11.833384,0.141147 z m 22.926245,0.266649 c 0.364185,-0.145736 0.799318,-0.127812 0.966964,0.03983 0.167641,0.167642 -0.130333,0.28688 -0.662159,0.264974 -0.587719,-0.02421 -0.707261,-0.143753 -0.304805,-0.304803 z M 62.50662,45.18097 c 0.526034,-0.347616 -0.166133,-0.428681 -2.27026,-0.265888 -2.846715,0.220246 -2.891789,0.207335 -0.756753,-0.216761 1.248643,-0.248026 2.951337,-0.319793 3.783766,-0.159484 1.339821,0.258025 1.397718,0.337103 0.504502,0.689111 -1.43999,0.567484 -2.151016,0.541 -1.261255,-0.04698 z m 3.396979,-0.05157 c 0.342224,-0.344786 0.749306,-0.499796 0.904638,-0.344466 0.155331,0.155329 -0.124668,0.437427 -0.622218,0.626883 -0.719016,0.273786 -0.776964,0.215837 -0.28242,-0.282417 z M 30.975238,44.6875 c -0.17149,-0.277476 0.05554,-0.504502 0.504502,-0.504502 0.448966,0 0.675992,0.227026 0.504502,0.504502 -0.17149,0.277476 -0.398516,0.504502 -0.504502,0.504502 -0.105986,0 -0.333012,-0.227026 -0.504502,-0.504502 z m 47.537659,-0.976932 c -0.176787,-0.676031 -0.04268,-0.885074 0.447141,-0.697103 0.794353,0.304821 0.916584,0.975913 0.252508,1.386336 -0.24593,0.151993 -0.560774,-0.158162 -0.699649,-0.689233 z M 66.290385,43.432212 c 1.387381,-0.37641 3.12247,-0.914152 3.855749,-1.194981 0.733278,-0.28083 1.868408,-0.392276 2.52251,-0.247657 0.827797,0.183022 0.987245,0.119189 0.524596,-0.210014 -0.499558,-0.355468 -0.267618,-0.637422 0.933677,-1.135015 0.87909,-0.364131 2.426837,-1.221176 3.439433,-1.904542 1.377483,-0.929614 1.621329,-0.997008 0.968377,-0.267638 -0.517054,0.577567 -0.777846,1.467446 -0.639931,2.183586 0.221613,1.150764 -0.420578,1.998089 -1.514369,1.998089 -0.277476,0 -0.17994,-0.205394 0.21675,-0.456433 0.877228,-0.555142 1.201325,-2.19545 0.373427,-1.889997 -0.324597,0.11976 -0.514501,0.529908 -0.422011,0.911437 0.0925,0.38153 0.007,0.532475 -0.190086,0.335435 -0.197044,-0.197041 -0.998299,-0.02728 -1.780575,0.377253 -0.782271,0.404529 -1.831862,0.700043 -2.332419,0.656697 -2.03047,-0.175831 -2.645967,0.07555 -2.360187,0.963937 0.230159,0.715486 0.186182,0.744838 -0.231955,0.15481 -0.42021,-0.592951 -0.761147,-0.616358 -1.837089,-0.126126 -0.726619,0.331069 -1.93476,0.587003 -2.684763,0.568742 -0.971964,-0.02367 -0.639103,-0.229777 1.158866,-0.717583 z m 9.110738,-2.55631 c 0.923396,-0.739791 0.907297,-0.750291 -0.281951,-0.183914 -1.544296,0.735469 -1.830505,0.968499 -1.189515,0.968499 0.270691,0 0.93285,-0.353064 1.471466,-0.784585 z m -53.254672,1.266036 c -0.557718,-0.377413 -0.358683,-0.430994 0.756753,-0.203719 1.039003,0.2117 1.297899,0.156567 0.825793,-0.175856 -0.580616,-0.408828 -0.580616,-0.522275 0,-0.72849 0.378242,-0.13434 0.536888,-0.407241 0.352546,-0.606448 -0.184343,-0.199207 -0.761646,-0.133951 -1.282896,0.145014 -0.780546,0.417736 -0.961701,0.321709 -1.02694,-0.544359 -0.08825,-1.171521 -1.076184,-2.003553 -1.984755,-1.671545 -0.809878,0.295943 -1.85184,-1.049242 -1.390691,-1.795397 0.280202,-0.453376 0.510084,-0.425838 0.926312,0.110963 0.30449,0.392696 1.185174,1.118141 1.957075,1.612098 0.802739,0.513691 1.253182,1.141255 1.05237,1.466178 -0.230503,0.37296 -0.05969,0.45625 0.497339,0.2425 0.466636,-0.179065 1.655679,0.05938 2.642319,0.529874 l 1.79389,0.855446 -1.676679,0.607266 c -2.120957,0.768175 -2.512221,0.78596 -3.442436,0.156475 z m 3.394879,-0.786255 c -0.167642,-0.167641 -0.602775,-0.185565 -0.966963,-0.03983 -0.402458,0.16105 -0.282912,0.280595 0.304804,0.304803 0.531829,0.02191 0.8298,-0.09733 0.662159,-0.264974 z m 15.708848,-1.191667 c -7.027073,-0.896148 -15.894122,-3.628542 -15.235176,-4.69474 0.167666,-0.271289 -0.129923,-0.340924 -0.693093,-0.162181 -1.235574,0.392156 -4.380782,-1.8086 -6.613401,-4.62751 -1.911742,-2.413772 -2.130947,-3.257905 -0.345823,-1.331724 0.693691,0.748504 1.261256,1.600197 1.261256,1.892651 0,0.314635 0.257474,0.270229 0.630627,-0.108764 0.506079,-0.514 0.345124,-0.887774 -0.814964,-1.892531 -0.795076,-0.688617 -1.331148,-1.366476 -1.191272,-1.506352 0.139876,-0.139876 0.893892,0.338415 1.675592,1.06287 1.220355,1.130987 1.334664,1.455869 0.80862,2.298201 -0.736278,1.178969 -0.631601,1.198316 1.230113,0.227366 0.794777,-0.414505 1.785588,-0.737773 2.201802,-0.718372 0.416215,0.0194 -0.03784,0.341269 -1.009004,0.715263 -0.971166,0.373995 -1.425218,0.700739 -1.009004,0.726097 0.571172,0.0348 0.601835,0.14447 0.125038,0.447204 -0.454379,0.288502 -0.212273,0.711203 0.862451,1.505782 1.806381,1.335515 2.110528,1.375825 1.673542,0.221805 -0.318394,-0.840837 -0.2919,-0.840837 0.556372,0 0.489877,0.485583 1.114894,0.882878 1.388926,0.882878 0.274032,0 0.342899,0.251348 0.153037,0.558552 -0.2348,0.379914 0.03804,0.45002 0.853104,0.219202 0.924019,-0.261672 1.02509,-0.218073 0.441555,0.190477 -0.416214,0.291404 -0.529727,0.562275 -0.252251,0.601936 0.277476,0.03966 0.968084,0.123389 1.534685,0.18606 0.5666,0.06267 1.516535,0.374237 2.110967,0.692367 1.363016,0.729464 2.762956,0.792117 1.65162,0.07392 -0.443608,-0.286682 -0.510711,-0.492249 -0.162161,-0.496777 0.327026,-0.0042 0.906755,0.304438 1.288288,0.685971 1.081044,1.081044 5.790144,1.942857 7.019898,1.284713 0.561787,-0.300659 1.153338,-0.414746 1.314557,-0.253527 0.161219,0.161219 -0.02849,0.319234 -0.421585,0.351143 -2.028111,0.164634 3.849586,0.890727 7.105071,0.877716 3.411543,-0.01364 9.859719,-0.703685 8.114075,-0.868325 -0.393091,-0.03708 -0.568847,-0.213272 -0.390568,-0.391551 0.178279,-0.178278 0.631262,-0.06926 1.006629,0.24227 0.810575,0.672718 6.909429,-0.223239 6.909429,-1.015034 0,-0.266527 0.442706,-0.344085 0.983789,-0.172351 0.541084,0.171733 1.664943,-0.03999 2.497457,-0.470505 0.83252,-0.430511 2.035752,-0.786224 2.673851,-0.790473 0.955199,-0.0064 1.02648,-0.101335 0.40343,-0.53755 -0.583532,-0.40855 -0.482465,-0.452149 0.441556,-0.190477 0.80851,0.228962 1.087177,0.159537 0.856675,-0.213424 -0.221124,-0.357788 -0.03627,-0.43559 0.524087,-0.220566 0.583411,0.223878 0.747924,0.141621 0.504502,-0.252251 -0.243428,-0.393872 -0.07892,-0.476128 0.504502,-0.252251 0.637897,0.244786 0.755779,0.154323 0.447942,-0.343764 -0.303655,-0.491322 -0.192866,-0.589665 0.405585,-0.360019 0.971307,0.372726 1.659171,-0.42855 0.732688,-0.85349 -0.348576,-0.159875 -0.142068,-0.170031 0.4589,-0.02257 0.600973,0.147464 1.238689,0.03185 1.417157,-0.256908 0.178467,-0.288763 -0.08621,-0.54098 -0.588169,-0.560483 -0.814655,-0.03165 -0.804313,-0.08202 0.09635,-0.469044 0.885648,-0.380577 0.898901,-0.437919 0.108377,-0.469044 -0.495346,-0.0195 -1.516962,0.332021 -2.27026,0.781164 l -1.369632,0.816622 1.261255,-1.057655 c 0.693691,-0.581711 1.613146,-1.062703 2.043234,-1.068874 0.430088,-0.0062 1.087716,-0.295 1.461391,-0.641845 0.410488,-0.381011 0.551421,-0.401936 0.356052,-0.05287 -0.177852,0.317771 0.01589,0.707941 0.430487,0.867045 0.41462,0.159105 0.753857,0.06938 0.753857,-0.199386 0,-0.268768 0.510809,-0.999477 1.13513,-1.623798 1.483499,-1.483498 1.65399,-6.213007 0.252251,-6.99746 -0.485583,-0.271746 -0.882879,-0.83674 -0.882879,-1.255543 0,-0.418802 -0.217112,-0.627276 -0.48247,-0.463276 -0.265358,0.164 -0.359433,0.618805 -0.209056,1.010677 0.17984,0.468657 -0.04969,0.688158 -0.67068,0.64138 -0.519248,-0.03911 -0.94409,-0.447187 -0.94409,-0.90683 0,-0.459642 0.278596,-0.81229 0.619105,-0.783662 0.340504,0.02863 0.632394,-0.174974 0.648644,-0.45245 0.01624,-0.277476 -0.197483,-0.504502 -0.474959,-0.504502 -0.277476,0 -0.504502,-0.170269 -0.504502,-0.378377 0,-0.208107 0,-0.534364 0,-0.725015 0,-0.190651 0.678712,0.303606 1.508244,1.09835 0.829533,0.794744 1.400629,1.552606 1.269096,1.684136 -0.131529,0.131531 0.120909,0.502427 0.560981,0.824213 0.442029,0.323221 0.918183,1.632511 1.063919,2.925478 0.71438,6.337927 -7.408442,11.996818 -20.798558,14.489644 -4.002898,0.745216 -16.789491,1.068435 -21.004191,0.530942 z m 38.124591,-8.036205 c 0.15352,-0.248401 -0.02225,-0.567295 -0.390647,-0.708654 -0.368372,-0.141359 -0.669771,0.06188 -0.669771,0.451638 0,0.794376 0.633427,0.9479 1.060418,0.257016 z m -25.536526,6.900205 c 0.269042,-0.269042 0.910577,-0.399842 1.425633,-0.290669 0.693599,0.147019 0.566736,0.273882 -0.489166,0.489167 -0.920626,0.187704 -1.252354,0.117389 -0.936467,-0.198498 z m -4.574804,-0.224162 c 0.346845,-0.139955 0.91441,-0.139955 1.261256,0 0.346845,0.139955 0.06306,0.254464 -0.630628,0.254464 -0.69369,0 -0.977473,-0.114509 -0.630628,-0.254464 z M 79.879518,38.07651 c -0.18932,-0.30633 0.251333,-1.152518 0.979233,-1.880417 0.727896,-0.727899 1.323451,-1.04483 1.323451,-0.704291 0,0.340539 -0.219903,0.619161 -0.488671,0.619161 -0.268764,0 -0.342865,0.379953 -0.164665,0.84434 0.242535,0.632031 0.11816,0.765348 -0.494639,0.530195 -0.576282,-0.22114 -0.735594,-0.09771 -0.538112,0.416916 0.328905,0.857116 -0.116706,0.982934 -0.616597,0.174096 z M 67.047139,36.615466 c 0.416214,-0.268979 1.097292,-0.476572 1.513506,-0.461318 0.498983,0.01829 0.413056,0.175425 -0.252251,0.461318 -1.386922,0.595979 -2.18347,0.595979 -1.261255,0 z M 29.869732,36.217898 c -0.331457,-0.21074 0.27749,-0.382118 1.357757,-0.382118 1.080267,0 1.689214,0.171378 1.357757,0.382118 -0.330552,0.210164 -0.941543,0.382117 -1.357757,0.382117 -0.416214,0 -1.027205,-0.171953 -1.357757,-0.382117 z m 38.97018,-0.562137 c -0.937113,-0.366725 -0.931321,-0.397535 0.126822,-0.674245 0.609847,-0.159478 0.993571,-0.103497 0.852719,0.124403 -0.140852,0.2279 0.02911,0.529343 0.377681,0.669874 0.348575,0.140532 0.406744,0.257479 0.129268,0.259882 -0.277476,0.0024 -0.946395,-0.168558 -1.48649,-0.379914 z m 10.819779,-6.548279 c 0,-0.277476 0.227026,-0.644811 0.504502,-0.816301 0.277476,-0.17149 0.504502,-0.08477 0.504502,0.192702 0,0.277477 -0.227026,0.644812 -0.504502,0.816302 -0.277476,0.17149 -0.504502,0.08477 -0.504502,-0.192703 z M 20.128443,27.534428 c 0,-0.277477 0.227026,-0.504502 0.504502,-0.504502 0.277476,0 0.504502,0.227025 0.504502,0.504502 0,0.277476 -0.227026,0.504502 -0.504502,0.504502 -0.277476,0 -0.504502,-0.227026 -0.504502,-0.504502 z m 58.522244,0 c 0,-0.277477 0.227026,-0.504502 0.504502,-0.504502 0.277476,0 0.504502,0.227025 0.504502,0.504502 0,0.277476 -0.227026,0.504502 -0.504502,0.504502 -0.277476,0 -0.504502,-0.227026 -0.504502,-0.504502 z M 16.813585,25.552013 c 0.08157,-1.145231 0.276108,-2.210032 0.432301,-2.366226 0.156193,-0.156192 0.213849,0.656417 0.128125,1.8058 -0.08573,1.149383 -0.28026,2.214184 -0.4323,2.366225 -0.152042,0.152041 -0.209698,-0.660569 -0.128126,-1.805799 z m 1.28738,-3.395785 c 0.286142,-0.141627 0.412328,-0.432138 0.280413,-0.645581 -0.131916,-0.213443 0.320722,-0.914704 1.00586,-1.558358 0.685139,-0.643655 1.245707,-0.973802 1.245707,-0.733662 0,0.24014 0.353063,-0.0041 0.784584,-0.542686 0.754085,-0.941234 0.763305,-0.935372 0.237188,0.150804 -0.301068,0.62156 -0.796022,1.075612 -1.099898,1.009005 -0.303876,-0.06661 -0.664497,0.186501 -0.801379,0.562465 -0.179412,0.492773 0.04118,0.591509 0.790317,0.353741 0.815998,-0.258987 1.023438,-0.120653 0.965833,0.644074 -0.07814,1.037386 -1.441275,1.165245 -1.774217,0.166418 -0.251196,-0.753586 -1.161418,-0.770963 -0.994311,-0.01898 0.06937,0.312161 -0.163333,0.635673 -0.517115,0.718916 -0.353782,0.08324 -0.409124,0.03548 -0.122982,-0.106153 z m 59.036216,-4.203549 c -0.416215,-0.266893 -1.210805,-0.379025 -1.765758,-0.249183 -0.580071,0.13572 -0.68919,0.09571 -0.256685,-0.09412 0.528844,-0.232114 0.229119,-0.510683 -1.009005,-0.937784 -1.161898,-0.400808 -2.076495,-0.444631 -2.687412,-0.12877 -0.509345,0.263348 -1.037261,0.367636 -1.173149,0.231752 -0.135882,-0.135883 0.263361,-0.409062 0.887203,-0.607063 l 1.134262,-0.360001 -1.222369,-0.716112 -1.222368,-0.716113 1.261255,0.33909 c 1.524318,0.409813 7.06303,3.149774 7.06303,3.494029 0,0.337827 -0.137865,0.302886 -1.009004,-0.255722 z M 22.651309,17.575534 c -8.07e-4,-0.275623 6.734637,-3.149864 6.928063,-2.956436 0.115858,0.115857 -0.299769,0.372649 -0.923614,0.57065 l -1.134263,0.360001 1.222369,0.716113 1.22237,0.716112 -1.178991,-0.321214 c -1.586629,-0.432276 -5.038163,0.215108 -4.132166,0.775044 0.447064,0.276301 0.223715,0.389928 -0.665176,0.338403 -0.736029,-0.04266 -1.338395,-0.132067 -1.338592,-0.198673 z m 5.959075,0.02872 c 0.364188,-0.145736 0.799321,-0.127812 0.966963,0.03983 0.167641,0.167642 -0.13033,0.28688 -0.662159,0.264974 -0.587716,-0.02421 -0.707262,-0.143753 -0.304804,-0.304803 z M 71.195266,17.36442 c 0.814352,-0.516782 2.278276,-0.542946 2.582768,-0.04616 0.127548,0.208108 -0.546436,0.395673 -1.497746,0.416812 -1.065992,0.02369 -1.482313,-0.118531 -1.085022,-0.370651 z M 30.975238,13.912871 c 0.554952,-0.238471 1.349543,-0.433584 1.765757,-0.433584 0.476996,0 0.383744,0.160287 -0.252251,0.433584 -0.554952,0.238471 -1.349543,0.433584 -1.765757,0.433584 -0.476996,0 -0.383744,-0.160288 0.252251,-0.433584 z m 10.678628,0.168167 c -0.668498,-0.668498 -0.313114,-1.176446 0.798795,-1.141712 1.077227,0.03365 1.083661,0.05618 0.126125,0.441638 -0.941791,0.379123 -0.924988,0.422594 0.252251,0.65259 1.036948,0.202588 1.074333,0.258629 0.21021,0.315115 -0.578076,0.03779 -1.202397,-0.08265 -1.387381,-0.267631 z M 67.29939,13.912871 c -0.635996,-0.273297 -0.729248,-0.433584 -0.252251,-0.433584 0.416214,0 1.210805,0.195113 1.765757,0.433584 0.635995,0.273296 0.729248,0.433584 0.252251,0.433584 -0.416214,0 -1.210805,-0.195113 -1.765757,-0.433584 z M 33.75,13.518491 c 0,-0.647777 3.53231,-1.320132 4.076504,-0.775938 0.22746,0.22746 -0.199406,0.429803 -0.948591,0.449649 -0.749186,0.01985 -1.759452,0.214405 -2.245035,0.432353 C 34.11785,13.855718 33.75,13.811527 33.75,13.518491 Z m 20.564342,0.03757 c 0.627557,-0.120674 1.535661,-0.116092 2.018009,0.01018 0.482348,0.126273 -0.03111,0.225006 -1.141012,0.219407 -1.109905,-0.0056 -1.504553,-0.108914 -0.876997,-0.229588 z M 49.51569,13.060602 c 0.485584,-0.126896 1.280174,-0.126896 1.765758,0 0.485583,0.126897 0.08829,0.230721 -0.882879,0.230721 -0.971167,0 -1.368462,-0.103824 -0.882879,-0.230721 z m 10.468419,-0.438761 c 0,-0.43259 0.230729,-0.643929 0.512731,-0.469642 0.282001,0.174287 0.38212,0.528225 0.222475,0.786528 -0.432474,0.699766 -0.735206,0.569285 -0.735206,-0.316886 z m 3.027013,0.282026 c -0.998703,-0.319841 -1.051216,-0.403925 -0.252251,-0.403925 0.554952,0 1.576569,0.181766 2.270259,0.403925 0.998702,0.31984 1.051216,0.403924 0.252251,0.403924 -0.554952,0 -1.576569,-0.181766 -2.270259,-0.403924 z M 39.299523,12.399364 c 0.416214,-0.268978 1.210805,-0.476571 1.765757,-0.461317 1.009004,0.02773 1.009004,0.02773 0,0.461317 -0.554952,0.238472 -1.349543,0.446065 -1.765757,0.461318 -0.67267,0.02465 -0.67267,-0.0266 0,-0.461318 z m 5.549523,0.063 1.261255,-0.419734 -1.513506,-0.22861 c -0.832429,-0.125735 1.551344,-0.240955 5.297272,-0.256044 3.745928,-0.01509 6.146881,0.07344 5.33545,0.196725 -1.145937,0.174112 -1.314895,0.334799 -0.756753,0.719712 0.49818,0.343563 0.331735,0.369366 -0.54268,0.08413 -1.533185,-0.500129 -5.582354,-0.515848 -8.324285,-0.03232 -1.291886,0.22782 -1.564182,0.204841 -0.756753,-0.06386 z"
       id="path5400"
       inkscape:connector-curvature="0" />
    <path
       style="fill:#ffffff"
       d="m 46.236427,86.691078 c 2.011702,-0.09576 5.303578,-0.09576 7.31528,0 2.011702,0.09577 0.365764,0.174114 -3.65764,0.174114 -4.023404,0 -5.669343,-0.07835 -3.65764,-0.174114 z m -6.296675,-0.479519 c 0.490864,-0.127911 1.171942,-0.119501 1.513506,0.01872 0.341564,0.138198 -0.06005,0.242852 -0.89248,0.232571 -0.832429,-0.01029 -1.11189,-0.123351 -0.621026,-0.251263 z m 18.656976,0.002 c 0.485584,-0.126892 1.280174,-0.126892 1.765758,0 0.485583,0.126898 0.08829,0.230724 -0.882879,0.230724 -0.971167,0 -1.368462,-0.103826 -0.882879,-0.230724 z M 34.759004,85.55217 C 33.7603,85.232331 33.70779,85.148245 34.506753,85.148245 c 0.554952,0 1.576569,0.181767 2.270259,0.403925 0.998704,0.319839 1.051214,0.403924 0.252251,0.403924 -0.554952,0 -1.576569,-0.181767 -2.270259,-0.403924 z m 31.27913,-0.725439 c 2.358548,-0.633221 4.944076,-1.416475 5.745618,-1.740557 0.801543,-0.324087 1.544438,-0.502157 1.650878,-0.395717 0.472673,0.472673 -9.173256,3.414682 -10.907881,3.326899 -0.427283,-0.02159 1.152838,-0.557404 3.511385,-1.190625 z M 31.227489,84.543166 c -0.672669,-0.434715 -0.672669,-0.48905 0,-0.48905 0.416214,0 1.097292,0.220069 1.513506,0.48905 0.67267,0.434714 0.67267,0.489049 0,0.489049 -0.416214,0 -1.097292,-0.220069 -1.513506,-0.489049 z m -3.027013,-1.009005 c -0.416214,-0.26898 -0.529727,-0.489049 -0.252251,-0.489049 0.277476,0 0.845041,0.220069 1.261256,0.489049 0.416214,0.268981 0.529727,0.48905 0.252251,0.48905 -0.277477,0 -0.845041,-0.220069 -1.261256,-0.48905 z m -4.162142,-1.802066 c -1.886051,-1.023201 -1.771248,-1.449364 0.126125,-0.468193 0.832429,0.430466 1.513507,0.890345 1.513507,1.02196 0,0.324647 -0.05421,0.306338 -1.639632,-0.553767 z m 50.071834,0.564018 c 0,-0.140221 0.851347,-0.69033 1.891883,-1.222459 1.040535,-0.532128 2.884657,-1.955657 4.098055,-3.163389 1.213394,-1.207738 1.955082,-1.70721 1.648199,-1.109935 -0.306879,0.59727 -1.413171,1.758048 -2.458419,2.579509 -1.980852,1.556747 -5.179718,3.357769 -5.179718,2.916274 z M 21.073095,79.62427 c -0.627535,-0.800171 -0.609691,-0.818015 0.190477,-0.19048 0.485584,0.380824 0.882879,0.778119 0.882879,0.882879 0,0.415225 -0.41429,0.147975 -1.073356,-0.692399 z M 19.10932,78.224695 c -0.350992,-0.422919 -0.540465,-0.866643 -0.421052,-0.986059 0.119413,-0.119411 0.494227,0.226612 0.83292,0.768947 0.732443,1.172826 0.48817,1.301595 -0.411868,0.217112 z m 19.591106,-2.602696 c 0.364188,-0.145735 0.799321,-0.127815 0.966963,0.03981 0.167641,0.167641 -0.13033,0.28688 -0.662159,0.264974 -0.587716,-0.02422 -0.707262,-0.143753 -0.304804,-0.3048 z m 22.198093,0 c 0.364185,-0.145735 0.799318,-0.127815 0.966964,0.03981 0.167641,0.167641 -0.130333,0.28688 -0.662159,0.264974 -0.58772,-0.02422 -0.707261,-0.143753 -0.304805,-0.3048 z m 5.391866,-1.168876 c 1.386922,-0.595978 2.18347,-0.595978 1.261256,0 -0.416215,0.268981 -1.097292,0.476573 -1.513507,0.461317 -0.498983,-0.01826 -0.413056,-0.175425 0.252251,-0.461317 z m 16.580578,-5.297272 c 0.0015,-2.774761 0.08603,-3.845527 0.188265,-2.379474 0.102238,1.466053 0.101163,3.736313 -0.0025,5.045021 -0.103549,1.308709 -0.187191,0.109215 -0.185879,-2.665547 z m -59.275357,1.935412 c -0.627846,-0.761092 -0.586568,-0.782957 0.442728,-0.234503 1.173955,0.625537 1.46302,1.073853 0.692401,1.073853 -0.243501,0 -0.754309,-0.377706 -1.135129,-0.83935 z m 51.271315,0.334848 c 0.171491,-0.277476 0.411916,-0.504502 0.534278,-0.504502 0.122362,0 0.222475,0.227026 0.222475,0.504502 0,0.277476 -0.240425,0.504502 -0.534278,0.504502 -0.293852,0 -0.393965,-0.227026 -0.222475,-0.504502 z M 43.461665,71.058596 c 1.040536,-0.108841 2.74323,-0.108841 3.783766,0 1.040535,0.108847 0.189188,0.197896 -1.891883,0.197896 -2.081071,0 -2.932419,-0.08905 -1.891883,-0.197896 z m 6.474444,0.185208 c 0.115615,-0.10027 2.93452,-0.296178 6.264234,-0.43535 3.712056,-0.155155 5.175788,-0.09909 3.783766,0.144913 -2.270995,0.398083 -10.444536,0.634341 -10.048,0.290437 z M 16.741223,68.651349 c 0.0038,-1.387381 0.101764,-1.895066 0.217726,-1.128193 0.115962,0.766874 0.112863,1.902004 -0.0069,2.522511 -0.11975,0.620507 -0.214628,-0.007 -0.21084,-1.394318 z m 22.189525,1.920645 c 0.490864,-0.127912 1.171942,-0.119502 1.513506,0.01867 0.341564,0.138199 -0.06005,0.242853 -0.89248,0.232571 -0.832429,-0.01029 -1.111891,-0.123351 -0.621026,-0.251262 z M 21.641949,69.912605 c -0.454704,-0.293853 -0.51693,-0.492137 -0.1559,-0.496779 0.33047,-0.004 0.741163,0.219302 0.912653,0.496779 0.387107,0.626354 0.212458,0.626354 -0.756753,0 z M 33.75,69.849708 c -2.795246,-0.754145 -7.620106,-2.575206 -7.401678,-2.793635 0.109291,-0.10929 0.854518,0.06924 1.65606,0.396731 0.801542,0.327497 3.273557,1.111539 5.493366,1.742318 2.21981,0.630779 3.581965,1.143297 3.027013,1.138928 C 35.969809,70.32951 34.721166,70.111726 33.75,69.849708 Z m 31.783632,-0.401639 c 8.4694,-2.267515 13.785036,-5.228286 15.916527,-8.865409 1.059475,-1.807852 1.251402,-2.826094 1.340291,-7.110698 l 0.10374,-5.000697 0.17984,4.540519 c 0.09891,2.497285 -0.06581,5.376556 -0.366051,6.398379 -0.705481,2.400995 -4.36183,5.668146 -8.433157,7.535495 -3.206343,1.470619 -9.894295,3.506623 -11.25356,3.425907 -0.421794,-0.02502 0.708775,-0.440617 2.51237,-0.923496 z m 14.877727,-0.552697 c -0.174285,-0.282002 -0.58498,-0.35912 -0.912654,-0.171369 -0.32767,0.18775 -0.418929,0.147047 -0.20279,-0.09046 0.652962,-0.717497 1.709117,-0.671285 1.709117,0.07479 0,0.831505 -0.16353,0.883025 -0.593673,0.187039 z M 17.479807,66.110651 c -1.259996,-1.684916 -1.0964,-2.155091 0.18364,-0.527784 0.586586,0.745724 0.983882,1.435182 0.882879,1.532132 -0.101002,0.09695 -0.580936,-0.355008 -1.066519,-1.004348 z m 6.940475,0.276215 c -0.176747,-0.285982 0.02576,-0.370556 0.474728,-0.198274 0.874008,0.335388 1.03392,0.697 0.308228,0.697 -0.261101,0 -0.613431,-0.224428 -0.782956,-0.498726 z m -4.039588,-2.824737 -1.513507,-1.300445 1.639632,1.085053 c 0.901798,0.59678 1.639632,1.183108 1.639632,1.302947 0,0.377645 -0.21364,0.246061 -1.765757,-1.087555 z m -2.334612,-2.604437 c -0.627535,-0.800168 -0.609691,-0.818013 0.190478,-0.190477 0.840373,0.659064 1.107624,1.073356 0.692401,1.073356 -0.104763,0 -0.502058,-0.397296 -0.882879,-0.882879 z m 23.145324,-0.460248 c 0.346845,-0.139954 0.91441,-0.139954 1.261255,0 0.346845,0.139956 0.06306,0.254464 -0.630628,0.254464 -0.69369,0 -0.977473,-0.114508 -0.630627,-0.254464 z M 63.925532,59.47793 c 0.364185,-0.145736 0.799318,-0.127813 0.966964,0.03983 0.167641,0.167642 -0.130333,0.286881 -0.662159,0.264975 -0.58772,-0.02421 -0.707262,-0.143753 -0.304805,-0.304804 z M 43.33554,55.830439 c -1.526119,-0.162879 1.425218,-0.296144 6.558527,-0.296144 5.554028,0 8.107582,0.131041 6.306276,0.32362 -3.637956,0.388938 -9.071901,0.377332 -12.864803,-0.02748 z m -5.423398,-0.896162 c 0.485583,-0.126896 1.280174,-0.126896 1.765757,0 0.485584,0.126896 0.08829,0.23072 -0.882878,0.23072 -0.971167,0 -1.368462,-0.103824 -0.882879,-0.23072 z M 62.50662,54.506973 c 1.803595,-0.37192 3.619802,-0.663248 4.036016,-0.647395 1.344958,0.05123 -4.23695,1.325638 -5.801774,1.324609 -0.832428,-5.55e-4 -0.03784,-0.305294 1.765758,-0.677214 z M 16.754833,51.844502 c -0.0048,-3.126744 0.180213,-3.239176 1.400327,-0.850726 0.493885,0.966811 0.483881,0.969763 -0.239236,0.0706 -0.698856,-0.868992 -0.769522,-0.757047 -0.955411,1.513506 -0.170338,2.0806 -0.201486,1.969539 -0.20568,-0.733384 z m 1.399338,2.228986 c -0.475093,-0.572452 -0.463479,-0.707732 0.05423,-0.631748 0.697066,0.102307 1.146469,0.76403 0.772716,1.137784 -0.12232,0.12232 -0.494448,-0.105396 -0.82695,-0.506036 z m 17.519243,0.359421 c 0.364187,-0.145736 0.79932,-0.127813 0.966962,0.03983 0.167642,0.167642 -0.13033,0.286881 -0.662159,0.264975 -0.587716,-0.02421 -0.707261,-0.143753 -0.304803,-0.304804 z M 20.33276,53.13791 l -0.961071,-1.13513 1.13513,0.96107 c 1.066742,0.903169 1.3648,1.309189 0.961071,1.309189 -0.09573,0 -0.606542,-0.510808 -1.13513,-1.135129 z m 58.317927,0.944652 c 0,-0.104763 0.397295,-0.502058 0.882879,-0.882879 0.80017,-0.627535 0.818014,-0.609691 0.190479,0.190478 -0.659066,0.840373 -1.073358,1.107623 -1.073358,0.692401 z M 29.461732,53.030004 c -1.948418,-0.892165 -1.04215,-0.905257 1.261255,-0.01822 0.971166,0.373994 1.425218,0.687022 1.009004,0.695617 -0.416214,0.0086 -1.437831,-0.296234 -2.270259,-0.677397 z m 38.594411,0.282562 c 0.416214,-0.29567 1.052991,-0.541059 1.415058,-0.545308 2.318459,-0.02721 9.58227,-4.417031 11.537161,-6.972379 1.307321,-1.708884 1.450337,-2.32631 1.717239,-7.413656 l 0.291153,-5.549523 0.08722,4.886052 c 0.04798,2.68733 -0.136639,5.474876 -0.410261,6.194549 -0.93961,2.471367 -4.177787,5.33428 -8.313069,7.349688 -3.942836,1.921616 -7.990269,3.233905 -6.324504,2.050577 z m -43.261056,-2.19723 c -1.179274,-0.592405 -2.144134,-1.228521 -2.144134,-1.413592 0,-0.309843 4.381769,1.721867 4.959483,2.299581 0.556011,0.556011 -0.784771,0.134068 -2.815349,-0.885989 z m -5.083205,-3.559465 c -0.60332,-0.642205 -1.096946,-1.33498 -1.096946,-1.5395 0,-0.204519 0.567565,0.240559 1.261256,0.989064 0.69369,0.748504 1.261255,1.441278 1.261255,1.539499 0,0.389032 -0.375961,0.128189 -1.425565,-0.989063 z m 26.524545,-2.19349 c 0.346845,-0.139955 0.91441,-0.139955 1.261255,0 0.346845,0.139956 0.06306,0.254464 -0.630628,0.254464 -0.69369,0 -0.977473,-0.114508 -0.630627,-0.254464 z m 6.054025,0 c 0.346845,-0.139955 0.91441,-0.139955 1.261255,0 0.346845,0.139956 0.06306,0.254464 -0.630627,0.254464 -0.693691,0 -0.977473,-0.114508 -0.630628,-0.254464 z M 37.18692,44.342867 c 0.364188,-0.145736 0.799321,-0.127813 0.966963,0.03983 0.167641,0.167642 -0.13033,0.286881 -0.662159,0.264975 -0.587717,-0.02421 -0.707262,-0.143754 -0.304804,-0.304804 z m 35.914244,-3.186883 c 0.416214,-0.268978 0.983779,-0.489051 1.261255,-0.489051 0.277476,0 0.163963,0.220073 -0.252251,0.489051 -0.416214,0.268979 -0.983779,0.489052 -1.261255,0.489052 -0.277476,0 -0.163963,-0.220073 0.252251,-0.489052 z M 16.676586,40.14698 c 0,-0.69369 0.114509,-0.977473 0.254464,-0.630627 0.139955,0.346845 0.139955,0.91441 0,1.261255 -0.139955,0.346845 -0.254464,0.06306 -0.254464,-0.630628 z m 60.638038,0.625542 c 0.183341,-0.296649 0.04813,-0.641185 -0.300426,-0.765634 -0.348575,-0.12445 -0.495855,-0.376352 -0.327285,-0.559784 0.168564,-0.183431 0.576888,-0.0077 0.907377,0.390519 0.465231,0.56057 0.463864,0.808718 -0.0061,1.099146 -0.367485,0.227119 -0.475433,0.162317 -0.273607,-0.164247 z m -30.069193,-0.49298 c 1.45675,-0.10191 3.840522,-0.10191 5.297272,0 1.45675,0.101911 0.264864,0.185292 -2.648636,0.185292 -2.9135,0 -4.105386,-0.08338 -2.648636,-0.185292 z m -6.29934,-0.494583 c 0.766875,-0.115962 1.902005,-0.112863 2.522511,0.0069 0.620506,0.119749 -0.0069,0.214627 -1.394318,0.21084 -1.387381,-0.0038 -1.895068,-0.101765 -1.128193,-0.217727 z m 14.539541,0.179816 c 0.115615,-0.100213 1.912904,-0.303728 3.993975,-0.452254 2.216732,-0.158209 3.156952,-0.10747 2.270259,0.122516 -1.529781,0.396785 -6.652691,0.666446 -6.264234,0.329738 z M 37.155389,39.308356 c 0.346845,-0.139955 0.91441,-0.139955 1.261255,0 0.346845,0.139955 0.06306,0.254464 -0.630628,0.254464 -0.69369,0 -0.977472,-0.114509 -0.630627,-0.254464 z m -5.423398,-1.15845 c -3.665185,-1.223717 -2.643334,-1.250151 1.513506,-0.03915 1.803595,0.525436 2.825212,0.957642 2.27026,0.960458 -0.554952,0.0028 -2.257647,-0.411771 -3.783766,-0.921306 z M 63.894,38.803854 c 0.346846,-0.139955 0.91441,-0.139955 1.261256,0 0.346845,0.139955 0.06306,0.254464 -0.630628,0.254464 -0.69369,0 -0.977473,-0.114509 -0.630628,-0.254464 z m 13.747683,0.143645 c 0,-0.104763 0.397295,-0.502059 0.882878,-0.882879 0.800171,-0.627535 0.818015,-0.609691 0.19048,0.190477 -0.659066,0.840374 -1.073358,1.107624 -1.073358,0.692402 z M 16.596928,35.858712 c 0,-1.61861 0.155709,-2.787219 0.346021,-2.596907 0.364913,0.364913 0.259304,4.934511 -0.122875,5.31669 -0.122731,0.122731 -0.223146,-1.101172 -0.223146,-2.719783 z m 52.372979,1.589087 c 1.751213,-0.608792 3.075707,-1.215388 2.943316,-1.347991 -0.132387,-0.132602 0.313558,-0.274197 0.990998,-0.314653 1.732062,-0.10344 6.54644,-3.544669 8.305502,-5.936617 1.57494,-2.141587 1.869272,-4.236466 0.94074,-6.695661 -0.40174,-1.064 -0.391756,-1.27737 0.03981,-0.850683 1.37275,1.357221 0.947934,7.754744 -0.514936,7.754744 -0.211451,0 -0.497994,0.434169 -0.636762,0.96482 -0.374386,1.431656 -5.110995,4.360154 -9.84892,6.089284 -2.29436,0.837338 -4.448811,1.504706 -4.787665,1.483042 -0.338859,-0.02166 0.816708,-0.537493 2.567921,-1.146285 z M 27.191472,36.615466 c -0.416214,-0.268979 -0.529727,-0.489052 -0.252251,-0.489052 0.277476,0 0.845041,0.220073 1.261255,0.489052 0.416215,0.268978 0.529728,0.489051 0.252251,0.489051 -0.277476,0 -0.845041,-0.220073 -1.261255,-0.489051 z m -4.288268,-2.052231 c -0.832428,-0.533209 -1.208776,-0.970665 -0.836328,-0.972126 0.372449,-0.0015 1.254412,0.451396 1.959919,1.006348 1.618375,1.273014 0.882222,1.250592 -1.123591,-0.03422 z m -2.839113,-2.362163 c -0.627536,-0.800168 -0.609691,-0.818013 0.190477,-0.190477 0.840374,0.659066 1.107624,1.073356 0.692402,1.073356 -0.104763,0 -0.502059,-0.397296 -0.882879,-0.882879 z M 19.312989,20.104918 c 0.838777,-0.991411 1.824458,-1.140747 1.824458,-0.276415 0,0.168608 -0.151846,0.154715 -0.337435,-0.03088 -0.18559,-0.185589 -0.809911,0.06036 -1.387381,0.546544 -1.047199,0.881668 -1.04746,0.881042 -0.09964,-0.239253 z m 60.855815,0.119784 c -0.342895,-0.413159 -0.809054,-0.636482 -1.035919,-0.496273 -0.226864,0.140209 -0.545382,0.03989 -0.707816,-0.222946 -0.677996,-1.097019 0.674882,-0.923671 1.75373,0.224711 0.643653,0.685138 1.044995,1.245706 0.891863,1.245706 -0.153131,0 -0.558968,-0.338039 -0.901858,-0.751198 z M 22.650953,17.732137 c 0,-0.138738 0.454052,-0.495252 1.009004,-0.792254 0.554953,-0.297001 1.009005,-0.42649 1.009005,-0.287751 0,0.138738 -0.454052,0.495252 -1.009005,0.792253 -0.554952,0.297002 -1.009004,0.42649 -1.009004,0.287752 z m 48.183523,-2.804483 c -0.176747,-0.285982 0.02578,-0.370561 0.474727,-0.198275 0.874009,0.335388 1.033921,0.696998 0.30823,0.696998 -0.2611,0 -0.613434,-0.224425 -0.782957,-0.498723 z M 44.754452,11.55023 c 0.364187,-0.145736 0.79932,-0.127813 0.966962,0.03983 0.167642,0.167642 -0.13033,0.28688 -0.662159,0.264974 -0.587716,-0.02421 -0.707261,-0.143753 -0.304803,-0.304803 z"
       id="path5398"
       inkscape:connector-curvature="0" />
    <path
       style="fill:#ffffff"
       d="m 44.218418,86.731554 c 0.346845,-0.139953 0.91441,-0.139953 1.261255,0 0.346846,0.139954 0.06306,0.254466 -0.630627,0.254466 -0.693691,0 -0.977473,-0.114512 -0.630628,-0.254466 z m 7.06303,-0.03083 c 0.901797,-0.111908 2.377466,-0.111908 3.279263,0 0.901798,0.111914 0.163964,0.203481 -1.639631,0.203481 -1.803595,0 -2.54143,-0.09157 -1.639632,-0.203481 z m -11.067515,-0.48417 c 0.364187,-0.145736 0.79932,-0.127816 0.966962,0.03981 0.167642,0.167641 -0.13033,0.28688 -0.662159,0.264975 -0.587716,-0.02422 -0.707261,-0.143753 -0.304803,-0.3048 z m 18.392397,-0.005 c 0.490864,-0.127912 1.171942,-0.119502 1.513505,0.01872 0.341563,0.138198 -0.06005,0.242852 -0.892479,0.23257 -0.832429,-0.01029 -1.11189,-0.123351 -0.621026,-0.251262 z m 3.805695,-0.499518 c 0.364185,-0.145735 0.799318,-0.127816 0.966964,0.03981 0.167641,0.167641 -0.130333,0.28688 -0.662159,0.264975 -0.587719,-0.02422 -0.707261,-0.143753 -0.304805,-0.3048 z m 2.522511,-0.504502 c 0.364185,-0.145736 0.799318,-0.127816 0.966964,0.03981 0.167641,0.167641 -0.130333,0.28688 -0.662159,0.264975 -0.58772,-0.02422 -0.707262,-0.143753 -0.304805,-0.3048 z m 9.545599,-3.249488 c 0.342223,-0.344787 0.749306,-0.499795 0.904637,-0.344464 0.155332,0.155331 -0.124667,0.437429 -0.622217,0.626884 -0.719017,0.273783 -0.776964,0.215836 -0.28242,-0.28242 z m 3.161548,-1.641332 c 0,-0.10476 0.397295,-0.502055 0.882878,-0.882879 0.800171,-0.627535 0.818015,-0.609691 0.19048,0.19048 -0.659066,0.840374 -1.073358,1.107624 -1.073358,0.692399 z m 3.025453,-2.710407 c 0.660172,-0.901798 1.27912,-1.639632 1.37544,-1.639632 0.383124,0 -0.867749,1.892155 -1.695021,2.564001 -0.544999,0.442604 -0.423172,0.09024 0.319581,-0.924369 z m -37.205471,-6.52792 c 0.485583,-0.126892 1.280174,-0.126892 1.765757,0 0.485584,0.126898 0.08829,0.230724 -0.882878,0.230724 -0.971167,0 -1.368462,-0.103826 -0.882879,-0.230724 z m 11.099046,0 c 0.485584,-0.126892 1.280174,-0.126892 1.765758,0 0.485583,0.126898 0.08829,0.230724 -0.882879,0.230724 -0.971166,0 -1.368462,-0.103826 -0.882879,-0.230724 z m 8.860319,-1.005866 c 0.364185,-0.145735 0.799318,-0.127815 0.966964,0.03981 0.167641,0.167646 -0.130333,0.286881 -0.662159,0.264975 -0.58772,-0.02422 -0.707262,-0.143753 -0.304805,-0.3048 z m 2.018008,-0.504502 c 0.364185,-0.145735 0.799318,-0.127816 0.966964,0.0398 0.167641,0.167646 -0.130333,0.28688 -0.662159,0.264975 -0.58772,-0.02422 -0.707261,-0.143753 -0.304805,-0.3048 z m 2.018008,-0.504502 c 0.364185,-0.145736 0.799318,-0.127816 0.966965,0.03981 0.167641,0.167646 -0.130334,0.28688 -0.662159,0.264975 -0.58772,-0.02422 -0.707262,-0.143753 -0.304806,-0.3048 z m 4.635114,-1.673378 c 0.416214,-0.26898 0.983779,-0.489049 1.261255,-0.489049 0.277476,0 0.163963,0.220069 -0.252251,0.489049 -0.416214,0.26898 -0.983779,0.489049 -1.261255,0.489049 -0.277477,0 -0.163964,-0.220069 0.252251,-0.489049 z m 2.060048,-0.688418 c 0.115617,-0.101153 0.777776,-0.454214 1.471466,-0.784582 1.189248,-0.566379 1.205347,-0.555875 0.281951,0.183911 -0.803671,0.643876 -2.445755,1.206406 -1.753417,0.600671 z m 3.489475,-1.973719 c 0,-0.09632 0.737834,-0.715267 1.639632,-1.375439 1.014604,-0.742753 1.366973,-0.86458 0.924369,-0.319582 -0.671846,0.827273 -2.564001,2.078145 -2.564001,1.695021 z m 4.320702,-4.548776 c 0.189456,-0.497551 0.471553,-0.777549 0.626884,-0.622219 0.155331,0.155329 3.23e-4,0.562416 -0.344464,0.904637 -0.498256,0.494544 -0.556203,0.436597 -0.28242,-0.282418 z m 0.803975,-2.879129 c 0,-0.693691 0.114512,-0.977473 0.254465,-0.630628 0.139954,0.346845 0.139954,0.91441 0,1.261256 -0.139953,0.346845 -0.254465,0.06306 -0.254465,-0.630628 z M 56.588321,55.43693 c 0.490864,-0.127913 1.171942,-0.119501 1.513507,0.01869 0.341564,0.138197 -0.06005,0.242853 -0.892481,0.232571 -0.832428,-0.01028 -1.11189,-0.123349 -0.621026,-0.251263 z M 38.700426,54.937411 c 0.364188,-0.145736 0.799321,-0.127813 0.966963,0.03983 0.167641,0.167642 -0.13033,0.286881 -0.662159,0.264975 -0.587716,-0.02421 -0.707262,-0.143753 -0.304804,-0.304803 z m 21.693591,0 c 0.364185,-0.145736 0.799318,-0.127813 0.966964,0.03983 0.167641,0.167642 -0.130333,0.286881 -0.662159,0.264975 -0.58772,-0.02421 -0.707261,-0.143753 -0.304805,-0.304803 z m 3.027013,-0.504502 c 0.364185,-0.145736 0.799318,-0.127813 0.966964,0.03983 0.167641,0.167642 -0.130333,0.286881 -0.662159,0.264975 -0.58772,-0.02421 -0.707262,-0.143753 -0.304805,-0.304804 z m 5.139615,-1.168874 c 0.416214,-0.268978 0.983779,-0.489051 1.261255,-0.489051 0.277476,0 0.163963,0.220073 -0.252251,0.489051 -0.416214,0.268978 -0.983779,0.489051 -1.261255,0.489051 -0.277476,0 -0.163963,-0.220073 0.252251,-0.489051 z m 6.054025,-2.223053 c 0,-0.100876 0.567565,-0.555295 1.261255,-1.009818 0.693691,-0.454524 1.261256,-0.630588 1.261256,-0.391254 0,0.239334 -0.567565,0.693752 -1.261256,1.009818 -0.69369,0.316067 -1.261255,0.492131 -1.261255,0.391254 z m 8.15169,-1.308462 c 0,-0.69369 0.114512,-0.977473 0.254465,-0.630627 0.139954,0.346845 0.139954,0.91441 0,1.261255 -0.139953,0.346845 -0.254465,0.06306 -0.254465,-0.630628 z m -5.080115,-0.630627 c 0.116999,-0.06937 1.006184,-0.807204 1.975969,-1.639632 l 1.763235,-1.513507 -1.481769,1.639632 c -0.814972,0.901798 -1.704157,1.639632 -1.975968,1.639632 -0.271805,0 -0.398471,-0.05676 -0.281467,-0.126125 z m 4.006907,-3.657641 c 0,-0.277476 0.220069,-0.845041 0.48905,-1.261255 0.26898,-0.416214 0.489049,-0.529727 0.489049,-0.252251 0,0.277476 -0.220069,0.845041 -0.489049,1.261255 -0.268981,0.416215 -0.48905,0.529728 -0.48905,0.252251 z m 1.091904,-5.549523 c 0.01029,-0.832428 0.123351,-1.11189 0.251263,-0.621026 0.127911,0.490864 0.119501,1.171942 -0.01872,1.513507 -0.138173,0.341564 -0.242827,-0.06005 -0.232546,-0.892481 z m -34.530621,0.391799 c 0.901798,-0.111912 2.377466,-0.111912 3.279264,0 0.901797,0.111912 0.163963,0.203476 -1.639632,0.203476 -1.803595,0 -2.541429,-0.09156 -1.639632,-0.203476 z m -8.040502,-0.48418 c 0.364187,-0.145736 0.79932,-0.127813 0.966962,0.03983 0.167642,0.167642 -0.13033,0.286881 -0.662159,0.264975 -0.587716,-0.02421 -0.707261,-0.143753 -0.304803,-0.304804 z m 16.648569,0 c 0.364188,-0.145736 0.799321,-0.127813 0.966963,0.03983 0.167641,0.167642 -0.13033,0.286881 -0.662159,0.264975 -0.587716,-0.02421 -0.707262,-0.143753 -0.304804,-0.304804 z m 2.018009,0 c 0.364187,-0.145736 0.79932,-0.127813 0.966962,0.03983 0.167643,0.167642 -0.13033,0.286881 -0.662159,0.264975 -0.587716,-0.02421 -0.707261,-0.143753 -0.304803,-0.304804 z m 2.52251,-0.504502 c 0.364185,-0.145736 0.799318,-0.127813 0.966964,0.03983 0.167641,0.167642 -0.130333,0.286881 -0.662159,0.264975 -0.587719,-0.02421 -0.707261,-0.143754 -0.304805,-0.304804 z m 5.045021,-1.009005 c 0.364185,-0.145736 0.799318,-0.127812 0.966964,0.03983 0.167641,0.167642 -0.130333,0.286881 -0.662159,0.264975 -0.587719,-0.02421 -0.707261,-0.143754 -0.304805,-0.304804 z m 8.166628,-2.880655 c 0,-0.109051 0.352329,-0.333476 0.782957,-0.498723 0.448967,-0.172286 0.651474,-0.08771 0.474726,0.198275 -0.296273,0.47938 -1.257683,0.709051 -1.257683,0.300448 z m 2.27026,-1.128751 c 0.277476,-0.242842 1.355849,-1.22327 2.396385,-2.17873 1.040535,-0.955458 1.891882,-1.588338 1.891882,-1.406397 0,0.470832 -2.584826,2.856182 -3.783765,3.491764 -0.554953,0.294192 -0.781979,0.336205 -0.504502,0.09336 z m 5.077455,-5.379385 c 0.189456,-0.49755 0.471553,-0.777549 0.626884,-0.622219 0.155331,0.15533 3.23e-4,0.562416 -0.344464,0.904637 -0.498256,0.494547 -0.556203,0.436598 -0.28242,-0.282418 z"
       id="path5396"
       inkscape:connector-curvature="0" />
  </g>
</svg>
