<?xml version="1.0" encoding="UTF-8" standalone="no"?>
<!-- Created with Inkscape (http://www.inkscape.org/) -->

<svg
   xmlns:dc="http://purl.org/dc/elements/1.1/"
   xmlns:cc="http://creativecommons.org/ns#"
   xmlns:rdf="http://www.w3.org/1999/02/22-rdf-syntax-ns#"
   xmlns:svg="http://www.w3.org/2000/svg"
   xmlns="http://www.w3.org/2000/svg"
   xmlns:sodipodi="http://sodipodi.sourceforge.net/DTD/sodipodi-0.dtd"
   xmlns:inkscape="http://www.inkscape.org/namespaces/inkscape"
   width="63.957943mm"
   height="46.120518mm"
   viewBox="0 0 226.62263 163.41916"
   id="svg2"
   version="1.1"
   inkscape:version="0.91 r13725"
   sodipodi:docname="ign_data.svg">
  <defs
     id="defs4">
    <filter
       style="color-interpolation-filters:sRGB"
       inkscape:label="Invert"
       id="filter5418">
      <feColorMatrix
         type="hueRotate"
         values="180"
         result="color1"
         id="feColorMatrix5420" />
      <feColorMatrix
         values="-1 0 0 0 1 0 -1 0 0 1 0 0 -1 0 1 -0.21 -0.72 -0.07 2 0 "
         result="fbSourceGraphic"
         id="feColorMatrix5422" />
      <feColorMatrix
         result="fbSourceGraphicAlpha"
         in="fbSourceGraphic"
         values="0 0 0 -1 0 0 0 0 -1 0 0 0 0 -1 0 0 0 0 1 0"
         id="feColorMatrix5430" />
      <feColorMatrix
         id="feColorMatrix5432"
         type="hueRotate"
         values="180"
         result="color1"
         in="fbSourceGraphic" />
      <feColorMatrix
         id="feColorMatrix5434"
         values="-1 0 0 0 1 0 -1 0 0 1 0 0 -1 0 1 -0.21 -0.72 -0.07 2 0 "
         result="color2" />
    </filter>
    <filter
       style="color-interpolation-filters:sRGB"
       inkscape:label="Invert"
       id="filter5424">
      <feColorMatrix
         type="hueRotate"
         values="180"
         result="color1"
         id="feColorMatrix5426" />
      <feColorMatrix
         values="-1 0 0 0 1 0 -1 0 0 1 0 0 -1 0 1 -0.21 -0.72 -0.07 2 0 "
         result="fbSourceGraphic"
         id="feColorMatrix5428" />
      <feColorMatrix
         result="fbSourceGraphicAlpha"
         in="fbSourceGraphic"
         values="0 0 0 -1 0 0 0 0 -1 0 0 0 0 -1 0 0 0 0 1 0"
         id="feColorMatrix5436" />
      <feColorMatrix
         id="feColorMatrix5438"
         type="hueRotate"
         values="180"
         result="color1"
         in="fbSourceGraphic" />
      <feColorMatrix
         id="feColorMatrix5440"
         values="-1 0 0 0 1 0 -1 0 0 1 0 0 -1 0 1 -0.21 -0.72 -0.07 2 0 "
         result="color2" />
    </filter>
    <filter
       style="color-interpolation-filters:sRGB"
       inkscape:label="Invert"
       id="filter5442">
      <feColorMatrix
         type="hueRotate"
         values="180"
         result="color1"
         id="feColorMatrix5444" />
      <feColorMatrix
         values="-1 0 0 0 1 0 -1 0 0 1 0 0 -1 0 1 -0.21 -0.72 -0.07 2 0 "
         result="color2"
         id="feColorMatrix5446" />
    </filter>
  </defs>
  <sodipodi:namedview
     id="base"
     pagecolor="#ffffff"
     bordercolor="#666666"
     borderopacity="1.0"
     inkscape:pageopacity="0.0"
     inkscape:pageshadow="2"
     inkscape:zoom="1.979899"
     inkscape:cx="222.59079"
     inkscape:cy="85.457388"
     inkscape:document-units="px"
     inkscape:current-layer="g5260"
     showgrid="false"
     inkscape:window-width="1536"
     inkscape:window-height="841"
     inkscape:window-x="-8"
     inkscape:window-y="-8"
     inkscape:window-maximized="1"
     fit-margin-top="0"
     fit-margin-left="0"
     fit-margin-right="0"
     fit-margin-bottom="0" />
  <metadata
     id="metadata7">
    <rdf:RDF>
      <cc:Work
         rdf:about="">
        <dc:format>image/svg+xml</dc:format>
        <dc:type
           rdf:resource="http://purl.org/dc/dcmitype/StillImage" />
        <dc:title></dc:title>
      </cc:Work>
    </rdf:RDF>
  </metadata>
  <g
     inkscape:label="Calque 1"
     inkscape:groupmode="layer"
     id="layer1"
     transform="translate(-271.11974,-379.99687)">
    <g
       id="g5260"
       transform="translate(5.7142857,-257.14286)"
       style="filter:url(#filter5442)">
      <path
         style="fill:#0b0b0b;fill-opacity:1;filter:url(#filter5424)"
         d="m 349.19257,786.53201 c -29.03463,-3.63129 -45.44192,-36.63907 -32.25216,-64.88407 3.28269,-7.02967 12.14495,-15.90113 19.20245,-19.22237 14.42416,-6.78798 35.15888,-5.7333 45.38222,2.30838 2.46244,1.93696 2.52823,2.28057 1.95482,10.20921 -0.32637,4.51263 -0.93055,8.57712 -1.34264,9.0322 -0.41208,0.45508 -3.12077,-0.96751 -6.01929,-3.16133 -9.49809,-7.18883 -21.76766,-8.69675 -32.13682,-3.9496 -9.07778,4.15595 -13.84335,12.47915 -13.83271,24.15924 0.0113,12.41784 4.84312,21.21815 14.29507,26.03599 4.9849,2.54089 6.88344,2.94923 13.5,2.90358 10.36271,-0.0715 13.19935,-1.27294 13.19935,-5.59055 0,-4.25949 1.5246,-5.72475 5.9566,-5.72475 1.95613,0 4.9706,-0.40553 6.69882,-0.90118 4.64245,-1.33143 5.34458,0.0409 5.34458,10.44619 0,10.39572 -0.22144,10.76525 -8.5,14.18455 -9.08446,3.75216 -21.52625,5.39569 -31.45029,4.15451 z m 96.38227,-23.93647 c -11.94995,-13.22882 -22.10171,-23.67787 -22.55947,-23.22011 -0.45775,0.45775 -0.95383,10.71883 -1.10239,22.80239 l -0.27012,21.97012 -5.44655,0.30908 c -2.99561,0.16999 -6.48311,0.0489 -7.75,-0.26906 l -2.30345,-0.57812 0,-42.42194 c 0,-28.52638 0.34364,-42.63431 1.04911,-43.07031 1.74974,-1.0814 3.99415,1.14339 25.50334,25.28035 11.39533,12.7875 21.0993,23.25 21.56439,23.25 0.46509,0 0.96656,-10.2375 1.11439,-22.75 l 0.26877,-22.75 7.5,0 7.5,0 0.26074,42.75 c 0.25412,41.66534 0.21174,42.75 -1.67042,42.75 -1.25246,0 -9.56704,-8.45307 -23.65834,-24.0524 z m -160.97492,20.80109 c -0.2641,-0.68823 -0.36248,-19.47573 -0.21862,-41.75 l 0.26156,-40.49869 8,0 8,0 0.26137,40.93395 c 0.20486,32.08344 -0.0113,41.10709 -1,41.73469 -2.11498,1.34262 -14.76111,0.9956 -15.30431,-0.41995 z m 81.00149,-28.14357 c -7.40566,-1.79917 -13.82142,-5.20329 -18.3594,-9.74127 -6.97485,-6.97485 -6.47437,-9.78404 2.20218,-12.36069 10.57424,-3.14022 23.8916,-0.90659 33.33576,5.59116 4.82618,3.3205 9.36291,8.7592 9.36291,11.22439 0,2.06118 -4.00035,4.12065 -10.79922,5.55968 -6.44198,1.36348 -9.2023,1.31557 -15.74223,-0.27327 z M 323.3519,689.6609 c -11.92998,-2.8171 -14.49877,-21.49788 -4.02922,-29.30129 3.69477,-2.75387 12.91547,-2.77764 16.57857,-0.0427 5.2251,3.9011 6.74161,7.01237 6.74161,13.83107 0,4.85721 -0.48552,7.00365 -2.06179,9.11488 -4.30204,5.76212 -10.3738,8.01687 -17.22917,6.39808 z m 9.38597,-8.11795 c 1.36797,-1.51158 1.90499,-3.59626 1.90499,-7.39501 0,-7.9735 -4.58003,-11.66827 -10.52199,-8.48823 -4.28504,2.29328 -4.42765,14.45972 -0.19838,16.92471 2.84689,1.65928 6.79316,1.19306 8.81538,-1.04147 z m 124.6528,8.39897 c -2.75047,-0.5296 -4.4492,-3.3501 -3.21775,-5.34262 0.5739,-0.92859 2.5934,-1.44273 5.68022,-1.44611 4.10926,-0.005 4.78972,-0.28726 4.78972,-1.99029 0,-1.33222 -1.45682,-2.7479 -4.42972,-4.30465 -5.58802,-2.92615 -6.99862,-4.79478 -7.03848,-9.32395 -0.0575,-6.52877 7.13105,-11.03015 14.4682,-9.05985 2.23235,0.59947 3.07955,1.47774 3.3109,3.43227 0.29351,2.47979 0.0419,2.64384 -4.5,2.93394 -4.03028,0.25742 -4.8109,0.62963 -4.8109,2.29385 0,1.36342 1.37194,2.63661 4.37362,4.05882 5.45631,2.58523 7.12638,4.81975 7.12638,9.53496 0,4.79244 -2.51301,7.78967 -7.5,8.94515 -4.16899,0.96594 -4.5633,0.97877 -8.25219,0.26848 z m -172.80873,-1.59214 c -0.27398,-0.71398 -0.37236,-7.57648 -0.21861,-15.25 l 0.27953,-13.95184 7,-0.26992 c 8.34711,-0.32186 12.77942,1.51703 16.31767,6.76992 1.99475,2.96141 2.29861,4.4568 1.9746,9.71769 -0.42854,6.95808 -2.72867,10.44773 -8.51015,12.91119 -4.20799,1.793 -16.16312,1.84479 -16.84304,0.073 z m 15.31092,-7.95028 c 5.11135,-4.77102 1.63014,-14.54234 -5.35972,-15.04409 l -2.89028,-0.20747 -0.29497,7.91161 c -0.16224,4.35138 -0.0455,8.56162 0.25931,9.35607 0.73329,1.91092 5.25801,0.80993 8.28566,-2.01612 z m 46.85699,7.66665 c -0.33385,-0.86998 -0.60699,-7.13318 -0.60699,-13.91821 0,-6.78503 0.27314,-13.04823 0.60699,-13.91821 0.83455,-2.17482 6.66028,-2.06121 8.62618,0.16821 0.84873,0.9625 3.12947,4.9 5.06831,8.75 3.96906,7.88145 4.51589,7.54844 4.92622,-3 l 0.2723,-7 3,0 3,0 0,15 0,15 -4,0 c -4,0 -4,0 -8.5,-8.5 l -4.5,-8.5 -0.29795,7.45532 c -0.16388,4.10042 -0.78148,8.03792 -1.37245,8.75 -1.49725,1.80408 -5.49085,1.61982 -6.22261,-0.28711 z m 30.83209,0.28363 c -0.27398,-0.71398 -0.37236,-7.57648 -0.21861,-15.25 l 0.27953,-13.95184 3.70644,-0.30777 c 3.63428,-0.30177 3.76844,-0.18497 6.89007,5.99895 1.75099,3.46869 3.90809,7.41794 4.79355,8.77611 1.56123,2.39468 1.62507,2.21317 2.10994,-5.99895 l 0.5,-8.46834 3,0 3,0 0,15 0,15 -4,0 c -4,0 -4,0 -8.5,-8.5 l -4.5,-8.5 -0.25578,6.5 c -0.37783,9.60147 -0.86028,11 -3.79466,11 -1.38178,0 -2.7365,-0.58417 -3.01048,-1.29816 z m 30.18217,-0.24646 c -0.80058,-2.08627 -0.81271,-25.79288 -0.0143,-27.87359 0.33388,-0.86999 1.42182,-1.58179 2.41768,-1.58179 1.09989,0 2.52994,-1.47204 3.64301,-3.75 1.35762,-2.77842 2.54485,-3.83198 4.58236,-4.06642 2.16543,-0.24916 2.75,0.0968 2.75,1.62755 0,1.06919 -0.675,2.50418 -1.5,3.18887 -2.38906,1.98274 -1.77255,2.85671 2.25,3.18963 3.25057,0.26903 3.75,0.64332 3.75,2.81037 0,2.26667 -0.46667,2.54667 -5,3 -4.53333,0.45333 -5,0.73333 -5,3 0,2.22222 0.5,2.55556 4.5,3 4,0.44444 4.5,0.77778 4.5,3 0,2.22222 -0.5,2.55556 -4.5,3 -4.22222,0.46914 -4.5,0.68518 -4.5,3.5 0,2.86667 0.22222,3.02222 5,3.5 4.53333,0.45333 5,0.73333 5,3 0,2.45133 -0.16799,2.50559 -8.62875,2.78716 -7.20248,0.2397 -8.73144,0.0196 -9.25,-1.33178 z m 23.61537,0.38124 c -1.86976,-1.86976 -1.72133,-27.18946 0.16858,-28.75795 0.88185,-0.73186 4.32694,-1.0568 9.25,-0.87244 7.62278,0.28546 7.8448,0.36452 7.8448,2.79377 0,2.26667 -0.46667,2.54667 -5,3 -4.53333,0.45333 -5,0.73333 -5,3 0,2.22222 0.5,2.55556 4.5,3 4,0.44444 4.5,0.77778 4.5,3 0,2.22222 -0.5,2.55556 -4.5,3 -4.22222,0.46914 -4.5,0.68518 -4.5,3.5 0,2.86667 0.22222,3.02222 5,3.5 4.53333,0.45333 5,0.73333 5,3 0,2.43484 -0.20887,2.50747 -8.01338,2.78662 -5.37553,0.19227 -8.42045,-0.12045 -9.25,-0.95 z"
         id="path5264"
         inkscape:connector-curvature="0"
         inkscape:transform-center-x="-22.857137"
         inkscape:transform-center-y="-408.57141" />
    </g>
  </g>
</svg>
