<?xml version="1.0" encoding="UTF-8" standalone="no"?>
<!-- Created with Inkscape (http://www.inkscape.org/) -->

<svg
   xmlns:dc="http://purl.org/dc/elements/1.1/"
   xmlns:cc="http://creativecommons.org/ns#"
   xmlns:rdf="http://www.w3.org/1999/02/22-rdf-syntax-ns#"
   xmlns:svg="http://www.w3.org/2000/svg"
   xmlns="http://www.w3.org/2000/svg"
   xmlns:sodipodi="http://sodipodi.sourceforge.net/DTD/sodipodi-0.dtd"
   xmlns:inkscape="http://www.inkscape.org/namespaces/inkscape"
   id="svg4154"
   version="1.1"
   inkscape:version="0.91 r13725"
   width="100"
   height="100"
   viewBox="0 0 99.999998 99.999999"
   sodipodi:docname="map-marker.svg">
  <metadata
     id="metadata4160">
    <rdf:RDF>
      <cc:Work
         rdf:about="">
        <dc:format>image/svg+xml</dc:format>
        <dc:type
           rdf:resource="http://purl.org/dc/dcmitype/StillImage" />
        <dc:title></dc:title>
      </cc:Work>
    </rdf:RDF>
  </metadata>
  <defs
     id="defs4158" />
  <sodipodi:namedview
     pagecolor="#ffffff"
     bordercolor="#666666"
     borderopacity="1"
     objecttolerance="10"
     gridtolerance="10"
     guidetolerance="10"
     inkscape:pageopacity="0"
     inkscape:pageshadow="2"
     inkscape:window-width="1536"
     inkscape:window-height="841"
     id="namedview4156"
     showgrid="false"
     fit-margin-top="0"
     fit-margin-left="0"
     fit-margin-right="0"
     fit-margin-bottom="0"
     inkscape:zoom="1.3164062"
     inkscape:cx="124.95477"
     inkscape:cy="199.72636"
     inkscape:window-x="-8"
     inkscape:window-y="-8"
     inkscape:window-maximized="1"
     inkscape:current-layer="svg4154" />
  <g
     id="g4182"
     transform="translate(-109.7752,-369.39992)" />
  <path
     style="fill:#ffffff"
     d="M 49.505177,86.902964 C 47.434077,86.257277 46.025135,85.102812 45.120131,83.30993 37.449906,68.114629 25.734546,44.673185 25.417897,43.887422 c -0.884419,-2.194677 -1.108449,-3.741237 -1.109288,-7.65782 -9.69e-4,-4.065541 0.178134,-5.222366 1.296984,-8.381853 1.228566,-3.469318 3.172837,-6.400242 6.194914,-9.338628 2.537432,-2.467159 4.547048,-3.872491 7.514566,-5.254961 3.956885,-1.843379 7.342463,-2.564267 12.04285,-2.564267 7.736288,0 13.648705,2.317141 19.183783,7.518332 3.281392,3.083457 5.262536,5.993883 6.56936,9.650814 1.619982,4.533246 1.837689,10.626373 0.531598,14.878272 -0.304975,0.992833 -3.815756,8.212771 -10.408082,21.404269 -11.067686,22.146871 -10.522949,21.206998 -12.938754,22.324186 -0.970967,0.449025 -1.475215,0.566557 -2.625655,0.611999 -0.85062,0.0336 -1.722271,-0.03678 -2.164996,-0.174801 z m 5.372965,-38.501167 c 4.338584,-1.090329 8.016502,-4.461388 9.387575,-8.604347 0.624439,-1.886859 0.624763,-5.420993 7.23e-4,-7.309736 -1.387572,-4.199331 -5.1141,-7.529449 -9.666159,-8.637921 -1.58021,-0.384799 -4.84067,-0.385344 -6.542292,-10e-4 -3.713548,0.838573 -7.048826,3.406291 -8.847744,6.81158 -1.778155,3.365982 -1.737928,7.910879 0.09905,11.190942 1.217723,2.174337 3.215144,4.161082 5.383619,5.354844 1.022272,0.562767 3.02898,1.231727 4.371504,1.457291 1.333037,0.223971 4.437548,0.0843 5.813776,-0.26156 z"
     id="path4196"
     inkscape:connector-curvature="0" />
</svg>
