<?xml version="1.0" encoding="utf-8"?>
<!-- Generator: Adobe Illustrator 19.0.0, SVG Export Plug-In . SVG Version: 6.00 Build 0)  -->
<svg version="1.1" id="Calque_1" xmlns="http://www.w3.org/2000/svg" xmlns:xlink="http://www.w3.org/1999/xlink" x="0px" y="0px"
	 viewBox="-168 43.5 300 250" style="enable-background:new -168 43.5 300 250;" xml:space="preserve">
<style type="text/css">
	.st0{fill:#3CAF38;}
	.st1{fill:#FFFFFF;}
	.st2{fill:#E71E27;stroke:#539743;stroke-width:5.000000e-02;stroke-miterlimit:10;}
	.st3{fill:#FFFFFF;stroke:#539743;stroke-width:5.000000e-02;stroke-miterlimit:10;}
	.st4{opacity:0.2;}
	.st5{fill:#0C0506;}
	.st6{fill:#506FB5;stroke:#539743;stroke-width:5.000000e-02;stroke-miterlimit:10;}
	.st7{font-family:'Byom';}
	.st8{font-size:59.7533px;}
</style>
<g>
	<g>
		<circle class="st0" cx="23.9" cy="221.8" r="11.4"/>
		<path class="st0" d="M12.5,221.8c0,6.3,11.4,22.8,11.4,22.8s11.4-16.5,11.4-22.8"/>
	</g>
	<circle class="st1" cx="23.9" cy="221.8" r="9.1"/>
</g>
<g>
	<circle class="st2" cx="105.7" cy="102.3" r="22.7"/>
	<path class="st2" d="M83,102.3c0,12.7,22.7,45.3,22.7,45.3s22.7-32.7,22.7-45.3"/>
	<circle class="st3" cx="105.7" cy="102.3" r="19.5"/>
</g>
<g>
	<g class="st4">
		<circle class="st5" cx="-114" cy="115.1" r="14.8"/>
		<path class="st5" d="M-128.6,115.1c0,8.3,3.5,20.7,3.5,20.7s25.8-12.5,25.8-20.7"/>
		<circle class="st5" cx="-114" cy="115.1" r="12"/>
	</g>
	<g>
		<g>
			<circle class="st6" cx="-125.1" cy="106.5" r="14.8"/>
			<path class="st6" d="M-139.9,106.5c0,8.3,14.8,29.3,14.8,29.3s14.8-21.3,14.8-29.3"/>
		</g>
		<circle class="st1" cx="-125.1" cy="106.5" r="12"/>
	</g>
</g>
<text transform="matrix(1 0 0 1 -163.5835 188.2261)" class="st7 st8">geoDatup</text>
</svg>
