<?xml version="1.0" encoding="UTF-8" standalone="no"?>
<!-- Created with Inkscape (http://www.inkscape.org/) -->

<svg
   xmlns:dc="http://purl.org/dc/elements/1.1/"
   xmlns:cc="http://creativecommons.org/ns#"
   xmlns:rdf="http://www.w3.org/1999/02/22-rdf-syntax-ns#"
   xmlns:svg="http://www.w3.org/2000/svg"
   xmlns="http://www.w3.org/2000/svg"
   xmlns:sodipodi="http://sodipodi.sourceforge.net/DTD/sodipodi-0.dtd"
   xmlns:inkscape="http://www.inkscape.org/namespaces/inkscape"
   width="210mm"
   height="297mm"
   viewBox="0 0 744.09448819 1052.3622047"
   id="svg2"
   version="1.1"
   inkscape:version="0.91 r13725"
   sodipodi:docname="QGIS3_logo.svg">
  <defs
     id="defs4" />
  <sodipodi:namedview
     id="base"
     pagecolor="#ffffff"
     bordercolor="#666666"
     borderopacity="1.0"
     inkscape:pageopacity="0.0"
     inkscape:pageshadow="2"
     inkscape:zoom="22.4"
     inkscape:cx="362.41589"
     inkscape:cy="633.72199"
     inkscape:document-units="px"
     inkscape:current-layer="layer1"
     showgrid="false"
     inkscape:window-width="1536"
     inkscape:window-height="841"
     inkscape:window-x="-8"
     inkscape:window-y="-8"
     inkscape:window-maximized="1" />
  <metadata
     id="metadata7">
    <rdf:RDF>
      <cc:Work
         rdf:about="">
        <dc:format>image/svg+xml</dc:format>
        <dc:type
           rdf:resource="http://purl.org/dc/dcmitype/StillImage" />
        <dc:title></dc:title>
      </cc:Work>
    </rdf:RDF>
  </metadata>
  <g
     inkscape:label="Calque 1"
     inkscape:groupmode="layer"
     id="layer1">
    <g
       id="g3347"
       transform="translate(-19.553571,0.75892857)">
      <path
         style="fill:#e5ecd4"
         d="m 369.1127,425.46853 c -5.72379,-5.74646 -5.74219,-5.77204 -5.74219,-7.98473 l 0,-2.21979 1.99219,0.003 c 1.92806,0.003 2.19279,0.20222 8.22493,6.2026 5.87243,5.84151 6.22471,6.29525 6.09375,7.84889 -0.13716,1.62724 -0.16988,1.65072 -2.48274,1.78213 l -2.34375,0.13316 -5.74219,-5.76493 z m -8.02987,4.75104 c -1.98632,-0.6052 -3.60275,-1.59682 -5.60496,-3.43842 -2.35849,-2.16931 -3.47463,-4.71556 -3.72117,-8.48912 -0.27985,-4.28349 0.96315,-7.37278 4.10012,-10.19025 2.74576,-2.46611 5.89466,-3.62366 9.85744,-3.62366 9.55229,0 16.08783,8.11788 13.58945,16.87964 -0.8514,2.98586 -1.06437,3.02673 -3.43244,0.65866 -2.03129,-2.0313 -2.18881,-2.36037 -2.19597,-4.58753 -0.0104,-3.23023 -1.47396,-5.74778 -4.16758,-7.16878 -2.38265,-1.25694 -4.42244,-1.37924 -6.6659,-0.39967 -3.50256,1.52935 -5.09631,3.95215 -5.09631,7.74732 0,4.6597 3.20893,8.01693 7.7281,8.08525 1.62442,0.0246 2.39096,0.36716 4.05009,1.8102 1.61435,1.40408 1.92527,1.90109 1.47251,2.35385 -0.74155,0.74155 -7.81981,1.00038 -9.91338,0.36251 z"
         id="path3387"
         inkscape:connector-curvature="0" />
      <path
         style="fill:#d7e5c7"
         d="m 369.1127,425.40552 c -5.48466,-5.53447 -5.74219,-5.88131 -5.74219,-7.73355 l 0,-1.93921 2.2336,0 c 2.23246,0 2.2365,0.003 7.96875,5.74896 5.5268,5.5401 5.73515,5.82108 5.73515,7.73437 l 0,1.98542 -2.22656,-8.4e-4 c -2.22617,-8.5e-4 -2.2276,-0.002 -7.96875,-5.79517 z m -8.78906,4.3753 c -3.05039,-1.17536 -5.54633,-3.26961 -7.14685,-5.99663 -1.13012,-1.92555 -1.28651,-2.67647 -1.28633,-6.17643 1.7e-4,-3.18921 0.20205,-4.35857 1.01155,-5.85938 1.27713,-2.36776 3.54236,-4.51107 6.24975,-5.91337 3.06749,-1.58881 10.05751,-1.58881 13.125,0 4.08761,2.11719 6.68239,5.44161 7.30981,9.36527 0.3894,2.43521 -0.14616,6.73776 -0.97874,7.86287 -0.60998,0.82432 -0.76451,0.7568 -2.78532,-1.21705 -2.04041,-1.993 -2.1395,-2.21227 -2.1395,-4.73436 0,-2.17385 -0.2418,-2.97837 -1.35847,-4.51989 -2.3736,-3.27665 -6.47904,-4.24951 -10.24321,-2.4273 -2.96213,1.43394 -4.49496,3.94787 -4.48151,7.34995 0.019,4.80502 3.05863,8.07013 7.74805,8.32276 2.01138,0.10835 2.62078,0.38789 4.19701,1.92519 l 1.84398,1.79843 -1.31387,0.5648 c -2.02178,0.86911 -7.06352,0.69081 -9.75135,-0.34486 z"
         id="path3385"
         inkscape:connector-curvature="0" />
      <path
         style="fill:#d7dcaa"
         d="m 369.34093,425.45437 c -5.83333,-5.59398 -5.98256,-5.78698 -5.97657,-7.72942 l 0.006,-1.99219 2.2336,0 c 2.23246,0 2.2365,0.003 7.96875,5.74896 5.5268,5.5401 5.73515,5.82108 5.73515,7.73437 l 0,1.98542 -1.99219,-0.005 c -1.90715,-0.005 -2.24754,-0.24983 -7.97489,-5.74219 z m -8.55835,4.43397 c -6.16798,-2.13277 -9.61454,-7.44771 -8.95518,-13.80979 0.47982,-4.62964 2.80127,-7.83445 7.45458,-10.29119 2.84511,-1.50209 9.99351,-1.5162 12.815,-0.0253 4.49979,2.37775 6.97668,5.70268 7.4878,10.05149 0.31854,2.7103 -0.43692,7.17314 -1.30509,7.7097 -0.25596,0.15819 -1.40433,-0.63348 -2.55194,-1.75926 -1.5979,-1.56751 -2.02549,-2.29064 -1.82581,-3.08775 0.36235,-1.44647 -0.44659,-4.73903 -1.52019,-6.18745 -1.32761,-1.79113 -4.27542,-3.30352 -6.43311,-3.30054 -6.91266,0.01 -10.82881,7.34389 -7.03067,13.16739 1.33168,2.04178 4.49526,3.6896 7.08353,3.6896 1.5532,0 2.16713,0.30814 3.65999,1.83696 l 1.79374,1.83695 -1.8158,0.50418 c -2.63335,0.73119 -6.15909,0.59782 -8.85685,-0.33501 z"
         id="path3383"
         inkscape:connector-curvature="0" />
      <path
         style="fill:#f3e967"
         d="m 369.34707,425.4001 c -5.78244,-5.56759 -5.97656,-5.81805 -5.97656,-7.71092 l 0,-1.95642 2.16039,0 c 2.13351,0 2.23264,0.0713 7.96875,5.73121 5.63177,5.55697 5.80836,5.79211 5.80836,7.73438 l 0,2.00316 -1.99219,-0.0234 c -1.90049,-0.0224 -2.26728,-0.28833 -7.96875,-5.77796 z m -8.59989,4.47626 c -3.26505,-1.12864 -5.83453,-3.28349 -7.46162,-6.25756 -1.15722,-2.11521 -1.36783,-3.03106 -1.38233,-6.01104 -0.0138,-2.83788 0.20643,-3.95324 1.14238,-5.78563 1.36891,-2.68004 3.60208,-4.75986 6.55109,-6.10123 3.00143,-1.36522 9.23369,-1.36522 12.23512,0 5.06239,2.30265 7.69943,6.29002 7.70634,11.65248 0.004,2.94427 -0.8295,6.32813 -1.55834,6.32813 -0.15232,0 -1.16383,-0.87041 -2.2478,-1.93424 -1.71423,-1.68239 -1.9385,-2.13354 -1.72245,-3.46488 0.50479,-3.11065 -1.85712,-7.23809 -4.85993,-8.49274 -3.31124,-1.38353 -7.79282,-0.28933 -9.92688,2.4237 -4.40226,5.59655 -0.4096,13.76277 6.74793,13.80162 1.58227,0.009 2.1947,0.31511 3.6908,1.84725 l 1.79374,1.83695 -1.8158,0.50418 c -2.64374,0.73407 -6.162,0.59678 -8.89225,-0.34699 z"
         id="path3381"
         inkscape:connector-curvature="0" />
      <path
         style="fill:#f6bd8d"
         d="m 369.34707,425.4001 c -5.78244,-5.56759 -5.97656,-5.81805 -5.97656,-7.71092 l 0,-1.95642 2.20091,0 c 1.74983,0 2.47037,0.25816 3.51563,1.25957 1.72845,1.65597 1.65911,2.02168 -0.38331,2.02168 -1.4562,0 -1.61492,0.10013 -1.11448,0.70312 0.36569,0.44064 1.39772,0.70313 2.76444,0.70313 2.08506,0 2.32973,0.14983 5.5676,3.40946 3.13112,3.15215 3.38671,3.55898 3.38671,5.39063 l 0,1.98116 -1.99219,-0.0234 c -1.90049,-0.0224 -2.26728,-0.28833 -7.96875,-5.77796 z m -8.59989,4.47626 c -3.26505,-1.12864 -5.83453,-3.28349 -7.46162,-6.25756 -1.15722,-2.11521 -1.36783,-3.03106 -1.38233,-6.01104 -0.0138,-2.83788 0.20643,-3.95324 1.14238,-5.78563 1.36891,-2.68004 3.60208,-4.75986 6.55109,-6.10123 3.00143,-1.36522 9.23369,-1.36522 12.23512,0 5.06239,2.30265 7.69943,6.29002 7.70634,11.65248 0.004,2.94427 -0.8295,6.32813 -1.55834,6.32813 -0.15232,0 -1.16383,-0.87041 -2.2478,-1.93424 -1.71423,-1.68239 -1.9385,-2.13354 -1.72245,-3.46488 0.50479,-3.11065 -1.85712,-7.23809 -4.85993,-8.49274 -3.31124,-1.38353 -7.79282,-0.28933 -9.92688,2.4237 -4.40226,5.59655 -0.4096,13.76277 6.74793,13.80162 1.58227,0.009 2.1947,0.31511 3.6908,1.84725 l 1.79374,1.83695 -1.8158,0.50418 c -2.64374,0.73407 -6.162,0.59678 -8.89225,-0.34699 z"
         id="path3379"
         inkscape:connector-curvature="0" />
      <path
         style="fill:#eee449"
         d="m 369.34031,425.21843 c -5.51437,-5.52664 -5.9698,-6.11669 -5.9698,-7.73438 0,-1.75128 10e-6,-1.75129 2.01742,-1.75129 1.69024,0 2.27531,0.26608 3.60758,1.64062 l 1.59016,1.64063 -1.78998,0 c -1.53794,0 -1.70781,0.099 -1.20643,0.70312 0.36569,0.44064 1.39772,0.70313 2.76444,0.70313 2.08506,0 2.32973,0.14983 5.5676,3.40946 3.13112,3.15215 3.38671,3.55898 3.38671,5.39063 l 0,1.98116 -1.99895,0 c -1.93656,0 -2.18529,-0.18676 -7.96875,-5.98308 z m -8.59313,4.65793 c -3.26505,-1.12864 -5.83453,-3.28349 -7.46162,-6.25756 -1.15722,-2.11521 -1.36783,-3.03106 -1.38233,-6.01104 -0.0138,-2.83788 0.20643,-3.95324 1.14238,-5.78563 1.36891,-2.68004 3.60208,-4.75986 6.55109,-6.10123 3.00143,-1.36522 9.23369,-1.36522 12.23512,0 5.06239,2.30265 7.69943,6.29002 7.70634,11.65248 0.004,2.94427 -0.8295,6.32813 -1.55834,6.32813 -0.15232,0 -1.16383,-0.87041 -2.2478,-1.93424 -1.71423,-1.68239 -1.9385,-2.13354 -1.72245,-3.46488 0.50479,-3.11065 -1.85712,-7.23809 -4.85993,-8.49274 -3.31124,-1.38353 -7.79282,-0.28933 -9.92688,2.4237 -4.40226,5.59655 -0.4096,13.76277 6.74793,13.80162 1.58227,0.009 2.1947,0.31511 3.6908,1.84725 l 1.79374,1.83695 -1.8158,0.50418 c -2.64374,0.73407 -6.162,0.59678 -8.89225,-0.34699 z"
         id="path3377"
         inkscape:connector-curvature="0" />
      <path
         style="fill:#b3cd90"
         d="m 371.91347,427.79205 c -3.13112,-3.15215 -3.38671,-3.55898 -3.38671,-5.39063 l 0,-1.98116 2.00392,0 c 1.8653,0 2.23818,0.23584 5.39062,3.40946 3.13112,3.15215 3.38671,3.55898 3.38671,5.39063 l 0,1.98116 -2.00392,0 c -1.8653,0 -2.23818,-0.23584 -5.39062,-3.40946 z m -11.16629,2.08431 c -3.26505,-1.12864 -5.83453,-3.28349 -7.46162,-6.25756 -1.15722,-2.11521 -1.36783,-3.03106 -1.38233,-6.01104 -0.0138,-2.83788 0.20643,-3.95324 1.14238,-5.78563 1.36891,-2.68004 3.60208,-4.75986 6.55109,-6.10123 3.00143,-1.36522 9.23369,-1.36522 12.23512,0 5.06239,2.30265 7.69943,6.29002 7.70634,11.65248 0.004,2.94427 -0.8295,6.32813 -1.55834,6.32813 -0.15232,0 -1.16383,-0.87041 -2.2478,-1.93424 -1.71423,-1.68239 -1.9385,-2.13354 -1.72245,-3.46488 0.50479,-3.11065 -1.85712,-7.23809 -4.85993,-8.49274 -3.31124,-1.38353 -7.79282,-0.28933 -9.92688,2.4237 -4.40226,5.59655 -0.4096,13.76277 6.74793,13.80162 1.58227,0.009 2.1947,0.31511 3.6908,1.84725 l 1.79374,1.83695 -1.8158,0.50418 c -2.64374,0.73407 -6.162,0.59678 -8.89225,-0.34699 z m 4.14677,-9.0952 c -1.1604,-1.20151 -1.52344,-1.99098 -1.52344,-3.3129 0,-1.73267 0.003,-1.7355 2.01742,-1.7355 1.69024,0 2.27531,0.26608 3.60758,1.64062 l 1.59016,1.64063 -1.93866,0 c -1.88291,0 -1.94284,0.0481 -2.08414,1.67228 l -0.14548,1.67227 -1.52344,-1.5774 z"
         id="path3375"
         inkscape:connector-curvature="0" />
      <path
         style="fill:#f1b856"
         d="m 371.91347,427.79205 c -3.13112,-3.15215 -3.38671,-3.55898 -3.38671,-5.39063 l 0,-1.98116 1.87359,0 c 1.68138,0 2.23439,0.34273 5.39062,3.34084 3.33137,3.16447 3.51704,3.44906 3.51704,5.39063 l 0,2.04978 -2.00392,0 c -1.8653,0 -2.23818,-0.23584 -5.39062,-3.40946 z m -10.65233,2.15771 c -11.29415,-3.4585 -12.85996,-18.72977 -2.43942,-23.79155 10.72938,-5.2118 22.79218,2.97917 20.50447,13.92311 -0.83908,4.01404 -1.08569,4.14783 -3.42095,1.85594 -1.75813,-1.72547 -2.0076,-2.2117 -1.8458,-3.59764 0.38272,-3.27827 -1.92143,-7.28135 -4.9098,-8.52997 -7.02368,-2.93468 -14.06573,3.98625 -11.15188,10.96007 0.39655,0.94908 1.0821,2.12491 1.52344,2.61295 1.3295,1.47018 4.15697,2.66259 6.31363,2.66259 1.74214,0 2.28588,0.25905 3.80142,1.81111 l 1.7685,1.81111 -2.11532,0.53264 c -2.78484,0.70123 -5.16294,0.62707 -8.02829,-0.25036 z m 3.63281,-9.1686 c -1.1604,-1.20151 -1.52344,-1.99098 -1.52344,-3.3129 0,-1.73267 0.003,-1.7355 2.01742,-1.7355 1.69024,0 2.27531,0.26608 3.60758,1.64062 l 1.59016,1.64063 -1.93866,0 c -1.88291,0 -1.94284,0.0481 -2.08414,1.67228 l -0.14548,1.67227 -1.52344,-1.5774 z"
         id="path3373"
         inkscape:connector-curvature="0" />
      <path
         style="fill:#aec670"
         d="m 371.91347,427.79205 c -3.13112,-3.15215 -3.38671,-3.55898 -3.38671,-5.39063 l 0,-1.98116 1.87359,0 c 1.68138,0 2.23439,0.34273 5.39062,3.34084 3.33137,3.16447 3.51704,3.44906 3.51704,5.39063 l 0,2.04978 -2.00392,0 c -1.8653,0 -2.23818,-0.23584 -5.39062,-3.40946 z m -10.65233,2.15771 c -11.29415,-3.4585 -12.85996,-18.72977 -2.43942,-23.79155 10.72938,-5.2118 22.79218,2.97917 20.50447,13.92311 -0.83908,4.01404 -1.08569,4.14783 -3.42095,1.85594 -1.75813,-1.72547 -2.0076,-2.2117 -1.8458,-3.59764 0.38272,-3.27827 -1.92143,-7.28135 -4.9098,-8.52997 -7.02368,-2.93468 -14.06573,3.98625 -11.15188,10.96007 0.39655,0.94908 1.0821,2.12491 1.52344,2.61295 1.3295,1.47018 4.15697,2.66259 6.31363,2.66259 1.74214,0 2.28588,0.25905 3.80142,1.81111 l 1.7685,1.81111 -2.11532,0.53264 c -2.78484,0.70123 -5.16294,0.62707 -8.02829,-0.25036 z m 3.63281,-9.16909 c -1.16049,-1.20123 -1.52344,-1.99039 -1.52344,-3.31241 0,-1.73324 0.003,-1.7355 2.02168,-1.7355 1.63441,0 2.27975,0.26938 3.36895,1.40625 l 1.34727,1.40625 -1.70137,0 c -1.65344,0 -1.70544,0.0537 -1.84552,1.90617 l -0.14413,1.90617 -1.52344,-1.57693 z"
         id="path3371"
         inkscape:connector-curvature="0" />
      <path
         style="fill:#f08e39"
         d="m 371.91347,427.79205 c -3.13112,-3.15215 -3.38671,-3.55898 -3.38671,-5.39063 0,-1.98102 1.3e-4,-1.98116 1.77892,-1.98116 1.55544,0 2.23263,0.41993 5.39062,3.34275 3.44188,3.18557 3.61171,3.43906 3.61171,5.39063 l 0,2.04787 -2.00392,0 c -1.8653,0 -2.23818,-0.23584 -5.39062,-3.40946 z m -10.65233,2.15771 c -8.39314,-2.57015 -12.09605,-12.28855 -7.35591,-19.30577 4.43461,-6.56491 14.592,-7.94215 21.0891,-2.85949 3.43573,2.68776 5.25983,7.85738 4.33448,12.2842 -0.83346,3.98729 -1.09489,4.14742 -3.28289,2.0109 -1.6856,-1.64595 -1.89416,-2.09383 -1.89416,-4.06771 0,-4.60992 -2.56601,-7.88741 -6.94916,-8.87598 -3.41631,-0.7705 -8.13183,1.89941 -9.42834,5.3383 -2.07431,5.50193 2.15354,11.57105 8.06057,11.57105 1.74214,0 2.28588,0.25905 3.80142,1.81111 l 1.7685,1.81111 -2.11532,0.53264 c -2.78484,0.70123 -5.16294,0.62707 -8.02829,-0.25036 z m 3.63281,-9.16909 c -1.16049,-1.20123 -1.52344,-1.99039 -1.52344,-3.31241 0,-1.73324 0.003,-1.7355 2.02168,-1.7355 1.63441,0 2.27975,0.26938 3.36895,1.40625 l 1.34727,1.40625 -1.70137,0 c -1.65344,0 -1.70544,0.0537 -1.84552,1.90617 l -0.14413,1.90617 -1.52344,-1.57693 z"
         id="path3369"
         inkscape:connector-curvature="0" />
      <path
         style="fill:#92b86c"
         d="m 371.91347,427.79205 c -3.13112,-3.15215 -3.38671,-3.55898 -3.38671,-5.39063 0,-1.98102 1.3e-4,-1.98116 1.77892,-1.98116 1.55544,0 2.23263,0.41993 5.39062,3.34275 3.44188,3.18557 3.61171,3.43906 3.61171,5.39063 l 0,2.04787 -2.00392,0 c -1.8653,0 -2.23818,-0.23584 -5.39062,-3.40946 z m -10.65233,2.15771 c -8.39314,-2.57015 -12.09605,-12.28855 -7.35591,-19.30577 4.43461,-6.56491 14.592,-7.94215 21.0891,-2.85949 3.43573,2.68776 5.25983,7.85738 4.33448,12.2842 -0.83346,3.98729 -1.09489,4.14742 -3.28289,2.0109 -1.6856,-1.64595 -1.89416,-2.09383 -1.89416,-4.06771 0,-4.60992 -2.56601,-7.88741 -6.94916,-8.87598 -3.41631,-0.7705 -8.13183,1.89941 -9.42834,5.3383 -2.07431,5.50193 2.15354,11.57105 8.06057,11.57105 1.74214,0 2.28588,0.25905 3.80142,1.81111 l 1.7685,1.81111 -2.11532,0.53264 c -2.78484,0.70123 -5.16294,0.62707 -8.02829,-0.25036 z m 3.63281,-9.1686 c -1.19351,-1.23578 -1.52344,-1.97696 -1.52344,-3.42228 l 0,-1.84487 1.67348,1.67348 c 1.41738,1.41738 1.65052,1.94112 1.52344,3.42228 l -0.15004,1.74879 -1.52344,-1.5774 z"
         id="path3367"
         inkscape:connector-curvature="0" />
      <path
         style="fill:#88b04f"
         d="m 371.91347,427.79205 c -3.13112,-3.15215 -3.38671,-3.55898 -3.38671,-5.39063 0,-1.97797 0.003,-1.98115 1.75781,-1.97482 1.55199,0.006 2.18318,0.42093 5.39063,3.54708 3.31526,3.23123 3.63281,3.70189 3.63281,5.38428 l 0,1.84355 -2.00392,0 c -1.8653,0 -2.23818,-0.23584 -5.39062,-3.40946 z m -9.60493,2.43069 c -4.38696,-1.03356 -8.73353,-4.83926 -9.79818,-8.57893 -2.57277,-9.0371 3.55582,-16.865 13.2039,-16.865 9.30496,0 15.4296,7.20745 13.4095,15.78025 -0.35212,1.4943 -0.77499,2.85169 -0.93971,3.01641 -0.16473,0.16473 -1.11608,-0.49787 -2.11413,-1.47244 -1.65949,-1.62045 -1.83066,-2.02385 -2.00225,-4.71864 -0.31957,-5.0187 -3.62026,-8.3223 -8.31496,-8.3223 -7.59929,0 -11.2017,8.80434 -5.96018,14.56677 1.52549,1.6771 3.30199,2.4164 5.8065,2.4164 1.98283,0 2.47846,0.20984 3.85842,1.6336 0.87085,0.89848 1.45628,1.76068 1.30097,1.91599 -0.98118,0.98118 -5.51907,1.31838 -8.44988,0.62789 z m 2.58541,-9.44158 c -1.19351,-1.23578 -1.52344,-1.97696 -1.52344,-3.42228 l 0,-1.84487 1.67348,1.67348 c 1.41738,1.41738 1.65052,1.94112 1.52344,3.42228 l -0.15004,1.74879 -1.52344,-1.5774 z"
         id="path3365"
         inkscape:connector-curvature="0" />
      <path
         style="fill:#ed7712"
         d="m 371.99243,427.84104 c -3.12052,-3.02579 -3.46567,-3.53931 -3.46567,-5.15625 0,-0.98768 0.16956,-1.79578 0.3768,-1.79578 0.20723,0 1.09236,0.73828 1.96695,1.64062 1.23758,1.27686 1.96441,1.64063 3.27807,1.64063 2.41214,0 5.15943,2.81852 5.15943,5.2932 0,1.72274 -0.017,1.73805 -1.92496,1.73805 -1.75282,0 -2.23487,-0.30051 -5.39062,-3.36047 z m -9.68389,2.3817 c -3.72721,-0.87812 -6.78699,-3.16711 -9.00861,-6.73924 -1.0699,-1.72029 -1.49225,-7.21266 -0.76219,-9.91179 0.62752,-2.32003 3.73667,-5.98518 6.10004,-7.19088 4.08692,-2.08499 10.06604,-2.08499 14.15296,0 2.26159,1.15378 5.44892,4.82147 6.04035,6.95068 0.90706,3.26549 0.45442,9.29068 -0.73216,9.74601 -0.33386,0.12812 -1.35856,-0.54093 -2.2771,-1.48678 -1.46908,-1.51275 -1.67007,-2.00608 -1.67007,-4.09923 0,-5.62027 -5.06736,-9.66198 -10.40797,-8.30135 -6.3407,1.61541 -8.6738,9.48446 -4.21065,14.20164 1.82219,1.9259 3.48542,2.65346 6.06589,2.65346 1.98283,0 2.47846,0.20984 3.85842,1.6336 0.87085,0.89848 1.45628,1.76068 1.30097,1.91599 -0.98118,0.98118 -5.51907,1.31838 -8.44988,0.62789 z m 2.58541,-9.44158 c -1.19351,-1.23578 -1.52344,-1.97696 -1.52344,-3.42228 l 0,-1.84487 1.67348,1.67348 c 1.41738,1.41738 1.65052,1.94112 1.52344,3.42228 l -0.15004,1.74879 -1.52344,-1.5774 z"
         id="path3363"
         inkscape:connector-curvature="0" />
      <path
         style="fill:#79a94f"
         d="m 371.99243,427.84104 c -3.12052,-3.02579 -3.46567,-3.53931 -3.46567,-5.15625 0,-0.98768 0.16956,-1.79578 0.3768,-1.79578 0.20723,0 1.09236,0.73828 1.96695,1.64062 1.23758,1.27686 1.96441,1.64063 3.27807,1.64063 2.41214,0 5.15943,2.81852 5.15943,5.2932 0,1.72274 -0.017,1.73805 -1.92496,1.73805 -1.75282,0 -2.23487,-0.30051 -5.39062,-3.36047 z m -9.68389,2.3817 c -3.72721,-0.87812 -6.78699,-3.16711 -9.00861,-6.73924 -1.0699,-1.72029 -1.49225,-7.21266 -0.76219,-9.91179 0.62752,-2.32003 3.73667,-5.98518 6.10004,-7.19088 4.08692,-2.08499 10.06604,-2.08499 14.15296,0 2.26159,1.15378 5.44892,4.82147 6.04035,6.95068 0.90706,3.26549 0.45442,9.29068 -0.73216,9.74601 -0.33386,0.12812 -1.35856,-0.54093 -2.2771,-1.48678 -1.46908,-1.51275 -1.67007,-2.00608 -1.67007,-4.09923 0,-5.62027 -5.06736,-9.66198 -10.40797,-8.30135 -6.3407,1.61541 -8.6738,9.48446 -4.21065,14.20164 1.82219,1.9259 3.48542,2.65346 6.06589,2.65346 1.98283,0 2.47846,0.20984 3.85842,1.6336 0.87085,0.89848 1.45628,1.76068 1.30097,1.91599 -0.98118,0.98118 -5.51907,1.31838 -8.44988,0.62789 z"
         id="path3361"
         inkscape:connector-curvature="0" />
      <path
         style="fill:#91ae22"
         d="m 371.64563,427.52406 c -2.8844,-2.90667 -3.17001,-3.36538 -3.0343,-4.87329 l 0.14981,-1.6646 5.15625,4.85811 5.15625,4.85811 -2.12195,0.0152 c -2.00732,0.0144 -2.29396,-0.15815 -5.30606,-3.19351 z m -11.37574,2.00411 c -2.7863,-1.02025 -5.76551,-3.77379 -7.03671,-6.50372 -1.20809,-2.59439 -1.47541,-6.67009 -0.63575,-9.69294 0.59143,-2.12921 3.77876,-5.7969 6.04035,-6.95068 4.08692,-2.08499 10.06604,-2.08499 14.15296,0 2.26159,1.15378 5.44892,4.82147 6.04035,6.95068 0.89917,3.23709 0.30684,9.90125 -0.88005,9.90125 -0.18027,0 -1.10886,-0.79991 -2.06352,-1.77758 -1.52089,-1.55753 -1.73576,-2.06016 -1.73576,-4.06038 0,-2.56895 -1.5538,-5.72413 -3.4216,-6.94795 -5.84596,-3.83042 -13.4534,0.13645 -13.4534,7.01523 0,2.98492 0.74862,4.62741 3.01678,6.61887 1.73187,1.52061 4.9485,2.66589 6.41228,2.2831 0.94032,-0.2459 4.51161,2.77137 3.94824,3.33574 -0.67471,0.6759 -8.41912,0.54791 -10.38417,-0.17162 z"
         id="path3359"
         inkscape:connector-curvature="0" />
      <path
         style="fill:#88aa24"
         d="m 371.64563,427.52406 c -2.8844,-2.90667 -3.17001,-3.36538 -3.0343,-4.87329 l 0.14981,-1.6646 5.15625,4.85811 5.15625,4.85811 -2.12195,0.0152 c -2.00732,0.0144 -2.29396,-0.15815 -5.30606,-3.19351 z m -11.37574,2.00411 c -4.78867,-1.75344 -8.13861,-6.56142 -8.14219,-11.68604 -0.003,-3.84053 0.62854,-5.80682 2.6056,-8.11657 l 1.67901,-1.96155 9.30195,0 9.30195,0 1.67901,1.96155 c 1.95016,2.27832 2.60653,4.27232 2.61018,7.92944 0.003,2.59795 -0.72096,5.57776 -1.35436,5.57776 -0.18027,0 -1.10886,-0.79991 -2.06352,-1.77758 -1.52089,-1.55753 -1.73576,-2.06016 -1.73576,-4.06038 0,-5.51768 -5.27957,-9.7074 -10.40678,-8.25852 -2.39804,0.67766 -3.64404,1.62815 -5.26436,4.01582 -1.4033,2.06788 -1.65451,5.9745 -0.52468,8.15935 1.5201,2.93955 6.29233,5.69527 8.74988,5.0526 0.94032,-0.2459 4.51161,2.77137 3.94824,3.33574 -0.67471,0.6759 -8.41912,0.54791 -10.38417,-0.17162 z"
         id="path3357"
         inkscape:connector-curvature="0" />
      <path
         style="fill:#77a328"
         d="m 371.64563,427.52406 c -2.8844,-2.90667 -3.17001,-3.36538 -3.0343,-4.87329 l 0.14981,-1.6646 5.15625,4.85811 5.15625,4.85811 -2.12195,0.0152 c -2.00732,0.0144 -2.29396,-0.15815 -5.30606,-3.19351 z m -11.40439,1.99456 c -2.84324,-1.03973 -5.94118,-3.97127 -7.1389,-6.75546 -0.78718,-1.82985 -0.99188,-3.10696 -0.88564,-5.52548 l 0.13819,-3.14555 2.60954,-0.13802 2.60954,-0.13802 -0.20502,2.83442 c -0.25052,3.46332 0.37287,5.10884 2.74852,7.25509 1.8325,1.65556 5.05719,2.85886 6.58835,2.45845 0.94032,-0.2459 4.51161,2.77137 3.94824,3.33574 -0.68068,0.68188 -8.42098,0.54721 -10.41282,-0.18117 z m 15.69563,-8.04367 c -1.49778,-1.5612 -1.70855,-2.08783 -1.88436,-4.70834 l -0.19796,-2.95052 2.60954,0.13802 2.60955,0.13802 0.14991,2.8125 c 0.14769,2.77068 -0.55247,6.32813 -1.24547,6.32813 -0.19515,0 -1.11369,-0.79102 -2.04121,-1.75781 z"
         id="path3355"
         inkscape:connector-curvature="0" />
      <path
         style="fill:#659b2d"
         d="m 371.64563,427.52406 c -2.8844,-2.90667 -3.17001,-3.36538 -3.0343,-4.87329 l 0.14981,-1.6646 5.15625,4.85811 5.15625,4.85811 -2.12195,0.0152 c -2.00732,0.0144 -2.29396,-0.15815 -5.30606,-3.19351 z m -11.37574,2.00411 c -3.55398,-1.30134 -7.70568,-5.73871 -7.02613,-7.50959 0.16937,-0.44139 0.99782,-0.66037 2.49485,-0.65947 1.95657,0.001 2.35834,0.17607 3.16282,1.37683 1.26964,1.89504 4.10687,3.38172 6.80391,3.56518 1.78084,0.12114 2.57779,0.46455 3.75999,1.62019 0.82509,0.80655 1.35601,1.61088 1.17982,1.78739 -0.66773,0.66894 -8.42391,0.53398 -10.37526,-0.18053 z m 16.53265,-7.15263 c -1.09983,-1.21529 -0.97564,-1.48653 0.68062,-1.48653 1.13547,0 1.3937,0.16339 1.17188,0.74146 -0.15649,0.40781 -0.28453,0.93515 -0.28453,1.17188 0,0.69542 -0.73292,0.49592 -1.56797,-0.42681 z"
         id="path3353"
         inkscape:connector-curvature="0" />
      <path
         style="fill:#5e972e"
         d="m 373.33145,429.03632 c -0.83789,-0.91956 -1.52344,-1.73385 -1.52344,-1.80954 0,-0.0757 0.60173,-0.22593 1.33718,-0.33387 1.05741,-0.1552 1.8175,0.22396 3.63282,1.81216 l 2.29563,2.00841 -2.10938,-0.003 c -1.81938,-0.002 -2.31882,-0.23247 -3.63281,-1.67454 z m -12.53895,0.64385 c -0.77338,-0.28041 -1.99173,-0.86595 -2.70744,-1.3012 l -1.3013,-0.79137 2.89338,-0.30242 c 5.51549,-0.57648 7.96698,-0.38513 9.63772,0.75227 0.85209,0.58008 1.55069,1.18829 1.55245,1.35158 0.0102,0.94159 -7.66882,1.16349 -10.07481,0.29114 z m 7.77127,-6.2521 c 0.0225,-0.54606 0.13356,-0.65714 0.2832,-0.2832 0.13541,0.33838 0.11875,0.74268 -0.037,0.89844 -0.15576,0.15576 -0.26655,-0.1211 -0.24619,-0.61524 z"
         id="path3351"
         inkscape:connector-curvature="0" />
      <path
         style="fill:#5c9730"
         d="m 374.02156,429.7899 c -1.10544,-1.29105 -1.04215,-1.40089 0.80719,-1.40089 1.04889,0 2.07523,0.40534 2.92968,1.15706 l 1.31521,1.15706 -2.12239,0.0148 c -1.55884,0.0109 -2.33675,-0.23554 -2.92969,-0.92805 z m -12.75208,0.0676 c -0.60468,-0.25072 0.86857,-0.47764 4.21875,-0.64981 5.12767,-0.26351 5.85443,-0.19762 5.18755,0.47037 -0.49523,0.49605 -8.28432,0.64463 -9.4063,0.17944 z"
         id="path3349"
         inkscape:connector-curvature="0" />
    </g>
  </g>
</svg>
