<?xml version="1.0" encoding="utf-8"?>
<!-- Generator: Adobe Illustrator 19.0.0, SVG Export Plug-In . SVG Version: 6.00 Build 0)  -->
<svg version="1.1" id="Calque_1" xmlns="http://www.w3.org/2000/svg" xmlns:xlink="http://www.w3.org/1999/xlink" x="0px" y="0px"
	 viewBox="0 0 841.9 595.3" style="enable-background:new 0 0 841.9 595.3;" xml:space="preserve">
<style type="text/css">
	.st0{fill:#62A22B;}
	.st1{fill:#619F2B;}
	.st2{fill:#DABC17;}
	.st3{fill:#DCBD17;}
	.st4{fill:#E1C116;}
	.st5{fill:#DDBE17;}
	.st6{fill:#D5B718;}
	.st7{fill:#CDB018;}
	.st8{fill:#D8BA17;}
	.st9{fill:#D2B518;}
	.st10{fill:#D9BB17;}
	.st11{fill:#C9AD19;}
	.st12{fill:#BCA21A;}
	.st13{fill:#4A3F25;}
	.st14{fill:#C5AA19;}
	.st15{fill:#5A4D24;}
	.st16{fill:#3B3427;}
	.st17{fill:#3F3726;}
	.st18{fill:#A8901C;}
	.st19{fill:#4A5F28;}
	.st20{fill:#302E29;}
	.st21{fill:#3F4426;}
	.st22{fill:#545925;}
	.st23{fill:#564E33;}
	.st24{fill:#5F5537;}
	.st25{fill:#302D29;}
	.st26{fill:#655B35;}
	.st27{fill:#5E5534;}
	.st28{fill:#494331;}
</style>
<path class="st0" d="M484,343.3c-9.1,1.1-18,4.2-27,6.7c-36.6,10.3-73.1,20.5-110.4,24.7c-19.6,2.2-39.2,3-58.8-0.3
	c-1.7-0.3-3.3-0.7-5-1.1c0-4.3,0-8.7,0-13c28.1,6.4,56.2,3.1,84.2-1.6c28.6-4.8,56.8-12.7,85-20.8c10.6-3,21.3-5.8,31.9-8.7
	C484,333.9,484,338.6,484,343.3z"/>
<path class="st1" d="M350,336.7c-1.2,2.8-2.4,5.5-6.2,5.4c-5.4,0-6.8-1.8-5.2-6.9c3.1-10,6.2-20,7.1-30.6c0.3-3.7-0.7-5.1-4.4-5.4
	c-6.3-0.6-12.6-1.1-18.5-3.7c-5.2-2.3-6.1-4.5-4.2-9.8c2.3-6.4,2.3-6.4-4.2-9c-7.8-3.1-9.9-7.8-6.9-15.7c1.7-4.6,4.7-8.4,7.2-12.5
	c2.4-4,5.2-7.6,5.8-12.5c0.4-3.5,3.4-5.7,6.5-7.2c14.3-7.3,29-8.1,44.1-2.9c8.6,2.9,11.9,10.1,13.2,18.5c0.5,3.2-1.3,5.5-3.4,7.4
	c-4.4,4-6.8,8.1-2.6,13.8c1.6,2.1,0.2,4.2-1.5,5.7c-1.7,1.6-3.6,2.9-5.3,4.5c-4.2,4-4.5,6.2-1.1,10.6c2.5,3.2,1.6,5.4-1.3,7.6
	c-3.5,2.6-7.6,3.3-11.7,3.9c-4.1,0.5-5.7,2.5-5.6,6.6c0.1,3.3-0.3,6.6-0.4,10c0.2,0.3,0.4,0.7,0.7,1c0.2,0.4,0.3,0.7,0.2,1.1
	c-0.1,0.4-0.3,0.7-0.5,1.1c-0.1,0.2-0.2,0.4-0.3,0.5c-0.2,0.4-0.4,0.7-0.8,1c-0.8,1.2-1.3,2.6-1.9,4c-0.1,2.1,0,4.2-0.1,6.4
	c0.1,0.4,0.1,0.8,0.3,1.2c0.3,0.5,0.6,1.1,0.8,1.6c0.2,0.4,0.4,0.7,0.6,1c0.2,0.3,0.3,0.7,0.4,1.1c0.2,0.4,0.3,0.7,0.3,1.1
	c0,0.4-0.2,0.8-0.4,1.1C350.3,336.4,350.2,336.5,350,336.7z"/>
<path class="st2" d="M347,330.7l0,0.1c-0.8-3.1-1-6.3,0.1-9.4c0.6-1.3,1.3-2.5,1.9-3.8c0.2-0.6,0.6-1,1-1.4l-0.1,0.1
	c0.3-0.4,0.7-0.8,1-1.1l0,0.1c0.2-0.4,0.6-0.7,1-1c8.5-5.3,16-4.6,21.5,1.7c5.1,6,5,15.1-0.2,21.1c-6.2,7-14.5,6.9-23.3-0.4
	c0,0,0.1,0.1,0.1,0.1c-0.2-0.6-0.7-1.1-1.1-1.6l0.1,0.1c-0.7-0.5-0.5-1.5-1.1-2.1l0,0.1C347.4,332.6,347.4,331.6,347,330.7z"/>
<path class="st3" d="M406,242.3c3-2.1,4-1.1,4.1,2.3c0.1,2.3-1.9,4.7,0.4,6.9c1.9,3,0,5.9-0.4,8.8c-1.6,0.8-3.1,2.2-5,1
	c-1.7-1-0.9-2.6-0.8-4c0.1-1.3,1.7-3.1-0.3-3.8c-1.8-0.6-3.9-0.7-5.4,1.2c-1.4,1.8-3,3.5-4.6,5.2c-1.1,1.2-2.5,2.2-4.2,2.3
	c-1.1,0.1-2.1-0.3-2.3-1.4c-0.2-1.2,0.6-1.7,1.8-1.7c3.3,0,4.7-2.6,6.4-4.8c-0.3-2.1-3.9,0-3.3-2.4c0.4-1.7,2.6-2.1,4.2-1.6
	c3.2,0.9,3.6-2.4,5.5-3.4c2.9,0.5,4-0.7,3.6-3.6C405.5,243,405.7,242.6,406,242.3z"/>
<path class="st4" d="M403,330.2c-6.3,3.8-10.9,4.1-13.6,0.8c-3-3.6-1.4-10.1,3.6-14.7c2.4-2.2,5.2-3.7,8.4-4
	c2.1-0.2,4.2,0.1,4.7,2.6c0.5,2.6-0.4,5-2.9,6.4c-0.5,0.3-1.4,0.3-1.8,0c-1-0.8-0.4-1.8,0-2.7c0.5-1.1,1.2-2.2-0.2-3
	c-1.1-0.6-2.3-0.1-3.3,0.6c-3.6,2.5-5.3,6-4.7,10.3c0.5,3.7,3.3,4.5,8.8,2.8C402.9,328.8,403.2,329.3,403,330.2z"/>
<path class="st5" d="M393.1,299.3c-1.4,1.1-2.6,1.4-2.1-1c0.5-2.9,1.3-5.8,1.8-8.8c0.3-1.6,1-3.4-2-3.1c-2.5,0.3-3.9-1.2-3.1-3.7
	c0.6-1.6,0.6-5.5,4.4-2.1c0.6,0.5,5.5-0.3,8.3-0.9c2.3-0.4,4.5-1.1,6.8-1.4c1.6-0.2,3.7-0.4,4.4,1.4c0.8,2-1,2.9-2.4,3.8
	c-0.4,0.2-0.8,0.4-1.2,0.6c-0.9,0.3-1.8,0-2.7-0.1c-7.2,1-8.8,6.6-10.1,12.4C394.8,297.6,394,298.4,393.1,299.3z"/>
<path class="st2" d="M409,287.1c1.7,0.2,2.7,1,2.8,2.8c0.4,6-8.4,13.6-14.1,12.3c-1.7-0.4-3-1.3-3.7-2.9c-0.6-1.2,0.3-2.2,0.6-3.2
	c1.8-3.8,4-1,6-0.5c-0.1,0-0.1-0.1-0.2-0.1c-2.3-1.2-4-2.7-3.2-5.5c0.9-3.1,3.2-4.5,6.3-4.7C405.1,286.5,407.2,286.4,409,287.1z"/>
<path class="st6" d="M426.1,251.4c0.8-1.9,2.3-2.5,4-1.7c1.5,0.7,1.9,2.2,1.8,3.8c-0.2,2.2-0.9,4.2-2.3,5.9c-1.6,1.8-3.5,3.5-6,2.7
	c-2.7-0.9-2.6-3.6-2.3-5.9c0.5-3.6,1.1-7.2,1.6-10.8c0.2-1.6,0.4-3.3,2.5-3.9c2.4,3.1-2.6,6.9,0.9,9.8c0.2,0.2,0.3,0.4,0.4,0.6
	C426.5,251.8,426.3,251.6,426.1,251.4z"/>
<path class="st7" d="M459.5,314.4c1.3,6-1,11.8-0.2,17.7c0.2,1.1-0.8,1.8-1.9,1.9c-1.1,0.1-1.5-0.7-1.4-1.6
	C456.5,326.3,457.3,320.2,459.5,314.4z"/>
<path class="st8" d="M421.8,290.4c1.1,3,0.7,5.8-1.3,8.4c-1.5,2-3.5,3.3-6,2.2c-2.6-1.1-2.6-3.6-2-5.9c0.5-2.1,1.3-4.1,3.4-5.2
	c0.4,0.2,0.7,0.4,1.1,0.7c0.9,2,1.9,2.4,2.9,0.1C420.5,290.2,421.1,290,421.8,290.4z"/>
<path class="st6" d="M416.8,327.3c0,0.3,0,0.7-0.1,1c-1,2.9-2.4,5.5-5.8,6c-1.6,0.3-3.1-0.3-3.7-1.9c-1-2.9-0.7-5.8,1.6-8.2
	c0.4-0.3,0.8-0.4,1.2-0.4c1.5,1.2,2.6,3.1,5,2.2C415.9,326.3,416.3,326.8,416.8,327.3z"/>
<path class="st9" d="M446.2,256.8c-1.2,2.6,2.1,1.8,2.5,3.3c-1.9,1.7-3.9,1.7-5.6,0c-1.9-1.8-1.7-4.3-0.6-6.4
	c0.8-1.5,1.4-4.4,4.4-2.6c0.5,1.5,0,3-0.1,4.5C446.5,256,446.3,256.4,446.2,256.8z"/>
<path class="st10" d="M445.3,328.8c-1.4,2.7,2,1.9,2.4,3.4c-1.7,1.7-3.7,1.6-5.3,0.2c-2.1-1.8-1.9-4.3-0.9-6.4
	c0.8-1.6,1.3-4.5,4.4-2.8c0.6,1.5,0,3-0.1,4.5C445.5,327.9,445.3,328.3,445.3,328.8z"/>
<path class="st11" d="M423.1,324.5c-1.2,2.2-2.2,4.4-2.3,6.9c0,1-0.4,2.1-1.6,2c-1.4-0.1-1.1-1.4-1-2.3c0.3-2.4,0.5-4.9,0.9-7.3
	c0.7-3.6,2.3-2.6,3.9-0.6c0.3,0.3,0.4,0.5,0.3,0.8C423.3,324.4,423.2,324.5,423.1,324.5z"/>
<path class="st2" d="M423.1,324.5c0-0.4,0-0.8-0.1-1.2c0.9-1,1.8-2.3,3.2-1.8c1.5,0.5,1,2.2,1,3.5c0,2.1-0.2,4.3-0.2,6.4
	c0,1.3-0.3,2.6-1.6,2.6c-1.5,0-1.5-1.5-1.3-2.7c0.2-2,0.6-3.9,0.8-5.8C424.9,324.2,423.9,324.5,423.1,324.5z"/>
<path class="st10" d="M427.8,288.5c-0.2,3.3-0.4,6.5-0.7,9.8c-0.1,1.1-0.7,1.9-1.9,1.8c-1.1,0-1.3-1-1.2-1.8
	C424.3,294.8,424.2,291.1,427.8,288.5z"/>
<path class="st10" d="M451.1,326.3c1.5-1.3,0.3-4.4,3.6-5c-0.2,3.5-0.4,6.8-0.6,10.1c-0.1,0.9-0.7,1.6-1.5,1.7
	c-1.4,0.2-1.6-1-1.6-1.9C450.9,329.5,451.1,327.9,451.1,326.3L451.1,326.3z"/>
<path class="st10" d="M431,328.5c-2.3-2.5-1-4.3,1.1-6c2.1,1.6,4.9,2.1,6.9,3.9c0.4,2,0.1,3.7-1.8,4.9c-0.4,0.3-0.8,0.3-1.3,0.2
	C434.3,330.5,432.3,330,431,328.5z"/>
<path class="st10" d="M431,295.5c-2.3-2.5-1-4.3,1.1-6c2.1,1.6,4.9,2.1,6.9,3.9c0.4,2,0.1,3.7-1.8,4.9c-0.4,0.3-0.8,0.4-1.3,0.2
	C434.3,297.5,432.3,297,431,295.5z"/>
<path class="st3" d="M437.1,252.4c-0.6,2-1.1,4.1-1.7,6.1c-0.3,1,0,2.7-1.7,2.4c-1.5-0.3-1.1-2-0.8-2.9c0.9-2.6-1.2-6.4,3.1-7.6
	C436.9,250.9,437.9,251.2,437.1,252.4z"/>
<path class="st3" d="M412.8,251.2c0.5-0.8,1.2-1.3,2.2-0.7c0.8,0.4,1.8,0.7,1.1,1.9c-0.5,2-1.2,4-1.6,6c-0.3,1.5-0.4,3-2.4,2.8
	C409.8,257.7,410.5,254.4,412.8,251.2z"/>
<path class="st12" d="M423.9,269.6c1.8-0.7,1.1-3.1,2.9-3.9c1.8,3,0.1,6-0.3,8.9c-0.5,3.4-2.2,0.8-3.3,0.1c0.7-1.3,0.1-2.6,0.1-3.9
	C423.4,270.3,423.6,269.9,423.9,269.6z"/>
<path class="st13" d="M406.1,243.6c2.1,2,0.4,3.9-0.2,5.7c-0.4,1.4-1.9,1-2.9,0.8c-2.1-0.4-0.2-2.2-1-3.2c0.2-0.6,0.5-1.1,0.7-1.7
	c0.6-0.6,1.7-0.4,2.2-1.1l-0.1,0.1C405.1,243.7,405.5,243.5,406.1,243.6z"/>
<path class="st13" d="M412.8,251.2c-0.1,3.4-1.4,6.6-0.8,10c-0.6-0.3-1.3-0.6-1.9-0.9c-1.8-3-1.3-5.9,0.4-8.8
	C411.3,251.4,412,251.3,412.8,251.2z"/>
<path class="st14" d="M410.3,324.4c-0.5-0.1-0.9-0.1-1.4-0.2c1.4-2.2,3.8-3.3,5.9-2.6c2.2,0.8,2.3,3.4,2,5.6c-0.6,0-1.1,0-1.7,0
	C413.1,327.1,411.5,326.1,410.3,324.4z"/>
<path class="st15" d="M438.9,293.5c-2.4-1.1-6.6,0.9-6.9-3.9c0.5-0.8,1.1-1.2,2-1.2c1.4,1,4,0.4,4,3.1
	C438.3,292.1,438.6,292.8,438.9,293.5z"/>
<path class="st15" d="M438.9,326.5c-2.4-1.1-6.6,0.9-6.9-3.9c0.5-0.8,1.1-1.2,2-1.2c1.4,1,4,0.4,4,3.1
	C438.3,325.1,438.6,325.8,438.9,326.5z"/>
<path class="st14" d="M451.1,326.3C451.1,326.3,451.1,326.3,451.1,326.3c-2.7-0.9-3.4,2.8-5.9,2.5c-0.1-0.3-0.2-0.7-0.3-1
	c-0.3-1.6,1.5-2.8,0.7-4.4c-0.1-1.8,1-2.1,2.5-2c1.3,0.1,2,0.7,2.2,2C450.6,324.3,449.8,325.6,451.1,326.3z"/>
<path class="st11" d="M437.1,252.4c-0.4-0.6-0.7-1.3-1.1-1.9c1.6,0.7,3.5-3,4.9,0.1c0.6,1.4,0.8,3.5-0.9,4.4
	C437.7,256.1,439.4,251.8,437.1,252.4z"/>
<path class="st11" d="M416.1,252.4c-0.4-0.6-0.7-1.3-1.1-1.9c1.6,0.7,3.5-3,4.9,0.1c0.6,1.4,0.8,3.5-0.9,4.4
	C416.7,256.1,418.4,251.8,416.1,252.4z"/>
<path class="st7" d="M446.2,256.8c-0.1-0.4-0.1-0.7-0.2-1.1c-0.4-1.6,1.5-2.8,0.7-4.5c0.1-2.8,2.1-2.2,3.5-1.7
	c1.5,0.6,1.4,2.1,0.8,3.4C450.2,255.1,448.4,256.2,446.2,256.8z"/>
<path class="st13" d="M431,328.5c1.6,1,5.9-2.8,5,2.7c-0.1,0.6-0.7,0.7-1,1.1l0.1-0.1c-0.4,0.4-1,0.5-1.5,0.5
	c-2.1-0.3-4.1-0.7-2.5-3.6C431,329,430.9,328.8,431,328.5z"/>
<path class="st13" d="M431,295.5c1.6,1,5.9-2.8,5,2.7c-0.1,0.6-0.7,0.7-1,1.1l0.1-0.1c-0.4,0.4-1,0.5-1.5,0.5
	c-2.1-0.3-4.1-0.7-2.5-3.6C431,296,430.9,295.8,431,295.5z"/>
<path class="st13" d="M423.9,270c1.7,1.8,1.2,3.3-0.7,4.5c-1-0.4-2-0.9-3.1-1.3c-1.2-0.3-1.7-0.9-1.1-2.1l-0.1,0.2
	c0.6-0.6,0.5-1.5,1.1-2.2l-0.1,0.1c0.5-0.5,1.2-0.5,1.8-0.4C422.5,269.2,422.8,270.3,423.9,270z"/>
<path class="st16" d="M409,287.1c-1.7,0.3-3.3,2.1-5.1,0.3c-0.8-1.2-0.7-2.3,0.5-3.2c0.4-0.2,0.9-0.4,1.4-0.5
	c0.4-0.2,0.9-0.2,1.4-0.3c0.6,0.3,1.4,0.3,1.9,0.9C409,285.3,409,286.2,409,287.1z"/>
<path class="st17" d="M445.7,323.3c1.5-1.2,2.2-0.6,1.9,1c-0.2,1.5-1.4,2.5-2.6,3.4c-2.3-2-0.4-3.3,0.9-4.6
	C445.9,323.1,445.7,323.3,445.7,323.3z"/>
<path class="st17" d="M446.7,251.2c1.5-1.3,2.2-0.7,1.9,1c-0.2,1.6-1.4,2.6-2.7,3.5c-2.3-2-0.4-3.3,0.9-4.6
	C446.9,251.1,446.7,251.2,446.7,251.2z"/>
<path class="st14" d="M416,291.3c0-0.5,0-0.9-0.1-1.4c2-0.4,4.2-3.7,5.8,0.5c-0.3,0.4-0.7,0.9-1,1.3
	C419,293.1,417.4,293.3,416,291.3z"/>
<path class="st6" d="M419,271.2c0.4,0.7,0.8,1.4,1.1,2.1c0.1,0.9,0.7,2,0.3,2.6c-0.5,0.8-1.6,0.2-2-0.5
	C417.8,274,416.8,272.3,419,271.2z"/>
<path class="st7" d="M431,296.2c0.4,1.6,0.8,3.2,3,3.2c0.3,0.2,0.4,0.4,0.3,0.5c-0.1,0.2-0.2,0.3-0.3,0.3c-1.9,0.4-3.8,0.2-4.7-1.6
	C428.6,297.2,430,296.7,431,296.2z"/>
<path class="st7" d="M431,329.2c0.4,1.6,0.8,3.2,3,3.2c0.3,0.2,0.4,0.4,0.3,0.5c-0.1,0.2-0.2,0.3-0.3,0.3c-1.9,0.4-3.7,0.2-4.7-1.6
	C428.6,330.2,430,329.7,431,329.2z"/>
<path class="st9" d="M438,324.4c-1.3-1-2.7-2.1-4-3.1C435.5,322.2,440.2,318.9,438,324.4z"/>
<path class="st9" d="M438,291.4c-1.3-1-2.7-2.1-4-3.1C435.5,289.2,440.2,285.9,438,291.4z"/>
<path class="st12" d="M455.8,317.5c0,0.9-0.5,1.6-1.4,1.6c-0.8,0-1.2-0.7-1.1-1.3c0.1-0.5,0.7-1.2,1.2-1.4
	C455.2,316.3,455.7,316.8,455.8,317.5z"/>
<path class="st12" d="M426.9,286c-0.4-0.1-0.8-0.7-0.5-1.4c0.2-0.5,0.8-1.2,1.3-1.2c0.9,0,1.4,0.7,1.1,1.7
	C428.5,285.8,428.1,286.3,426.9,286z"/>
<path class="st14" d="M403,330.2c-0.3-0.3-0.7-0.6-1-1c0.9-0.7,1.8-2.5,3-1.3C405.6,328.7,404.1,329.8,403,330.2z"/>
<path class="st16" d="M395,296.3c-0.3,1-0.7,2-1,3c-0.3,0-0.6,0-0.9,0c0.3-1,0.5-2,0.8-3.1C394.2,295.9,394.6,295.9,395,296.3z"/>
<path class="st10" d="M423.9,270c-0.4,0.5-0.9,0.9-1.3,1.4c-0.3-0.7-0.5-1.4-0.8-2.1c0.4-0.6,0.8-0.6,1.3-0.1
	c0.3,0.1,0.6,0.2,0.8,0.3C423.9,269.6,423.9,270,423.9,270z"/>
<path class="st6" d="M423.1,269.2c-0.4,0-0.9,0.1-1.3,0.1c-0.6,0-1.3-0.1-1.9-0.1C421,268.2,422,267.6,423.1,269.2z"/>
<path class="st11" d="M406.1,243.6c-0.4,0.2-0.8,0.4-1.2,0.6c-0.8-1.3,0.4-1.5,1.1-1.9C406,242.8,406.1,243.2,406.1,243.6z"/>
<path class="st6" d="M420,269.2c0.5,1.2-0.2,1.7-1.1,2.2C418.4,270.2,419.2,269.7,420,269.2z"/>
<path class="st12" d="M435,299.4c0.3-0.4,0.7-0.7,1-1.1c0.4,0,0.8,0.1,1.2,0.1C436.7,299.3,436,299.6,435,299.4z"/>
<path class="st11" d="M405,244.2c-0.2,1.4-1.3,1.2-2.2,1.1C403.4,244.8,403.7,243.4,405,244.2z"/>
<path class="st12" d="M435,332.4c0.3-0.4,0.7-0.7,1-1.1c0.4,0,0.8,0.1,1.2,0.1C436.7,332.3,436,332.6,435,332.4z"/>
<path class="st18" d="M409,284.3c-0.7,0-1.4,0-2,0c-0.3-0.4-0.3-0.8-0.1-1.2c0.4-0.2,0.8-0.2,1.2,0.2c0.4,0.1,0.8,0.2,1.2,0.2
	C409.2,283.8,409.2,284.1,409,284.3z"/>
<path class="st12" d="M434,333.2c0-0.3,0-0.5,0-0.8c0.4,0,0.7-0.1,1.1-0.1C435.1,333,434.6,333.2,434,333.2z"/>
<path class="st19" d="M352,314.3c-0.3,0.3-0.6,0.7-1,1c0-0.4,0.1-0.8,0.1-1.2C351.4,314.2,351.7,314.2,352,314.3z"/>
<path class="st12" d="M434,300.2c0-0.3,0-0.5,0-0.8c0.4,0,0.7-0.1,1.1-0.1C435.1,300,434.6,300.2,434,300.2z"/>
<path class="st20" d="M346.6,278.4c-3-3.7-5-7.4-8.3-9.9c-1.2-0.9-2.5-1.7-3.8-2.4c-1.3-0.6-3-1.7-4-0.1c-0.8,1.4,0.8,2.4,1.7,3.2
	c5.6,5.2,10.3,10.9,12.3,18.4c1.5,5.9,0.8,6.8-5.1,6.7c-4.5-0.1-9,0-13.3-1.6c-2.7-1-4.3-2.5-2.5-5.6c0.6-1.1,1-2.4,1.5-3.7
	c2.2-6.3,1-8.4-5.5-9.9c-8.8-2.1-10.7-4.8-6.7-12.9c4.9-9.8,10.6-19.3,16.7-28.4c2.4-3.6,7.8-5,11.7-3.2c5.6,2.5,10.9,2.3,16.6,1.6
	c6.3-0.7,12.6-1.1,18.2,3.2c4.9,3.8,5.6,7.2,1.7,12.3c-1.8,2.4-3.9,4.5-5.8,6.8c-2.4,3-3.5,5.9-0.6,9.4c2.7,3.2,2.8,6.1-1.2,8.7
	c-2.3,1.5-4,3.9-5.9,6c-2.6,2.8-3.1,5.7-0.2,8.8c2.6,2.9,1.5,4.9-1.8,5.9c-11.3,3.4-11.3,3.1-10.7-7.7c0.6-11.3,5.8-21,11-30.8
	c1.1-2,4.6-4.8,1.6-6.7c-2.8-1.8-4.2,2.4-5.7,4.3c-2.2,2.9-3.9,6.2-5.8,9.3c-2.1,3.5-4.2,3.7-6.9,0.6c-2.3-2.6-2-5.8-2.5-8.9
	c-0.5-3,0.4-8.2-4.1-7.6c-3.5,0.4-1.5,5-1.4,7.8c0.2,5.3,2.7,9.5,6.3,13.2C347.2,268.9,348,273,346.6,278.4z"/>
<path class="st21" d="M347.1,321.4c0,3.1,0,6.3-0.1,9.4C345.4,327.7,345.5,324.5,347.1,321.4z"/>
<path class="st22" d="M348,333.2c0.8,0.4,1.1,1.2,1.1,2.1C348.2,334.9,348.1,334.1,348,333.2z"/>
<path class="st22" d="M347,330.7c1,0.6,1,1.6,1,2.6C347.2,332.7,347.1,331.7,347,330.7z"/>
<path class="st22" d="M349,335.2c0.4,0.5,0.7,1,1.1,1.6C349.7,336.2,349.4,335.7,349,335.2z"/>
<path class="st19" d="M350.1,316.3c-0.3,0.5-0.7,0.9-1,1.4C349.4,317.2,349.7,316.7,350.1,316.3z"/>
<path class="st19" d="M351.1,315.3c-0.3,0.4-0.7,0.7-1,1.1C350.4,316,350.7,315.6,351.1,315.3z"/>
<path class="st23" d="M373.4,330.4c-2.8,7.2-8.7,10.2-15.2,8c-6.8-2.4-9.7-9.4-7.1-17.1c1-0.4,1.9-0.5,2.8,0.3
	c1.3,1.5,0.6,3.3,0.7,4.9c0.1,4.1,1.8,6.7,5.7,7.8c3.8,1,6.4-0.7,8.4-3.8c0.7-1.1,0.9-2.6,2.5-2.8
	C372.9,327.8,373,329.2,373.4,330.4z"/>
<path class="st24" d="M373.4,330.4c-0.7-0.7-1.5-1.4-2.2-2.1c-1.7-0.3-1.7-1.9-1.9-3c-1.5-6.7-7.3-8.8-12.4-4.4
	c-0.9,0.8-1.7,2.1-3.3,1.5c-0.8-0.4-1.6-0.7-2.4-1.1c2.6-7,8.4-7.2,14.3-6.6c4.8,0.5,7.1,4.3,8.3,8.7c-0.3,1.9-0.4,3.9,0,5.8
	C373.6,329.6,373.5,330,373.4,330.4z"/>
<path class="st16" d="M373.8,329.2c-1-1.9-0.9-3.9,0-5.8C373.7,325.3,373.7,327.3,373.8,329.2z"/>
<path class="st25" d="M407.2,283.4c-0.1,0.3-0.2,0.6-0.2,1c0,0,0.1-0.1,0.1-0.1c-0.4,0.4-0.8,0.8-1.4,1.1c-0.6,0.7-1.1,1.4-1.7,2.1
	c-2-0.5-3.1,0.7-4.1,2c-0.6,0.8-1.1,1.7-0.4,2.7c0.7,1.2,1.8,1.2,3,0.8c1.8-0.6,3.4-2.2,5.6-1.7c0.3,0.3,0.6,0.7,0.8,1.1
	c-0.3,2.9-2.4,4.6-4.7,5.9c-2.5,1.5-5.1,1.8-6.6-1.3c-0.7-1.5-1.4-1.6-2.5-0.6c-0.4,0-0.8,0-1.1,0c1.7-13-0.4-9.9,12-14.5
	C406.5,282.1,407,282.6,407.2,283.4z"/>
<path class="st16" d="M407.2,283.4c-0.5-0.5-0.9-1.1-1.4-1.6c1.6-0.8,2.6-0.6,2.2,1.5C407.8,283.3,407.5,283.3,407.2,283.4z"/>
<path class="st16" d="M408.8,292.3c-0.3-0.4-0.5-0.7-0.8-1.1C408.7,291.3,408.9,291.7,408.8,292.3z"/>
<path class="st17" d="M426.1,251.4c1.7,0.1,4.1-0.5,3.5,2.5c-0.5,2.3-1.4,4.7-4.1,5.1c-2,0.3-1.9-1.7-1.5-2.8
	c0.5-1.7,1.4-3.3,2.2-4.9C426.2,251.3,426.1,251.4,426.1,251.4z"/>
<path class="st17" d="M416,291.3c1.6,0.1,3.2,0.3,4.7,0.4c0,0.2,0,0.3,0,0.5c0,2.4-0.5,4.6-2.8,5.8c-0.8,0.4-1.6,0-2.1-0.7
	C414.2,295.2,415.3,293.2,416,291.3z"/>
<path class="st16" d="M410.3,324.4c2.2-0.1,5-1.1,4.8,2.9c-0.9,1.7-1.5,4.5-3.8,3.6C408.3,329.7,409.8,326.7,410.3,324.4z"/>
<path class="st18" d="M405.7,285.3c0.5-0.4,0.9-0.7,1.4-1.1C407,285.1,406.4,285.3,405.7,285.3z"/>
<path class="st8" d="M353.6,322.4c2.5-4.4,6.3-6.5,11.1-5c5.2,1.6,6.8,5.8,6.5,10.9c-1.9,4.8-7.3,9.2-10.4,8.6
	c-5.1-1.1-8.4-7.1-7.5-13.5C353.3,323,353.5,322.7,353.6,322.4z"/>
<path class="st26" d="M364.1,332.5c-2.4,1.5-4.3,0.4-6.1-1.3c0-0.7,0.1-1.3,0.4-1.9c0.3-0.3,0.6-0.6,1-0.9c0.5-0.4,1.1-0.9,1.7-1.2
	c1.8-0.5,3.5-1.9,5.5-0.9C369.1,329.9,365.3,330.6,364.1,332.5z"/>
<path class="st27" d="M364.1,332.5c0.5-1.8,3.1-3,1.5-5.4c-0.7-0.6-0.9-1.4-0.7-2.3c0.4-1.1,0.9-2,2.3-2.1
	C369.4,327.1,368.7,330.4,364.1,332.5z"/>
<path class="st26" d="M367.2,322.8c-0.6,0.9-1.1,1.7-1.7,2.6c-2.3,0.9-3.8,0.1-4.4-2.3c0.1-1.3,1-1.9,2.1-2.3
	c0.8-0.1,1.6,0.1,2.4,0.4C366.5,321.4,366.9,322,367.2,322.8z"/>
<path class="st28" d="M357.1,330.3c-1.5-1.8-1.4-3.8-1-5.9c1.6-0.7,2.4,0.5,3.3,1.4c1.2,1.1,1.2,2.2,0.4,3.5
	C359,329.8,358.3,330.7,357.1,330.3z"/>
<path class="st23" d="M358,326.3c-0.6-0.7-1.2-1.3-1.8-2c0.3-1.6,1.2-2.7,2.7-3.3c1.4,0.6,1.5,1.9,1.5,3.2
	C360.1,325.5,359.7,326.6,358,326.3z"/>
<path class="st23" d="M363.1,321.4c-0.4,0.5-0.7,0.9-1.1,1.4c-0.3,1.2-1.1,1.1-2,0.8c-0.7-1.1-0.7-2.2,0-3.2
	c0.6-0.1,1.3-0.1,1.9-0.2C362.3,320.6,363,320.7,363.1,321.4z"/>
<path class="st28" d="M360,320.4c0,1,0,1.9,0,2.9c0.3,1-0.1,1.3-1,1c0-1.1-0.1-2.2-0.1-3.3C359.2,320.8,359.6,320.6,360,320.4z"/>
<path class="st27" d="M357.1,330.3c0.6-0.3,1.3-0.6,1.9-1c0,0.2,0.1,0.4,0.1,0.7c-0.4,0.4-0.8,0.9-1.2,1.3
	C357.7,330.9,357.4,330.6,357.1,330.3z"/>
<path class="st28" d="M363.1,321.4c-0.4-0.4-0.7-0.8-1.1-1.2c1.4-0.1,2.7,0,3.7,1.1C364.7,321.3,363.9,321.3,363.1,321.4z"/>
<path class="st4" d="M359.2,329.9c0-0.2,0-0.5-0.1-0.7c-0.4-1-0.7-2-1.1-3c0.3-0.7,0.7-1.3,1-2c0.3-0.3,0.7-0.7,1-1
	c0.7-0.2,1.3-0.3,2-0.5c1.5,0.4,2.7,1.3,3.5,2.7c0,0.6,0.1,1.2,0.1,1.8c-0.5,1.8-2.3,2.2-3.6,3.1c-0.7,0.7-1.4-0.1-2.1-0.1
	C359.7,330,359.4,330,359.2,329.9z"/>
<path class="st27" d="M359.9,330.1c0.7,0,1.4,0.1,2.1,0.1C361.3,330.6,360.6,330.6,359.9,330.1z"/>
</svg>
