<?xml version="1.0" encoding="utf-8"?>
<!-- Generator: Adobe Illustrator 19.0.0, SVG Export Plug-In . SVG Version: 6.00 Build 0)  -->
<svg version="1.1" id="Calque_1" xmlns="http://www.w3.org/2000/svg" xmlns:xlink="http://www.w3.org/1999/xlink" x="0px" y="0px"
	 viewBox="0 0 340.2 267.8" style="height: 120px;max-height: 250px;" xml:space="preserve" >
<style type="text/css">
	.stabc{fill:#484848;}
</style>
<g>
	<path class="stabc" d="M326.1,239.8c-2.1-0.2-2.8,1.5-4.5,1.9c-6.1,1.4-12.5,1.5-18.6,3.3c-5.7,1.7-11.8,1.7-17.7,3.4
		c-4.1,1.2-8.8,1.1-13.2,1.6c-8.8,1-17.5,3.1-26.3,4.2c-4.4,0.5-9.2,0.2-13.1,1.7c-4.3,1.6-8.5,0.4-12.4,1.6
		c-5,1.6-10.3,0.4-14.9,1.9c-5.1,1.7-10.4,0-14.9,1.7c-5.5,2.1-11.3,0.2-16.5,2.2c-5.3,2.1-11-0.3-16,1.2
		c-7.9,2.3-15.9,0.3-23.6,1.8c-16,3-32,1.1-48,1.5c-15.9,0.4-31.9-0.1-47.8,0.2c-4.3,0.1-7.9-2.4-12.3-2c-4.1,0.4-8.5,1.3-12.3-1.5
		c-0.4-0.3-1.1,0-1.7,0c-2.3,0-4.6,0-7,0c-1.9-0.1-3.1-2.6-5.4-1.7c0-7.5,0-15.1,0-22.6c3.5-0.9,6.2,2.1,9.7,1.8
		c3-0.2,6.2-1,8.9,1.6c0.4,0.4,1.7,0.1,2.5,0c10.3-1.2,20.3,2.4,30.6,1.9c10.4-0.5,20.8-0.1,31.3-0.1c10.1,0,20.3,0.2,30.4-0.1
		c12.2-0.3,24.4-2.6,36.6-1.7c5.6-2.5,11.7-1.2,17.5-1.9c3.2-0.4,6.3-1.6,9.7-1.7c3.2-0.1,6.4,0.8,9.9-1.3c2.5-1.6,7.1,0.6,10.2-0.5
		c4.4-1.6,9-0.6,13.2-1.7c4.4-1.2,8.9-0.7,13.2-1.7c7.9-1.8,16-1.6,23.7-3.6c4.4-1.1,9.3,0,12.9-2.2c3.9-2.4,8.1,0.4,12.2-2.4
		c2.7-1.9,7.5-1.3,11.2-1.7c8.3-1,16.6-2.1,24.5-4.1c10.6-2.6,21.7-2.5,31.9-6.7"/>
	<path class="stabc" d="M114.7,196.4c0,2.6,0,5.2,0,7.8c-1.4,1.4-2.9,2.9-4.3,4.3c-7.9,0.1-12.2-1-16.7-4.4c2.6-6.4,4.1-13.2,6.4-19.8
		c2.3-6.6,2.7-13.8,6-20.1c-1.2-4.9,2.2-9.2,1.8-14.1c-0.2-3-0.5-5.9,1.4-9c1.1-1.7,1-5.1-2.7-7.3c-6.8,1.2-14-2.1-21.6-1.8
		c-2.9,0.1-19.2-5.4-21.4-6.9c-3.7-2.4-5.1-8.1-3.3-12.4c1.6-4,3.1-8,4.8-12.3c-6.4-5.5-14.7-6.2-21.3-10.8c-1.1-2-1.3-4.9-3.5-6.8
		c-1.7-10.9,3.3-19.7,8.8-28.3c5.1-8,10.1-16.1,15.4-24.4c0-2.5,0-5.4,0-8.3c7.4-8.3,10.6-11.6,17.5-13.9c8-2.6,15.7-5.7,24.4-6.5
		c6.7-0.6,13.4-1.6,20.2-1.2c9.3,0.5,18.7,2.1,27.3,5.4c10.3,4,16.9,12.3,20.3,23.2c1.7,5.3,1.2,10.5,1.6,15.5
		C171,49.6,165,53.3,162,59.6c-0.9,5.9-0.3,11.2,4.3,15.5c1.6,1.5,0.4,3.8,0.6,5.5c-5.2,7.6-15.4,10.1-19,20.3c0,1.2,0,3.5,0,6.1
		c2.1,1.9,4.4,4.1,6.7,6.1c0,2,0,3.7,0,7.1c0.2-0.1-1,0.3-1.9,1c-2.7,2-4.2,5.2-7.9,6.2c-3.9,1-7.7,3.1-11.8,2.9
		c-3.7-0.1-6.7,2.8-10.6,2.1c-0.6-0.1-1.6,1.5-2.2,2.1c0,8.5,0,16.8,0,25.8c5.6-5.3,11.9-7.5,19-7.2c5.7,0.2,13.1,5.3,17.6,9.6
		c5.7,5.5,6.9,11.8,6.6,19.1c-0.1,2.9,0,5.8,0,7.3c-3.6,10-9.7,15.9-19.4,19.6C129.4,208.8,127.4,209.4,114.7,196.4
		c-0.3-1.3,0.9-3.3-1.7-3.5c-0.3-1.3,0.9-3.3-1.7-3.5c0-5.2,0-10.4,0.1-15.8c1.7-2.1,1.7-2.1,0.1-5c0,2,0,3.6-0.1,5
		c-0.6,0.3-1.5,0.5-1.5,0.7c-0.1,4.8-0.1,9.6,0,14.4c0,0.2,0.9,0.4,1.4,0.6c0.3,1.3-0.9,3.3,1.7,3.5
		C113.3,194.2,112.1,196.3,114.7,196.4z M111,84.3c-1-5.3-4.2-7.1-5.9-9.9c-2.5-4.2-6.3-7.2-8.1-12.3c-2.7-7.9-3.5-15.6-3-23.3
		c1.5-1.2,2.1-2.8,4-2.4c2.1,2.1,5.3,3.5,4.5,7.4c3.5,4,1.3,8.8,1.7,13.2c0.6,7.4,5.6,13,13.3,14.1c0.8-1.1,1.8-2.1,2.4-3.3
		c2.7-5.3,4.8-10.9,8.7-15.5c3.9-4.7,6-11.1,13-12.6c2.8,4,0.1,7.2-1.4,10.2c-5.6,11-12.2,21.5-16,33.4c-3.2,10.3-6.7,20.4-6,31.4
		c0.1,2,0,4,0,6.1c2.1,0.7,1,3.8,3.3,4.3c6.9-3.1,15.4-1.7,21.1-7.8c0-1.8,0-3.5,0-6.2c-1.5-1.2-3.4-2.8-5-4.1
		c-1.1-6.1,1-10.4,5-14.1c3.6-3.4,7.1-6.9,10.4-10.5c1-1.1,3-0.1,3.4-1.7c0-2.5,0-4.8,0-7.1c-3.2-2.2-3.7-6.4-6.8-8.4
		c0.1-2.8,1.3-8.5,2.4-9.5c6.7-5.8,10.9-13.5,16.4-20.2c0-3,0-6.1,0-8.3c-4.8-7.4-12-10-17.2-12.6c-13.1-2.8-24.5,1.5-36.2,1
		c-3.9-0.2-7.5-0.5-11.1-2.8c-2.9-1.9-6.6-5-10.5-1.1c-5-0.5-8.7,2.7-13,4.3c-0.1,0.5-0.1,1.1-0.4,1.6c-6.9,12-13,24.4-21.1,35.6
		c-6.4,8.8-11,18.3-10.1,29.7c4.5,2.6,8.5,5.6,14.2,5.9c4.5,0.2,9.3,1.6,10.9,4.8c2.2,7.7-0.6,13.2-2.9,18.3
		c-1.4,2.9-1.2,5.1-1.4,7.7c12.3,7.8,25.4,4.8,37.5,5.5c2.1-6.5,0.3-12.4-2-17c-5.1-10.2-10.4-20.7-21.1-26.8
		c-2.3-1.3-3.5-3.7-1.3-7c14.5,2.1,21.3,13.1,28.3,25.8C111,93.2,111,87.8,111,84.3z M143.7,159.8c-20.4-2.3-29.5,9.7-27.4,24.4
		c3.4,10.8,8.8,16.2,19,19.4c9.9,1,17.4-5.6,22.8-14.9c0-5,0-9.6,0-13.1C155,168.4,151.8,162.7,143.7,159.8z"/>
	<path class="stabc" d="M220.9,177.3c-0.1-1.5-0.1-2-0.1-2.6c2.9-1.4,5.7-3.6,9.6-2.4c3.3,3.4,2.5,7.9,2.6,12.3
		c-1.3,4.3-4.7,6.9-7.6,9.9c-2.5,0-5.1,0-6.8,0c-5.3-2-0.8-7.8-5.8-10c-2.9,2.9-6.2,5.6-10.8,7c-4.5,1.4-8.8,1.1-13.3,1.5
		c-2-2.1-4-4.1-6.1-6.2c0-3.9,0-8,0-12c7.3-11.4,7.3-11.4,18.5-18.4c4,1.1,9-2.1,12.7,2.6c0,2.7,0,5.6,0,8.9c-2.2,1.8-4,4.8-7.1,6.3
		c-4-4.3,1.3-8,0.1-11.8c-11.3-0.7-18.2,11.2-13.5,23.1c5,3.6,9.4,2.5,14.4-0.6c1.7-1.1,3.8-4,6.8-1.8
		C215.9,180,216.7,176.6,220.9,177.3c0.1,3.4,0.1,6.8,0.1,9.9c1.3,1,2,2.6,4.1,2.1c3.5-3.1,5.3-7,3.8-12.1
		C226,177.3,223.4,177.3,220.9,177.3z"/>
	<path class="stabc" d="M213.8,36.5c0-0.9,0-1.7,0-2.6c2-2,4.3-0.1,6.5-1.1c1.4,7.1-0.9,14.1,1.6,20.7c-0.6,0.2-1.6,0.6-2.6,0.9
		c-1.8,4.3,1.1,8.1,1.6,12.5c-3.4,0.9-6.3,5.3-10.5,0c-0.2-3.8-0.9-8.2,2.4-12.7c-3.5,0-6,0-8.9,0c-4.7,4.8-9.8,9.9-14.9,15.1
		c-2.6,0-5.2,0-7.7,0c-1.3-1.2-0.4-2.8-0.8-4.5c3-1,6.5-0.1,9.5-2.1c3-2,3-6.1,6.3-7.7c-1.9-2.6-5.1,0.3-6.9-1.9
		c-0.5-2.2,1.3-2.9,2.4-4.2c9.6-0.3,10.8-0.7,15-5.4c0,1.6,0,3.2,0,5c2.4,0,4.3,0,6.3,0c0.5-1.1,1.4-2.2,1.6-3.4
		C215.4,42.1,217.2,39,213.8,36.5z"/>
	<path class="stabc" d="M194.8,109.9c0.4,9.1-4.3,16.9-3.6,25.4c-1.2,0.1-1.7,0.2-2.9,0.4c-2.1-8.3,2.2-15.9,3-24.1
		c-2.9,0-5.4,0-7.7,0c-4-5.2-3.8-6.3,2.1-12.5c2.4,0,3,2.4,4.7,3.5c1.5-1.7,3.1-3.3,5.3-5.7c0.9,1.6,1.7,3.1,2.2,4
		c8.5-1.9,15.9-4.2,23.8-3.5c1.7,1.4,3.4,3,2.5,5.9c-1.7,1.6-2.8,4-5.4,4.6c-2.6-1-0.9-3.1-1.8-5.2
		C209.2,102.9,202.7,107.8,194.8,109.9z"/>
	<path class="stabc" d="M202.4,133.7c8.7,0.9,12-5.5,16.5-9.3c0-1.5,0-2.7,0-3.8c-0.6-0.3-1-0.6-1.5-0.7c-3.2-0.7-6,0.9-8.5,2.4
		c-3.2,1.9-5.3,1.1-8-2.9c-0.6-1,3.7-1.6,2.4-4.1c1-0.4,2.1-0.6,3-1.1c0.7-0.4,1.3-1,1.6-1.3c1.8-0.3,2.3,1,3.6,1.9
		c2.8-2.5,6.5-2,10.1-2c3.1,2.5,3.2,5.2,1.6,8.9c-3.1,7.6-8.7,12.7-15.5,17c-3.3,0-6.7,0-10.4,0c-1.5-1.4-3.1-2.9-4.7-4.4
		c1.5-2.7,1.9-5.6,4.8-7.8C198.1,130,200.5,131.7,202.4,133.7z"/>
	<path class="stabc" d="M250.3,50.4c0.1-0.9,0.1-1.8,0.1-2.7c1.6-1.7,4.2-1.3,8.7,1.5c0,1.4,0,3,0,4.7c0,1.4,0,2.8,0,4.3
		c-1,3.6-4.9,5.3-5.6,9c-3.4,2.5-7.2,2.5-11.1,2.1c-0.6-0.6-1.2-1.2-2.5-2.5c0.8-5.1-1.5-11,1.8-16.5c-1.1-4.6,1.4-8.7,1.8-13.1
		c0.2-2,0.3-2,4.3-4.4c3.1,5.8-1.8,11.3-0.9,16.6C248,50.9,249.3,50.1,250.3,50.4c-2,1.7-4.1,3.5-6.2,5.2c0.5,0.4,0.9,0.7,1.4,1.1
		c0,2.5,0,4.9,0,7.5c1.5,0,2.6,0,4,0c3-2.8,6.3-5.7,6.1-10.7C254.6,51.8,253.5,50.1,250.3,50.4z"/>
	<path class="stabc" d="M288,172.9c4.3,0.9,4.4,3.6,3.9,7.5c2.9-3.7,1.1-8.8,6.8-8.3c1.7,6.9-3.1,13.4-1.2,20.5c-2,0-3.3,0-5,0
		c-1.2-0.5,0.3-2.9-2-3.3c-2.1-0.2-2.7,2.3-4.5,3.4c-2.9,0-6,0-8.9,0c-4.6-3.8-1.4-8.7-2.5-12.4c1.4-2.3,2.5-4.2,3.7-6.2
		C282.3,174.2,285.6,170.9,288,172.9c-4.2,1.5-7.8,3.9-8,5.5c-0.1,1.3-1.4,3.6,1.7,4.2c2.2-0.9,3.6-3,5.2-4.8
		C286.8,176.6,286.8,175.5,288,172.9z M284.1,189.3c7.9-3.6,7.9-3.6,6.9-9c-3.8,2.3-7,5.3-11.2,6.4
		C280.9,188.3,283.4,187.3,284.1,189.3z"/>
	<path class="stabc" d="M235.3,194.7c-1.9-6.8,0.4-13.2,1.5-20.3c0.7-0.8,1.6-2.2,2.3-2.4c3.6,0.1,1.7,2.7,3.3,3.3
		c2.3-1,3.3-5.2,6.6-2.9c1.2,0.7,2.4,1.5,3.8,2.3c-3.6,6.5-1.9,13.1-2.5,19.2c-1.6,1-3,0.5-4.6,0.5c-1.8-5.7,0.2-11.3,1.9-18.2
		c-5.5,4.3-8,8-7.7,13.5C240,192.6,239.6,192.6,235.3,194.7z"/>
	<path class="stabc" d="M243.9,124.4c-2.8,4.5-3.9,9.5-8.4,12.8c-2.8,0-5.9,0-8.8,0c-2.8-3.5-2.7-7.4-2.3-10.6
		c1.8-3.4,3.2-6.3,4.9-9.6c2.9-0.1,5.6-1.3,8-2.4C243.1,115.9,241,121.5,243.9,124.4z M232,132c8,1.3,5.1-6.4,8.3-9
		c-5-4-5.5-4-10.6-0.7c0,2.4,0,4.9,0,7.5c0.6,0.6,1.2,1.2,1.8,1.8C231.7,131.7,231.9,131.9,232,132z"/>
	<path class="stabc" d="M289.9,47.7c2.9,1,5.2,2,3.6,4.8c-2.7,4.4-6.8,7.3-12,9c1,2,4.1-0.1,3.8,3.4c2.1-3.1,4.3-2.1,6.7-1.4
		c-1.6,1.1-3.1,2.2-5.7,4.1c-1.5,0-4.6,0-7.6,0c-0.7-0.7-1.3-1.3-2.2-2.2c0-3.4,0-7.1,0-10.8c2.2-0.9,0.6-4.7,3.7-5.3
		C284,48.9,287.4,45.9,289.9,47.7c-4.3,1.5-7.9,3.9-8.1,5.5c-0.1,1.3-1.4,3.6,1.7,4.2c2.2-0.9,3.6-3,5.2-4.8
		C288.6,51.4,288.5,50.3,289.9,47.7z"/>
	<path class="stabc" d="M303.9,160c2.2,0,3.3,0,4.6,0c1.8,1.1,1.3,3.4,0.8,4.5c-2.1,4.3-1.5,8.8-1.6,13.2c0,1.4,0.4,3.4-0.3,4.1
		c-3.6,3.6-0.5,6.7,0.4,9.9c-1.6,2.6-3.6,3.7-7,2.6c-0.1-5.6,0.8-11.3,1.3-17.1C302.6,171.6,305.5,166.4,303.9,160z"/>
	<path class="stabc" d="M274.5,47.4c0,3.2,0,6.3,0,9.3c-1.4,1.1-2.1,3.1-4.4,2.3c-1.8-1.8,0.2-4.4-1.5-6.9c-1.4,1.2-0.8,3.7-2.7,4.4
		c0,2.9,0,5.7,0,8.6c-1.2,1.1-1.9,2.9-3.9,2.8c-0.5-0.3-1.2-0.6-1.3-1c-0.1-3.4,0.1-6.9-0.1-10.3c-0.2-4.2,2.1-7.1,4.1-9.4
		c2.3-0.4,2.8,0.8,3.7,1.5C269.9,46.9,271.7,46.4,274.5,47.4z"/>
	<path class="stabc" d="M229.4,65.2c-1.3,0.9-1.9,3-4.1,2.5c-0.2-0.1-0.6-0.2-0.6-0.4c-0.9-3.6-1.8-8.3,0-10.7
		c2.3-3.1-1.3-8.9,4.8-9.7c1-0.3,1.4,0.7,2.5,1.5c1.3-1.8,3.3-1.8,5.8-1.4c0,3,0,6,0,9.5c-0.9,0.9-1.6,3.1-4.2,2.3
		c-1.4-1.9-0.1-4.4-0.9-6.8C228.4,56,229.7,60.8,229.4,65.2z"/>
	<path class="stabc" d="M262.5,116.6c2.2-3.6,5.4-0.8,7.9-2c1.5,2.8,0.9,4.7-1.2,6.7c1.4,2.5,2.7,5.3,1.8,8.5
		c-1.2,0.6-1.5,2.5-3.3,2.4c0-1.4,0-2.8,0-4.7c-3.7-1.3-7.6,0-11.8-0.9c0-2.4,0-5.1,0-7.8C257.3,115.9,260,116.4,262.5,116.6
		c0.2,1.7-2.9,2.2-1.5,4.6c2.1,0.7,4.3,0.9,7.4-0.4C265.1,120.2,267.2,115.3,262.5,116.6z"/>
	<path class="stabc" d="M262.5,173.8c0.3,1.8-2.9,2.3-1.5,4.6c2.4,1.5,5.4-0.2,7.9,0.9c3,2,2.4,4.8,2.1,7.7c-1.2,0.6-1.5,2.5-3.3,2.4
		c0-1.4,0-2.8,0-4.8c-3.8,0-7.6,0-11.8,0c0-3.2,0-5.9,0-8.6C257.3,173.3,260,173.8,262.5,173.8z"/>
	<path class="stabc" d="M238.2,81.7c-0.2-1.1,0.5-1.4,1.3-1.8c2.6-1.2,3.9,1.8,6.5,1.8c2-2,0-7.3,5.6-7c2.4,6.3-3.4,12.2-0.9,18
		c-3.8,3.2-6-1.6-9-0.6c0.3-3.7,4.3-0.2,5.2-2.7c-0.3-1.9,0.7-4-0.6-5.8c-1.9,0.6-2.4,3.2-4.6,3.3c0-1.6,0-3.2,0-5.2
		C240.2,81.7,239.2,81.7,238.2,81.7z"/>
	<path class="stabc" d="M245.4,135.6c-0.6-7-0.7-13.4,2.6-19.2c0.7-1.2,1.9-2.2,3.6-1.3c3.3,5.9-4.8,12.2,0.4,18.1
		c-0.8,0.8-1.5,2-2.5,2.4C248.4,135.9,247.1,135.6,245.4,135.6z"/>
	<path class="stabc" d="M241.6,92.1c-1.4,3.7-4.3,0.9-6.3,1.6c-0.8-1.8-1-3.8-3-4.7c2.4-2.7,2.2-6.5,5.8-7.3c0,1.6,0,3.2,0,5.2
		c1.4,0,2.4,0,3.5,0c0.3,2.7-2.7,1-3.3,2.4C239.2,90.5,239.9,91.9,241.6,92.1z"/>
	<path class="stabc" d="M266.4,134.2c-4.8,1.8-7.6,1.2-10.1,1.2c-2.3-2-3.7-4-1.8-6.7c4-1.1,2.4,3.9,4.8,4.5
		C260.7,134.4,262.8,133.5,266.4,134.2z"/>
	<path class="stabc" d="M266.4,191.6c-4.8,1.8-7.6,1.2-10.1,1.2c-2.3-2-3.7-4-1.8-6.7c4-1.1,2.4,3.9,4.8,4.5
		C260.7,191.7,262.8,190.9,266.4,191.6z"/>
	<path class="stabc" d="M262.4,172.6c2.7-1.1,5.4-0.4,8-0.5c1.3,1.6,0.9,3.1,0.4,4.7c-1.2,1-2.7,0.2-4.2,0.4c-0.3-1-0.6-2-1-2.9
		C265,172.9,262.9,174.9,262.4,172.6z"/>
	<path class="stabc" d="M300.6,163.2c0,2.1,0,3.5,0,4.7c-1.3,1.3-2.8,0.4-4.2,0.7c-1.8-1.3-0.2-3.1-1-4.3
		C297,162.8,298.5,163.7,300.6,163.2z"/>
	<path class="stabc" d="M248.7,111.4c0-2.1,0-3.5,0-4.7c1.4-1.3,2.9-0.4,4.2-0.7c1.8,1.4,0.2,3.1,1,4.3
		C252.3,111.8,250.8,110.9,248.7,111.4z"/>
	<path class="stabc" d="M212.7,111.1c0.6-1.2,1.1-2.4,2.2-4.7c0.4,2.5,0.6,3.2,0.7,3.9C214.4,111.6,213.2,111.6,212.7,111.1z"/>
	<path class="stabc" d="M267.7,132.1c-0.1,2.6-2.2,1.5-3.5,1.7C264.4,131.2,266.4,132.3,267.7,132.1z"/>
	<path class="stabc" d="M267.7,189.4c-0.1,2.6-2.2,1.5-3.5,1.7C264.4,188.6,266.4,189.7,267.7,189.4z"/>
	<path class="stabc" d="M212.1,38.2c0-1.2,0.5-1.8,1.7-1.7C213.9,37.7,213.3,38.3,212.1,38.2z"/>
	<path class="stabc" d="M210.3,40c0-1.2,0.5-1.8,1.7-1.7C212.1,39.4,211.5,40,210.3,40z"/>
	<path class="stabc" d="M208.6,41.7c0-1.2,0.5-1.8,1.7-1.7C210.4,41.2,209.8,41.7,208.6,41.7z"/>
	<path class="stabc" d="M206.9,43.4c0-1.2,0.5-1.8,1.7-1.7C208.6,42.9,208.1,43.5,206.9,43.4z"/>
	<path class="stabc" d="M152.9,174.5c0,4.4,0,8.5,0,10.5c-1.4,5.9-4.8,8.2-7.3,10.9c-4.8,1.1-9.3,3.6-14.2,0.5c-4.1-2.5-7.9-5-9.7-11
		c0-2.1,0-5.6,0-9.1c7-11.4,7-11.4,21.5-11C148.8,165.9,149.2,171.6,152.9,174.5z M147.8,186.8c0-4.1,0-8.1,0-12.2
		c-1.4-1.4-2.9-2.9-4.4-4.4c-4.8,0.4-10.1-1.1-13.8,1.9c-3.6,4.9-2.5,9.8-2.7,14.5C133.1,194.7,140.9,195.2,147.8,186.8z"/>
	<path class="stabc" d="M132.1,183.3c0.1-3.3-0.9-6.1,4.2-7.8c1.1-0.2,3.9-0.6,6.1,2.5c0,2.2,0,4.7,0,7.3
		C136.7,187.8,136.7,187.8,132.1,183.3z"/>
</g>
</svg>
