<?xml version="1.0" encoding="utf-8"?>
<!-- Generator: Adobe Illustrator 19.0.0, SVG Export Plug-In . SVG Version: 6.00 Build 0)  -->
<svg version="1.1" id="Calque_1" xmlns="http://www.w3.org/2000/svg" xmlns:xlink="http://www.w3.org/1999/xlink" x="0px" y="0px"
	 viewBox="0 0 340.2 267.8" style="height: 120px;max-height: 250px;" xml:space="preserve">
<style type="text/css">
	.stverteo{fill:#742D87;}
	.stverteo1{fill:#87CBC6;}
</style>
<g id="XMLID_1_">
	<path id="XMLID_104_" class="stverteo" d="M309.2,133.2c0.1,12.3-10,22.2-22.4,22.1c-12.1-0.1-22.8-10.6-22.6-22.2
		c0.2-11.3,10.7-21.5,22.3-21.7C298.7,111.2,309.1,121.1,309.2,133.2z M286.7,118.4c-8.3,0.1-14.7,6.7-14.5,15.2
		c0.1,8.6,6.5,14.7,15.1,14.5c8.1-0.2,13.8-6.2,13.9-14.6C301.2,124.9,295,118.4,286.7,118.4z"/>
	<path id="XMLID_103_" class="stverteo" d="M248.1,132.8c9.8-0.1,11,1.8,7.3,10.8c-3.2,7.7-11.1,12.4-19.7,11.7
		c-9.7-0.8-17.5-7.3-19.8-16.3c-2.4-9.5,1.2-19,9.2-23.9c8.2-5,19-4.6,25.6,1.2c1.1,1,1.2,3,1.8,4.5c-1.7,0.2-3.5,0.7-5.1,0.4
		c-1.5-0.3-2.8-1.8-4.3-2.2c-6-1.5-11.7-1-16.2,4c-4.3,4.7-4.9,12.7-1.6,18.4c2.9,5,8.8,7.9,15.1,6.7c2.4-0.4,5-1.7,6.8-3.4
		c2.3-2.2,3.6-5.2-1.5-6c-2.5-0.4-6,0.4-5-3.7c0.3-1.1,3.6-1.6,5.6-2.2C246.8,132.6,247.5,132.8,248.1,132.8z"/>
	<path id="XMLID_102_" class="stverteo" d="M55.3,156.3c-2.7-3.5-4.8-5.3-5.7-7.6c-4-10-7.8-20.1-11.4-30.3c-0.6-1.6-0.1-5,0.6-5.3
		c2.8-0.9,5.8-0.8,7,3c1.6,5.3,3.3,10.6,5.2,15.8c1.2,3.4,2.9,6.7,4.3,10.1c1.5-3.5,3.2-6.9,4.6-10.4c1.8-4.9,3.5-9.8,5-14.8
		c1.1-3.7,3.7-4.9,6.6-3.5c1,0.5,1.4,4.3,0.8,6.2c-3.4,9.9-7.2,19.6-11.1,29.3C60.3,151,58.1,152.8,55.3,156.3z"/>
	<path id="XMLID_101_" class="stverteo" d="M81.1,132.8c0-2.9,0-5.9,0-8.8c0.1-13-1.2-11,11.7-11.2c3.3,0,6.5-0.1,9.7,0.3
		c0.9,0.1,2.5,1.8,2.4,2.3c-0.4,1.3-1.5,2.9-2.6,3.2c-2.5,0.5-5.2,0.4-7.8,0.3c-3.4-0.1-5.5,0.7-5.6,4.8c-0.1,4.4,1.8,5.8,5.8,5.5
		c2.6-0.2,5.3-0.3,7.8,0.3c1.2,0.2,2.8,2.1,2.7,3.1c0,1.1-1.7,2.7-3,2.9c-2.2,0.5-4.5,0.4-6.8,0.2c-4.2-0.3-6.6,0.6-6.6,5.8
		c0,5.1,1.7,6.8,6.8,6.7c3.1-0.1,9,1.8,8.9,2.4c-0.5,6.4-5.9,3.3-9,3.4c-14.5,0.5-14.5,0.2-14.5-14.2
		C81.1,137.3,81.1,135,81.1,132.8z"/>
	<path id="XMLID_100_" class="stverteo" d="M181.8,133.4c0-1,0-2,0-2.9c0-19.8,0.2-20,20-17.6c1.5,0.2,2.9,1.7,4.4,2.7
		c-1.6,1.1-3.1,2.5-4.8,3.2c-1.1,0.5-2.6,0-3.9,0.1c-3.7,0.2-8.1-1.3-8,5.3c0.1,5.8,4,4.8,7.5,4.9c2,0.1,4-0.3,5.8,0.3
		c1.2,0.4,1.9,2,2.9,3.1c-1.1,0.9-2.1,2.3-3.4,2.6c-1.8,0.5-3.9,0.3-5.8,0.1c-4.7-0.4-7,1-7.1,6.5c0,5.7,2.6,6.2,7.2,6.3
		c3.1,0.1,8.8-2.4,8.8,2.6c0,6.1-6.1,3.2-9.3,3.2c-17,0.2-13.8,2.1-14.2-13.5C181.8,137.9,181.8,135.7,181.8,133.4z"/>
	<path id="XMLID_94_" class="stverteo" d="M122.1,112.4c4.5,0.5,7.2,0,9,1.1c3.1,1.9,6.7,4.3,8.2,7.4c2,4,0.8,9-3.4,11.2
		c-5.5,3-4.6,6-1.7,9.9c1.4,1.8,2.8,3.7,3.6,5.8c0.7,1.8,0.7,3.8,1,5.8c-2.2-0.3-5.5,0.2-6.3-1c-3.8-5.7-7-11.8-10-17.9
		c-0.3-0.6,2.2-3.5,3.8-4c3.5-1.1,6.8-2.8,5.4-6.5c-0.9-2.4-4.6-3.7-7.1-5.4c-0.2-0.2-0.7,0-1-0.1c-2.8-0.9-5.6-1.8-8.3-2.7
		C118.2,114.5,121,113,122.1,112.4z"/>
	<path id="XMLID_93_" class="stverteo" d="M155.8,136.2c0-3.3-0.2-6.5,0-9.8c0.3-4.8-0.2-8.4-6.5-7.8c-1.2,0.1-2.6-2-3.9-3.1
		c1.4-0.9,2.9-2.6,4.3-2.7c6.8-0.3,13.7-0.3,20.5,0c1.3,0.1,2.5,2,3.7,3.1c-1.1,0.9-2.3,2.7-3.3,2.6c-8-1.1-7.1,4.3-7.1,9.2
		c0,5.9,0.2,11.7-0.1,17.6c-0.2,3.1,2.2,8.2-3.6,8.3c-6.7,0.2-3.4-5.6-4-8.8C155.4,142.1,155.8,139.1,155.8,136.2z"/>
	<path id="XMLID_92_" class="stverteo1" d="M219.6,93.7c-1-0.6-1.6-0.9-2.1-1.3c-1-0.9-1.7-2-2.8-2.7c-3.7-2.2-9.9-3.6-10.7-6.5
		c-0.9-3.4,3.4-7.9,4.6-12.1c0.9-3.3,1.8-2.4,3.7-1c1.8,1.3,3.7,2.7,5.7,3.4c2.5,0.9,5.3,1.3,7.9,1.8c-1.4,2.5-3.3,4.8-4.2,7.5
		c-0.9,2.7-1,5.7-1.4,8.5C220.2,92.1,219.9,92.8,219.6,93.7z"/>
</g>
</svg>
