<?xml version="1.0" encoding="utf-8"?>
<!-- Generator: Adobe Illustrator 19.0.0, SVG Export Plug-In . SVG Version: 6.00 Build 0)  -->
<svg version="1.1" id="Calque_1" xmlns="http://www.w3.org/2000/svg" xmlns:xlink="http://www.w3.org/1999/xlink" x="0px" y="0px"
	 viewBox="0 0 340.2 267.8" style="height: 120px;max-height: 250px;" xml:space="preserve">
<style type="text/css">
	.st0{fill:#742D87;}
	.st1{fill:#79358A;}
	.st2{fill:#762F88;}
	.st3{fill:#7B378D;}
	.st4{fill:#78328A;}
	.st5{fill:#763089;}
	.st6{fill:#87CBC6;}
	.st7{fill:#66127A;}
	.st8{fill:#F4F0F4;}
	.st9{fill:#E8DCE8;}
	.st10{fill:#D7C6DB;}
</style>
<g id="XMLID_1_">
	<path id="XMLID_272_" class="st0" d="M265.1,132.1c2.5-11.9,12.4-19.7,23.5-18.5c11.6,1.2,20.3,10,20.6,21
		c0.4,11.7-7.9,21-19.9,22.6c-10.7,1.4-20.6-5.6-23.8-16.8C268.8,137.4,268.8,134.7,265.1,132.1z M286.9,120.4
		c-8.2,0-14.6,6.4-14.8,14.8c-0.1,8.5,6,14.9,14.4,15c8.5,0.1,14.6-6,14.6-14.7C301.2,126.9,295.1,120.4,286.9,120.4z"/>
	<path id="XMLID_271_" class="st1" d="M250.1,152c-9.1,7.3-15.3,7.3-28-0.1c-0.5-0.5-1-0.9-1.5-1.4c-1.2-1.5-2.3-2.9-3.5-4.4
		c-0.7-2.2-1.5-4.4-2.2-6.6c0.5-15.5,6-23.9,18.6-25.5c5.1-0.6,10.6,1.6,15.8,3.1c1.6,0.5,2.5,3.2,3.7,4.8c-2.2,0.2-4.4,0.7-6.6,0.6
		c-4.1-0.4-8.1-1.1-12.2-1.7c-1,0.4-1.9,0.8-2.9,1.3c-6,2.3-8.2,6.7-7.2,13c0,1.3,0.1,2.5,0.1,3.8c3.3,10.5,7.2,12.4,20.9,10.4
		C246.8,150.3,248.4,151.1,250.1,152z"/>
	<path id="XMLID_270_" class="st2" d="M65.8,140.2c-1.4,3.3-2.5,6.8-4.4,9.8c-1.5,2.4-4,5-6.4,5.6c-1.4,0.3-4.6-2.9-5.5-5.1
		c-4-9.6-7.6-19.4-11.1-29.2c-0.6-1.8,0.2-4.2,0.4-6.3c2.3,1.2,5.8,1.7,6.7,3.6c2.3,4.6,3.5,9.8,5.1,14.7c0.8,2.5,1.5,5,2.5,7.4
		c0.5,1.2,1.5,2.3,2.3,3.4c0.7-1,1.7-1.9,2.1-3c2.6-7.4,4.7-14.9,7.6-22.2c2.1-5.5,5-5.4,8.9-0.3c-1.5,4-3,7.9-4.4,11.9
		c-0.5,0.3-0.7,0.8-0.5,1.4C68,134.6,66.9,137.4,65.8,140.2z"/>
	<path id="XMLID_269_" class="st3" d="M202.9,121.3c-2.3-0.1-4.5-0.1-6.8-0.4c-6-0.7-7.4,2.2-6.2,7.5c1.7,0.8,3.4,1.6,5.1,2.4
		c3.7,1,10.7,2.4,10.7,2.8c-0.9,7-6.9,3.5-10.6,3.8c-8.4,0.8-4.9,6.4-5.1,10.6c0.4,0.4,0.8,0.9,1.3,1.3c3.5,0.2,7.1,0.3,10.6,0.5
		c4.9,0.2,5.4,2.6,3,6.3c-0.7,0.1-1.3,0.2-2,0.3c-2.2-0.1-4.4-0.3-6.7-0.3c-13.9-0.1-13.9-0.1-14.9-13.8c0-2.6,0-5.2,0-7.9
		c0.1-1,0.3-1.9,0.4-2.9c0.5-5.4-0.6-14.4,1.9-15.5c5.4-2.5,12.7-1.4,19.2-1.1c4.8,0.2,3.9,3.3,2,6.2
		C204.2,121.1,203.6,121.2,202.9,121.3z"/>
	<path id="XMLID_268_" class="st4" d="M94.9,156.4c-4.5-0.2-9-0.4-13.5-0.6c-0.3-9.1-0.6-18.2-0.9-27.3c0-2,0-3.9,0-5.9
		c0-2,0.1-3.9,0.1-5.9c7.3-0.6,14.6-1.3,21.9-1.7c0.8,0,2.6,1.8,2.4,2.3c-0.4,1.3-1.5,2.9-2.6,3.2c-2.2,0.5-4.6,0.5-6.8,0.3
		c-6.3-0.7-7.3,2.6-6.1,7.7c0.5,0.7,1,1.3,1.5,2c3.9,0.2,7.7,0.2,11.5,0.8c1.1,0.2,2.8,2,2.8,3c0,1-1.7,2.8-2.8,3
		c-3.8,0.6-7.7,0.6-11.5,0.8c-0.5,0.7-1,1.4-1.5,2c-0.4,9.2-0.4,9.3,8.9,9.5c4.3,0.1,8.2,0,6.3,6.2c-0.6,0.1-1.3,0.3-1.9,0.4
		c-2,0-4,0-6,0.1C96.2,156.4,95.6,156.4,94.9,156.4z"/>
	<path id="XMLID_267_" class="st5" d="M153.9,121.3c-2,0-4-0.1-6-0.1c-0.7-0.1-1.3-0.3-2-0.4c-1.3-3.9-0.5-6.2,4.2-6.2
		c7.8,0.1,15.6,0,23.3,0c0.4,0.6,0.8,1.1,1.3,1.7c-1.1,1.7-2.1,3.3-3.2,5c-1.9,0-3.9,0-5.8,0c-0.6,1-1.1,2.1-1.7,3.1
		c0,7.2,0.1,14.4,0.1,21.6c-1.9,3.1,2.5,9.9-4.6,9.5c-6.8-0.3-3.1-6.4-3.6-9.9c-0.7-5-0.4-10.2-0.5-15.3c0-0.6,0-1.3,0-1.9
		c-0.1-2-0.1-4-0.2-5.9C154.8,122.1,154.3,121.7,153.9,121.3z"/>
	<path id="XMLID_266_" class="st6" d="M226.2,77.6c-1.8,2.8-4.6,5.2-4.6,7.7c-0.4,11.5-4.8,9.1-10.9,3.8c-1.3-1.2-3.7-1.1-5.5-2
		c-0.8-0.4-1.7-2-1.4-2.7c1.5-4.2,3.3-8.3,5.2-12.4c0.2-0.5,2-0.6,2.8-0.4c4.1,1.4,8.2,2.9,12.3,4.5
		C224.8,76.5,225.4,77.1,226.2,77.6z"/>
	<path id="XMLID_265_" class="st4" d="M116.5,120.8c-1.8-3-2.2-5.7,2.3-6c3.5-0.2,7.1-0.3,10.6,0.2c5,0.7,9.3,2.9,10.2,8.6
		c0.9,5.7-0.8,10.2-7,11.9c-0.2-1.9-0.5-3.8-0.7-5.6c-0.5-2.1-0.9-4.3-1.4-6.4c-0.5-0.4-1.1-0.8-1.6-1.2c-2.2-0.4-4.3-0.8-6.5-1.2
		c-1.3,0-2.7,0-4,0C117.8,121,117.2,120.9,116.5,120.8z"/>
	<path id="XMLID_264_" class="st1" d="M132,129.9c0.2,1.9,0.5,3.8,0.7,5.6c-2.4,7.6,4.3,11.2,7.3,16.5c0.2,0.6,0.5,1.2,0.7,1.9
		c-2.2,0.8-4.4,1.6-6.5,2.4c-0.5-0.4-1.1-0.6-1.8-0.6c-3.3-5.8-6.7-11.6-10-17.4c-0.2-0.6-0.3-1.3-0.5-1.9c0.2-1.1,0.5-2.3,0.7-3.4
		c2.5-0.9,5.1-1.7,7.6-2.6l0,0C130.8,130.3,131.4,130.2,132,129.9z"/>
	<path id="XMLID_263_" class="st7" d="M250.1,152c-1.6-0.9-3.3-1.8-4.9-2.7l0.2-0.1c0.8-0.7,1.5-1.3,2.3-2c0.2-0.9,0.4-1.8,0.6-2.7
		c0-0.9-0.1-1.8-0.1-2.6l0.1,0.1c-1.3-0.3-2.6-0.6-4-1c-0.7-0.3-1.4-0.7-2.1-1c-0.1-1.4-0.2-2.9-0.3-4.3c2.8-0.2,5.6-0.4,8.4-0.8
		c6-0.8,7.1,2.4,6.3,7.3c-0.4,0.6-0.7,1.2-1.1,1.9c-0.4,0.8-0.8,1.7-1.2,2.5C252.8,148.5,251.5,150.3,250.1,152z"/>
	<path id="XMLID_228_" class="st7" d="M265.1,132.1c3.7,2.6,3.7,5.4,0.4,8.3C265.4,137.6,265.2,134.8,265.1,132.1z"/>
	<path id="XMLID_227_" class="st8" d="M130.2,130.4c-2.5,0.9-5.1,1.7-7.6,2.6C125.1,132.1,127.7,131.2,130.2,130.4z"/>
	<path id="XMLID_224_" class="st8" d="M214.9,139.6c0.7,2.2,1.5,4.4,2.2,6.6C216.4,144,215.7,141.8,214.9,139.6z"/>
	<path id="XMLID_223_" class="st9" d="M195,130.7c-1.7-0.8-3.4-1.6-5.1-2.4C191.6,129.1,193.3,129.9,195,130.7z"/>
	<path id="XMLID_222_" class="st8" d="M132,129.9c-0.6,0.3-1.2,0.4-1.8,0.4c0.1-2.3,0.3-4.6,0.4-6.8
		C131.1,125.7,131.5,127.8,132,129.9z"/>
	<path id="XMLID_218_" class="st8" d="M122.5,121.1c2.2,0.4,4.3,0.8,6.5,1.2C126.8,121.9,124.6,121.5,122.5,121.1z"/>
	<path id="XMLID_215_" class="st1" d="M241.9,135.7c0.1,1.4,0.2,2.9,0.3,4.3C242.1,138.6,242,137.2,241.9,135.7z"/>
	<path id="XMLID_213_" class="st8" d="M174.7,116.4c-0.4-0.6-0.8-1.1-1.3-1.7C173.9,115.3,174.3,115.8,174.7,116.4z"/>
	<path id="XMLID_212_" class="st8" d="M116.5,120.8c0.6,0.1,1.3,0.2,1.9,0.3C117.8,121,117.2,120.9,116.5,120.8z"/>
	<path id="XMLID_211_" class="st9" d="M202.9,156.3c0.7-0.1,1.3-0.2,2-0.3C204.2,156.1,203.6,156.2,202.9,156.3z"/>
	<path id="XMLID_210_" class="st8" d="M132.3,155.6c0.7,0,1.3,0.2,1.8,0.6C133.5,156.1,132.9,155.8,132.3,155.6z"/>
	<path id="XMLID_209_" class="st8" d="M102.8,156.3c0.6-0.1,1.3-0.3,1.9-0.4C104.1,156,103.4,156.2,102.8,156.3z"/>
	<path id="XMLID_208_" class="st8" d="M145.9,120.9c0.7,0.1,1.3,0.3,2,0.4C147.2,121.1,146.6,121,145.9,120.9z"/>
	<path id="XMLID_207_" class="st8" d="M94.9,156.4c0.6,0,1.3,0,1.9,0C96.2,156.4,95.6,156.4,94.9,156.4z"/>
	<path id="XMLID_206_" class="st8" d="M153.9,121.3c0.5,0.4,0.9,0.8,1.4,1.2C154.6,122.4,154.2,122,153.9,121.3z"/>
	<path id="XMLID_205_" class="st8" d="M140.7,153.9c-0.2-0.6-0.5-1.2-0.7-1.9c0.4,0.4,0.9,0.7,1.2,1.1
		C141.2,153.2,140.9,153.7,140.7,153.9z"/>
	<path id="XMLID_204_" class="st8" d="M220.6,150.6c0.5,0.5,1,0.9,1.5,1.4C221.6,151.5,221.1,151,220.6,150.6z"/>
	<path id="XMLID_203_" class="st9" d="M202.9,121.3c0.7-0.1,1.3-0.2,2-0.3C204.2,121.1,203.6,121.2,202.9,121.3z"/>
	<path id="XMLID_202_" class="st1" d="M247.7,147.3c-0.8,0.7-1.5,1.3-2.3,2C246.2,148.6,246.9,148,247.7,147.3z"/>
	<path id="XMLID_201_" class="st10" d="M191.3,149.3c-0.4-0.4-0.8-0.9-1.3-1.3C190.7,148.2,191.1,148.6,191.3,149.3z"/>
	<path id="XMLID_200_" class="st1" d="M255.5,144.2c0.1,0.6,0.2,1.3,0.4,1.9c-0.5,0.2-1,0.4-1.6,0.6
		C254.6,145.8,255,145,255.5,144.2z"/>
	<path id="XMLID_199_" class="st8" d="M171.5,124.5c0-0.7,0-1.4-0.1-2.1C171.4,123.1,171.5,123.8,171.5,124.5z"/>
	<path id="XMLID_198_" class="st8" d="M91,130.5c-0.5-0.7-1-1.3-1.5-2C90,129.2,90.5,129.8,91,130.5z"/>
	<path id="XMLID_197_" class="st8" d="M155.4,128.5c0,0.6,0,1.3,0,1.9c-0.2-0.5-0.5-0.9-0.7-1.4
		C154.7,128.9,155.2,128.7,155.4,128.5z"/>
	<path id="XMLID_195_" class="st8" d="M89.5,140.2c0.5-0.7,1-1.4,1.5-2C90.5,138.8,90,139.5,89.5,140.2z"/>
	<path id="XMLID_194_" class="st8" d="M121.9,136.4c0.2,0.6,0.3,1.3,0.5,1.9c-0.4-0.4-0.8-0.8-1.1-1.2
		C121.2,137,121.7,136.6,121.9,136.4z"/>
	<path id="XMLID_193_" class="st8" d="M165.7,121.4c-0.6,1-1.1,2.1-1.7,3.1C164.5,123.5,165.1,122.4,165.7,121.4z"/>
</g>
</svg>
